<svg xmlns="http://www.w3.org/2000/svg" xmlns:xlink="http://www.w3.org/1999/xlink" viewBox="0 0 1920 550"><defs><clipPath id="a"><rect x="184.99" y="81.97" width="1550.02" height="386.05" style="fill:none"/></clipPath></defs><title>dia1</title><rect width="1920" height="550" style="fill:#caffe1"/><g style="clip-path:url(#a)"><path d="M201,195.55s-14,0-14,14v19.28s0,14,14,14H423.92s14,0,14-14V209.57s0-14-14-14Z" style="fill:#c9ffe0"/><path d="M201,195.55s-14,0-14,14v19.28s0,14,14,14H423.92s14,0,14-14V209.57s0-14-14-14Z" style="fill:none;stroke:#1d1d1b;stroke-width:4px"/><path d="M807.8,195.55s-14,0-14,14v19.28s0,14,14,14h178s14,0,14-14V209.57s0-14-14-14Z" style="fill:#c9ffe0"/><path d="M807.8,195.55s-14,0-14,14v19.28s0,14,14,14h178s14,0,14-14V209.57s0-14-14-14Z" style="fill:none;stroke:#1d1d1b;stroke-width:4px"/><path d="M1349.33,195.55s-14,0-14,14v19.28s0,14,14,14h146.18s14,0,14-14V209.57s0-14-14-14Z" style="fill:#c9ffe0"/><path d="M1349.33,195.55s-14,0-14,14v19.28s0,14,14,14h146.18s14,0,14-14V209.57s0-14-14-14Z" style="fill:none;stroke:#1d1d1b;stroke-width:4px"/><path d="M1349.33,84s-14,0-14,14v19.28s0,14,14,14h79.58s14,0,14-14V98s0-14-14-14Z" style="fill:#c9ffe0"/><path d="M1349.33,84s-14,0-14,14v19.28s0,14,14,14h79.58s14,0,14-14V98s0-14-14-14Z" style="fill:none;stroke:#1d1d1b;stroke-width:4px"/><path d="M1349.33,306.25s-14,0-14,14v19.28s0,14,14,14h275.89s14,0,14-14V320.27s0-14-14-14Z" style="fill:#c9ffe0"/><path d="M1349.33,306.25s-14,0-14,14v19.28s0,14,14,14h275.89s14,0,14-14V320.27s0-14-14-14Z" style="fill:none;stroke:#1d1d1b;stroke-width:4px"/><path d="M1349.33,418.7s-14,0-14,14V452s0,14,14,14H1450s14,0,14-14V432.72s0-14-14-14Z" style="fill:#c9ffe0"/><path d="M1349.33,418.7s-14,0-14,14V452s0,14,14,14H1450s14,0,14-14V432.72s0-14-14-14Z" style="fill:none;stroke:#1d1d1b;stroke-width:4px"/><path d="M807.8,306.88s-14,0-14,14v19.28s0,14,14,14H977.6s14,0,14-14V320.9s0-14-14-14Z" style="fill:#c9ffe0"/><path d="M807.8,306.88s-14,0-14,14v19.28s0,14,14,14H977.6s14,0,14-14V320.9s0-14-14-14Z" style="fill:none;stroke:#1d1d1b;stroke-width:4px"/><path d="M199.89,194.43s-14,0-14,14v19.28s0,14,14,14H425s14,0,14-14V208.45s0-14-14-14Z" style="fill:#c9ffe0"/><path d="M199.89,194.43s-14,0-14,14v19.28s0,14,14,14H425s14,0,14-14V208.45s0-14-14-14Z" style="fill:none;stroke:#1d1d1b;stroke-width:1.75300002098084px"/><path d="M806.67,306s-14,0-14,14V339.3s0,14,14,14H979s14,0,14-14V320s0-14-14-14Z" style="fill:#c9ffe0"/><path d="M806.67,306s-14,0-14,14V339.3s0,14,14,14H979s14,0,14-14V320s0-14-14-14Z" style="fill:none;stroke:#1d1d1b;stroke-width:1.75300002098084px"/><path d="M806.67,194.43s-14,0-14,14v19.28s0,14,14,14H987.21s14,0,14-14V208.45s0-14-14-14Z" style="fill:#c9ffe0"/><path d="M806.67,194.43s-14,0-14,14v19.28s0,14,14,14H987.21s14,0,14-14V208.45s0-14-14-14Z" style="fill:none;stroke:#1d1d1b;stroke-width:1.75300002098084px"/><path d="M1348.21,82.85s-14,0-14,14v19.28s0,14,14,14H1430s14,0,14-14V96.87s0-14-14-14Z" style="fill:#c9ffe0"/><path d="M1348.21,82.85s-14,0-14,14v19.28s0,14,14,14H1430s14,0,14-14V96.87s0-14-14-14Z" style="fill:none;stroke:#1d1d1b;stroke-width:1.75300002098084px"/><path d="M1348.21,417.58s-14,0-14,14v19.28s0,14,14,14h102.9s14,0,14-14V431.6s0-14-14-14Z" style="fill:#c9ffe0"/><path d="M1348.21,417.58s-14,0-14,14v19.28s0,14,14,14h102.9s14,0,14-14V431.6s0-14-14-14Z" style="fill:none;stroke:#1d1d1b;stroke-width:1.75300002098084px"/><path d="M1348.21,305.13s-14,0-14,14v19.28s0,14,14,14h278.13s14,0,14-14V319.15s0-14-14-14Z" style="fill:#c9ffe0"/><path d="M1348.21,305.13s-14,0-14,14v19.28s0,14,14,14h278.13s14,0,14-14V319.15s0-14-14-14Z" style="fill:none;stroke:#1d1d1b;stroke-width:1.75300002098084px"/><path d="M1348.21,194.43s-14,0-14,14v19.28s0,14,14,14h148.43s14,0,14-14V208.45s0-14-14-14Z" style="fill:#c9ffe0"/><path d="M1348.21,194.43s-14,0-14,14v19.28s0,14,14,14h148.43s14,0,14-14V208.45s0-14-14-14Z" style="fill:none;stroke:#1d1d1b;stroke-width:1.75300002098084px"/></g><path d="M214.08,223.51c2.63,0,3.24-2.25,3.24-4.52v-8.94H220v9c0,4.26-2.1,6.54-5.91,6.54-4.29,0-5.88-2.34-5.88-6.71v-8.88h2.67V219C210.87,221.09,211.41,223.51,214.08,223.51Z" style="fill:#1d1d1b"/><path d="M228.57,214.26a3.2,3.2,0,0,1,3.05,1.49,6.55,6.55,0,0,1,.66,3.35v6.22h-2.53v-6.06c0-1.61-.23-3.07-2-3.07s-2.46,1.06-2.46,3.64v5.49h-2.53V214.47h2.34v1.41A4.18,4.18,0,0,1,228.57,214.26Z" style="fill:#1d1d1b"/><path d="M237.58,225.32h-2.53V210.05h2.53Z" style="fill:#1d1d1b"/><path d="M250.62,219.9c0,3.42-2.11,5.71-5.45,5.71s-5.38-2.29-5.38-5.71,2.1-5.72,5.4-5.72S250.62,216.47,250.62,219.9Zm-8.2,0c0,2.29,1,3.78,2.75,3.78s2.82-1.45,2.82-3.78-1-3.79-2.8-3.79S242.42,217.56,242.42,219.9Z" style="fill:#1d1d1b"/><path d="M257.35,225.64c-3.24,0-5.2-2.3-5.2-5.74s2-5.75,5.2-5.75c2.88,0,4.62,1.62,4.77,4.08h-2.61a2.09,2.09,0,0,0-2.18-2.12c-1.62,0-2.57,1.47-2.57,3.74s1,3.83,2.57,3.83a2.2,2.2,0,0,0,2.25-2.19h2.56C262,224.1,260.19,225.64,257.35,225.64Z" style="fill:#1d1d1b"/><path d="M266.71,219l3.68-4.5h3l-4.16,4.86,4.61,6h-3.16l-4-5.38v5.38h-2.53V210.05h2.53Z" style="fill:#1d1d1b"/><path d="M281.75,211.78v2.69h2.14v1.93h-2.14v5.11c0,1.35.29,2,1.3,2a3.81,3.81,0,0,0,.86-.08v1.93a6,6,0,0,1-1.62.19c-2.16,0-3.07-1-3.07-3.49V216.4h-1.74v-1.93h1.74v-2.69Z" style="fill:#1d1d1b"/><path d="M288.35,215.82a3.71,3.71,0,0,1,3.26-1.56,3.53,3.53,0,0,1,3.09,1.47c.53.76.61,1.77.61,3.37v6.22h-2.52v-6.06c0-1.61-.23-3.07-2-3.07s-2.46,1.06-2.46,3.64v5.49h-2.52V210.05h2.52Z" style="fill:#1d1d1b"/><path d="M302.71,214.18a4.47,4.47,0,0,1,4.15,2.22,8.49,8.49,0,0,1,.86,4.23H300c.07,1.85,1,3.13,2.74,3.13a2.2,2.2,0,0,0,2.29-1.68h2.67c-.59,2.38-2.36,3.53-5,3.53-3.51,0-5.31-2.2-5.31-5.76C297.4,216.59,299.43,214.18,302.71,214.18Zm-.12,1.83c-1.41,0-2.48.92-2.63,2.77h5.19C305,216.93,304,216,302.59,216Z" style="fill:#1d1d1b"/><path d="M319.86,225.53a4.05,4.05,0,0,1-3.35-1.64v1.43h-2.35V210.05h2.52v5.68a3.83,3.83,0,0,1,3.22-1.47c2.77,0,4.52,2.14,4.52,5.61S322.53,225.53,319.86,225.53Zm-.66-9.34c-1.59,0-2.58,1.5-2.58,3.68s1,3.7,2.63,3.7,2.58-1.42,2.58-3.7S320.87,216.19,319.2,216.19Z" style="fill:#1d1d1b"/><path d="M336.79,219.9c0,3.42-2.11,5.71-5.45,5.71S326,223.32,326,219.9s2.1-5.72,5.4-5.72S336.79,216.47,336.79,219.9Zm-8.2,0c0,2.29,1,3.78,2.75,3.78s2.82-1.45,2.82-3.78-1-3.79-2.8-3.79S328.59,217.56,328.59,219.9Z" style="fill:#1d1d1b"/><path d="M349.13,219.9c0,3.42-2.1,5.71-5.44,5.71s-5.39-2.29-5.39-5.71,2.11-5.72,5.41-5.72S349.13,216.47,349.13,219.9Zm-8.2,0c0,2.29,1,3.78,2.76,3.78s2.81-1.45,2.81-3.78-1-3.79-2.79-3.79S340.93,217.56,340.93,219.9Z" style="fill:#1d1d1b"/><path d="M354.25,211.78v2.69h2.14v1.93h-2.14v5.11c0,1.35.29,2,1.3,2a3.81,3.81,0,0,0,.86-.08v1.93a6,6,0,0,1-1.62.19c-2.16,0-3.07-1-3.07-3.49V216.4H350v-1.93h1.74v-2.69Z" style="fill:#1d1d1b"/><path d="M360.85,225.32h-2.52V210.05h2.52Z" style="fill:#1d1d1b"/><path d="M373.89,219.9c0,3.42-2.1,5.71-5.45,5.71s-5.38-2.29-5.38-5.71,2.1-5.72,5.4-5.72S373.89,216.47,373.89,219.9Zm-8.2,0c0,2.29,1,3.78,2.75,3.78s2.82-1.45,2.82-3.78-1-3.79-2.8-3.79S365.69,217.56,365.69,219.9Z" style="fill:#1d1d1b"/><path d="M382.76,223.91a4.22,4.22,0,0,1-3.63,1.62c-2.42,0-3.77-1.2-3.77-3.22,0-3.47,4.36-3.49,7.11-3.82V218c0-1.34-.63-2.06-2-2.06s-2.12.65-2.14,1.83h-2.59c.09-2.27,1.9-3.61,4.73-3.61,3.45,0,4.44,1.78,4.44,4.71v3a20.43,20.43,0,0,0,.23,3.41h-2.29C382.81,224.9,382.79,224.48,382.76,223.91ZM378,222.27c0,.93.63,1.51,1.81,1.51,1.58,0,2.69-.75,2.69-3.11v-.46C380.58,220.48,378,220.42,378,222.27Z" style="fill:#1d1d1b"/><path d="M391.58,214.26a3.65,3.65,0,0,1,3.17,1.45v-5.66h2.53v15.27H394.9v-1.45a4,4,0,0,1-3.32,1.66c-2.78,0-4.59-2.06-4.59-5.66C387,216.45,388.8,214.26,391.58,214.26Zm.59,9.31c1.59,0,2.62-1.36,2.62-3.7s-1-3.68-2.58-3.68-2.61,1.41-2.61,3.68S390.57,223.57,392.17,223.57Z" style="fill:#1d1d1b"/><path d="M404.81,214.18A4.45,4.45,0,0,1,409,216.4a8.49,8.49,0,0,1,.86,4.23h-7.72c.07,1.85,1,3.13,2.74,3.13a2.2,2.2,0,0,0,2.29-1.68h2.67c-.59,2.38-2.35,3.53-5,3.53-3.51,0-5.32-2.2-5.32-5.76C399.49,216.59,401.53,214.18,404.81,214.18Zm-.13,1.83c-1.41,0-2.48.92-2.63,2.77h5.2C407.1,216.93,406.05,216,404.68,216Z" style="fill:#1d1d1b"/><path d="M414.42,216.09a3.18,3.18,0,0,1,2.88-1.73,6.09,6.09,0,0,1,1.2.11v2.19a4.85,4.85,0,0,0-1.09-.11c-2.09,0-2.84,1.39-2.84,4v4.75H412V214.47h2.38Z" style="fill:#1d1d1b"/><path d="M822.42,225.47c-4.14,0-6.88-2.86-6.88-7.82,0-4.65,2.8-8.08,6.92-8.08,3.51,0,6,2.17,6.21,5.45h-2.74a3.43,3.43,0,0,0-3.49-3.33c-2.52,0-4.16,2.38-4.16,5.85s1.64,5.8,4.14,5.8c2,0,3.28-1.32,3.55-3.42h2.8A6,6,0,0,1,822.42,225.47Z" style="fill:#1d1d1b"/><path d="M834.35,225.36a3.54,3.54,0,0,1-3.07-1.47,6,6,0,0,1-.63-3.43V214.3h2.5v6.08c0,1.6.23,3.07,2,3.07a2.07,2.07,0,0,0,1.78-.84,4.65,4.65,0,0,0,.68-2.8V214.3h2.52v10.85h-2.36v-1.41A4.12,4.12,0,0,1,834.35,225.36Z" style="fill:#1d1d1b"/><path d="M847.13,223.64c1.2,0,2-.51,2-1.35,0-1.09-1.2-1.36-2.61-1.7-1.85-.44-4-.93-4-3.3,0-2,1.74-3.28,4.52-3.28s4.5,1.24,4.5,3.61H849c-.07-1.28-.72-1.8-2.09-1.8-1.11,0-1.83.48-1.83,1.26,0,1.15,1.6,1.45,3.22,1.85s3.43,1.07,3.43,3.15-1.77,3.37-4.61,3.37c-3.09,0-4.81-1.31-4.87-3.77h2.58C844.82,223,845.6,223.64,847.13,223.64Z" style="fill:#1d1d1b"/><path d="M856.81,211.61v2.69H859v1.94h-2.15v5.11c0,1.34.29,2,1.3,2a3.89,3.89,0,0,0,.87-.08v1.93a6,6,0,0,1-1.62.19c-2.17,0-3.07-1-3.07-3.49v-5.61h-1.75V214.3h1.75v-2.69Z" style="fill:#1d1d1b"/><path d="M871,219.73c0,3.42-2.1,5.72-5.44,5.72s-5.39-2.3-5.39-5.72,2.11-5.72,5.41-5.72S871,216.3,871,219.73Zm-8.2,0c0,2.29,1,3.78,2.76,3.78s2.81-1.45,2.81-3.78-1-3.79-2.79-3.79S862.76,217.39,862.76,219.73Z" style="fill:#1d1d1b"/><path d="M875.42,215.75a3.91,3.91,0,0,1,3.35-1.66,3,3,0,0,1,3.07,1.83,4,4,0,0,1,3.7-1.83,3.23,3.23,0,0,1,2.58,1,4.9,4.9,0,0,1,.93,3.3v6.79h-2.52v-6.37c0-1.43-.34-2.75-1.83-2.75-1.81,0-2.32,1.72-2.32,3.78v5.34h-2.52v-6.37c0-1.43-.38-2.75-1.87-2.75-1.79,0-2.29,1.72-2.29,3.78v5.34h-2.53V214.3h2.28Z" style="fill:#1d1d1b"/><path d="M898.41,215.92a3.2,3.2,0,0,1,2.88-1.72,6.08,6.08,0,0,1,1.2.1v2.19a4.8,4.8,0,0,0-1.09-.11c-2.08,0-2.84,1.39-2.84,4v4.75H896V214.3h2.37Z" style="fill:#1d1d1b"/><path d="M908.66,214a4.45,4.45,0,0,1,4.14,2.23,8.43,8.43,0,0,1,.86,4.22h-7.72c.07,1.85,1,3.14,2.74,3.14a2.21,2.21,0,0,0,2.29-1.69h2.67c-.59,2.38-2.36,3.54-5,3.54-3.52,0-5.33-2.21-5.33-5.76C903.33,216.43,905.38,214,908.66,214Zm-.13,1.83c-1.41,0-2.48.92-2.63,2.77h5.19C911,216.76,909.9,215.84,908.53,215.84Z" style="fill:#1d1d1b"/><path d="M920.41,225.47c-3.24,0-5.19-2.29-5.19-5.74s2-5.74,5.19-5.74c2.88,0,4.63,1.62,4.78,4.08h-2.61a2.11,2.11,0,0,0-2.19-2.13c-1.62,0-2.56,1.47-2.56,3.75s1,3.82,2.56,3.82a2.2,2.2,0,0,0,2.25-2.19h2.57C925,223.93,923.25,225.47,920.41,225.47Z" style="fill:#1d1d1b"/><path d="M937.38,219.73c0,3.42-2.1,5.72-5.44,5.72s-5.38-2.3-5.38-5.72,2.1-5.72,5.4-5.72S937.38,216.3,937.38,219.73Zm-8.2,0c0,2.29,1,3.78,2.76,3.78s2.82-1.45,2.82-3.78-1-3.79-2.8-3.79S929.18,217.39,929.18,219.73Z" style="fill:#1d1d1b"/><path d="M942.56,219.73c.32,1.07.57,2.12.84,3.19h.15c.25-1.07.52-2.12.84-3.19l1.68-5.43h2.69L945,225.15h-3.07l-3.79-10.85h2.8Z" style="fill:#1d1d1b"/><path d="M954.84,214a4.46,4.46,0,0,1,4.15,2.23,8.43,8.43,0,0,1,.86,4.22h-7.72c.06,1.85,1,3.14,2.73,3.14a2.22,2.22,0,0,0,2.3-1.69h2.67c-.59,2.38-2.36,3.54-5,3.54-3.51,0-5.32-2.21-5.32-5.76C949.52,216.43,951.56,214,954.84,214Zm-.12,1.83c-1.41,0-2.48.92-2.63,2.77h5.19C957.13,216.76,956.08,215.84,954.72,215.84Z" style="fill:#1d1d1b"/><path d="M964.46,215.92a3.19,3.19,0,0,1,2.88-1.72,6,6,0,0,1,1.19.1v2.19a4.8,4.8,0,0,0-1.09-.11c-2.08,0-2.84,1.39-2.84,4v4.75h-2.52V214.3h2.38Z" style="fill:#1d1d1b"/><path d="M970.79,227.46c1.2,0,1.93-.69,2.1-2.2l-3.91-11h2.82l1.59,5.43c.32,1.07.53,2.1.85,3.17h.12c.27-1,.53-2.14.84-3.17l1.71-5.43h2.62l-3.78,10.56c-1.18,3.34-2.29,4.6-4.44,4.6a6.73,6.73,0,0,1-1.62-.12v-2A3.12,3.12,0,0,0,970.79,227.46Z" style="fill:#1d1d1b"/><path d="M1365.64,108.46c.48,1.41.78,2.65,1.13,3.83h.15c.25-1.2.63-2.57,1-3.83l2.74-8.56h4.18v15.27h-2.48v-7.89c0-1.51,0-3.3.1-4.89h-.14c-.26.86-2.65,7.52-4.19,12.78h-3.05c-1.6-5.24-3.95-11.94-4.2-12.78h-.15c.06,1.34.15,3.51.15,4.89v7.89h-2.46V99.9h4.18Z" style="fill:#1d1d1b"/><path d="M1391.55,107.54c0,4.75-2.84,7.94-7.11,7.94s-7.06-3.19-7.06-7.94,2.79-8,7.08-8S1391.55,102.81,1391.55,107.54Zm-11.44,0c0,3.47,1.7,5.82,4.33,5.82s4.38-2.48,4.38-5.82-1.66-5.83-4.36-5.83S1380.11,104.09,1380.11,107.54Z" style="fill:#1d1d1b"/><path d="M1402.84,100.75c2.36,1.17,3.6,3.42,3.6,6.72a8.19,8.19,0,0,1-1.66,5.22,7.35,7.35,0,0,1-6,2.48h-4.77V99.9h4.45A9.64,9.64,0,0,1,1402.84,100.75Zm-.67,11a5.39,5.39,0,0,0,1.5-4.22c0-2.25-.57-3.77-1.92-4.63a6.11,6.11,0,0,0-3.36-.8h-1.66V113h1.64A5.45,5.45,0,0,0,1402.17,111.76Z" style="fill:#1d1d1b"/><path d="M1412.86,113.66c1.2,0,2-.51,2-1.35,0-1.09-1.19-1.37-2.6-1.7-1.85-.44-4-.93-4-3.3,0-2,1.75-3.29,4.52-3.29s4.5,1.25,4.5,3.62h-2.5c-.06-1.28-.72-1.81-2.08-1.81-1.12,0-1.83.49-1.83,1.27,0,1.15,1.6,1.45,3.21,1.85s3.43,1.07,3.43,3.15-1.76,3.36-4.6,3.36c-3.09,0-4.82-1.3-4.88-3.76h2.59C1410.55,113,1411.32,113.66,1412.86,113.66Z" style="fill:#1d1d1b"/><path d="M1356.09,226.52c-4.14,0-6.88-2.86-6.88-7.82,0-4.65,2.8-8.08,6.92-8.08,3.51,0,6,2.17,6.2,5.45h-2.73a3.42,3.42,0,0,0-3.49-3.32c-2.52,0-4.16,2.37-4.16,5.84s1.64,5.8,4.14,5.8c2,0,3.28-1.32,3.55-3.42h2.8A6,6,0,0,1,1356.09,226.52Z" style="fill:#1d1d1b"/><path d="M1368,226.41a3.52,3.52,0,0,1-3.07-1.47,6,6,0,0,1-.63-3.43v-6.16h2.5v6.08c0,1.6.23,3.07,2,3.07a2.07,2.07,0,0,0,1.78-.84,4.65,4.65,0,0,0,.68-2.8v-5.51h2.52V226.2h-2.36v-1.41A4.12,4.12,0,0,1,1368,226.41Z" style="fill:#1d1d1b"/><path d="M1380.8,224.69c1.2,0,2-.51,2-1.35,0-1.09-1.2-1.36-2.61-1.7-1.85-.44-4-.93-4-3.3,0-2,1.74-3.28,4.52-3.28s4.5,1.24,4.5,3.62h-2.5c-.07-1.29-.72-1.81-2.09-1.81-1.11,0-1.83.48-1.83,1.26,0,1.15,1.6,1.45,3.22,1.85s3.43,1.07,3.43,3.15-1.77,3.37-4.61,3.37c-3.09,0-4.81-1.31-4.87-3.77h2.58C1378.49,224,1379.27,224.69,1380.8,224.69Z" style="fill:#1d1d1b"/><path d="M1390.48,212.66v2.69h2.14v1.94h-2.14v5.11c0,1.34.29,1.95,1.3,1.95a3.85,3.85,0,0,0,.87-.08v1.93a6,6,0,0,1-1.62.19c-2.17,0-3.07-1-3.07-3.49v-5.61h-1.75v-1.94H1388v-2.69Z" style="fill:#1d1d1b"/><path d="M1404.63,220.78c0,3.43-2.1,5.72-5.44,5.72s-5.39-2.29-5.39-5.72,2.11-5.72,5.41-5.72S1404.63,217.35,1404.63,220.78Zm-8.2,0c0,2.29,1,3.78,2.76,3.78s2.81-1.45,2.81-3.78-1-3.79-2.79-3.79S1396.43,218.44,1396.43,220.78Z" style="fill:#1d1d1b"/><path d="M1409.09,216.8a3.91,3.91,0,0,1,3.35-1.66,3,3,0,0,1,3.07,1.83,4,4,0,0,1,3.7-1.83,3.23,3.23,0,0,1,2.58,1,4.9,4.9,0,0,1,.93,3.3v6.79h-2.52v-6.37c0-1.43-.34-2.75-1.83-2.75-1.81,0-2.32,1.72-2.32,3.78v5.34h-2.52v-6.37c0-1.43-.38-2.75-1.87-2.75-1.79,0-2.29,1.72-2.29,3.78v5.34h-2.53V215.35h2.28Z" style="fill:#1d1d1b"/><path d="M1438.2,211.53a3.75,3.75,0,0,1,2.25,3.66,3.8,3.8,0,0,1-3.3,3.8v.11c1.72.16,2.29,1.47,2.8,3l1.43,4.12h-2.84l-1.33-3.89c-.67-1.89-1.43-2.21-3.45-2.21h-1.19v6.1h-2.67V210.94h4.62A9,9,0,0,1,1438.2,211.53Zm-.48,3.95c0-1.79-1.24-2.38-3.16-2.38h-2V218h1.57C1435.89,218,1437.72,217.6,1437.72,215.48Z" style="fill:#1d1d1b"/><path d="M1456.56,218.57c0,4.75-2.84,8-7.11,8s-7.06-3.2-7.06-8,2.8-7.95,7.09-7.95S1456.56,213.84,1456.56,218.57Zm-11.44,0c0,3.47,1.71,5.82,4.33,5.82s4.38-2.48,4.38-5.82-1.66-5.82-4.35-5.82S1445.12,215.12,1445.12,218.57Z" style="fill:#1d1d1b"/><path d="M1466.26,219.5c.48,1.4.78,2.64,1.14,3.82h.14c.25-1.2.63-2.56,1-3.82l2.74-8.56h4.18V226.2H1473v-7.88c0-1.52,0-3.3.1-4.9H1473c-.26.86-2.65,7.53-4.19,12.78h-3c-1.59-5.23-4-11.94-4.2-12.78h-.15c.06,1.34.15,3.51.15,4.9v7.88h-2.46V210.94h4.18Z" style="fill:#1d1d1b"/><path d="M1482.69,224.69c1.2,0,2-.51,2-1.35,0-1.09-1.19-1.36-2.6-1.7-1.85-.44-4-.93-4-3.3,0-2,1.74-3.28,4.52-3.28s4.5,1.24,4.5,3.62h-2.5c-.07-1.29-.72-1.81-2.08-1.81-1.12,0-1.83.48-1.83,1.26,0,1.15,1.6,1.45,3.21,1.85s3.43,1.07,3.43,3.15-1.77,3.37-4.6,3.37c-3.09,0-4.82-1.31-4.88-3.77h2.59C1480.38,224,1481.15,224.69,1482.69,224.69Z" style="fill:#1d1d1b"/><path d="M1369.66,337.07h-2.82l-1.45-4.12h-6.08l-1.41,4.12h-2.75l5.61-15.27H1364ZM1362.44,324h-.12c-.44,1.43-.87,2.92-1.39,4.35l-.88,2.4h4.62l-.84-2.4C1363.35,326.91,1362.84,325.42,1362.44,324Z" style="fill:#1d1d1b"/><path d="M1376.83,337.28a3.64,3.64,0,0,1-3.18-1.45v5.46h-2.52V326.22h2.36v1.45a4,4,0,0,1,3.38-1.66c2.78,0,4.52,2.21,4.52,5.63C1381.39,335.22,1379.52,337.28,1376.83,337.28Zm-.61-9.32c-1.6,0-2.63,1.41-2.63,3.68s1,3.7,2.59,3.7,2.63-1.4,2.63-3.7S1377.82,328,1376.22,328Z" style="fill:#1d1d1b"/><path d="M1389.32,337.28a3.63,3.63,0,0,1-3.17-1.45v5.46h-2.53V326.22H1386v1.45a4,4,0,0,1,3.39-1.66c2.77,0,4.52,2.21,4.52,5.63C1393.89,335.22,1392,337.28,1389.32,337.28Zm-.61-9.32c-1.59,0-2.63,1.41-2.63,3.68s1,3.7,2.59,3.7,2.63-1.4,2.63-3.7S1390.31,328,1388.71,328Z" style="fill:#1d1d1b"/><path d="M1400.22,335.55c1.2,0,2-.5,2-1.34,0-1.1-1.19-1.37-2.6-1.7-1.85-.45-4-.93-4-3.31,0-2,1.74-3.28,4.52-3.28s4.5,1.24,4.5,3.62h-2.5c-.07-1.28-.72-1.81-2.08-1.81-1.12,0-1.83.49-1.83,1.26,0,1.16,1.6,1.45,3.21,1.85s3.43,1.08,3.43,3.16-1.76,3.36-4.6,3.36c-3.09,0-4.82-1.3-4.88-3.76h2.59Q1397.91,335.55,1400.22,335.55Z" style="fill:#1d1d1b"/><path d="M1413.7,331.64c.23,1,.4,2.19.59,3.26h.15c.19-1.07.42-2.21.65-3.28l1.24-5.4h3.53l1.26,5.42c.23,1,.4,2.19.63,3.26h.15c.17-1.07.34-2.23.57-3.26l1.15-5.42H1426l-2.67,10.85h-3.41l-1.19-5.45c-.23-1.09-.45-2.27-.68-3.36h-.14c-.24,1.09-.47,2.27-.72,3.38l-1.22,5.43h-3.32L1410,326.22h2.59Z" style="fill:#1d1d1b"/><path d="M1430.27,327.56a3.73,3.73,0,0,1,3.26-1.55,3.51,3.51,0,0,1,3.09,1.47c.53.76.61,1.77.61,3.36v6.23h-2.52V331c0-1.62-.23-3.07-2-3.07s-2.47,1.05-2.47,3.64v5.49h-2.52V321.8h2.52Z" style="fill:#1d1d1b"/><path d="M1450.15,331.64c0,3.43-2.1,5.72-5.45,5.72s-5.38-2.29-5.38-5.72,2.1-5.72,5.4-5.72S1450.15,328.22,1450.15,331.64Zm-8.2,0c0,2.3,1,3.79,2.75,3.79s2.82-1.45,2.82-3.79-1-3.78-2.8-3.78S1442,329.31,1442,331.64Z" style="fill:#1d1d1b"/><path d="M1462.35,326a3.21,3.21,0,0,1,3.05,1.49,6.64,6.64,0,0,1,.65,3.34v6.23h-2.52V331c0-1.62-.24-3.07-2-3.07s-2.46,1.05-2.46,3.64v5.49h-2.52V326.22h2.33v1.41A4.2,4.2,0,0,1,1462.35,326Z" style="fill:#1d1d1b"/><path d="M1473.45,325.92a4.48,4.48,0,0,1,4.15,2.23,8.49,8.49,0,0,1,.86,4.23h-7.72c.06,1.85,1,3.13,2.73,3.13a2.22,2.22,0,0,0,2.3-1.68h2.67c-.59,2.38-2.36,3.53-5,3.53-3.51,0-5.32-2.21-5.32-5.76C1468.13,328.34,1470.17,325.92,1473.45,325.92Zm-.12,1.83c-1.41,0-2.48.93-2.63,2.78h5.19C1475.75,328.68,1474.69,327.75,1473.33,327.75Z" style="fill:#1d1d1b"/><path d="M1485.32,325.92a4.47,4.47,0,0,1,4.14,2.23,8.49,8.49,0,0,1,.86,4.23h-7.72c.07,1.85,1,3.13,2.74,3.13a2.21,2.21,0,0,0,2.29-1.68h2.67c-.59,2.38-2.36,3.53-5,3.53-3.52,0-5.32-2.21-5.32-5.76C1480,328.34,1482,325.92,1485.32,325.92Zm-.13,1.83c-1.41,0-2.48.93-2.63,2.78h5.19C1487.61,328.68,1486.56,327.75,1485.19,327.75Z" style="fill:#1d1d1b"/><path d="M1496.46,326a3.66,3.66,0,0,1,3.18,1.45V321.8h2.52v15.27h-2.37v-1.45a4,4,0,0,1-3.33,1.66c-2.77,0-4.58-2.06-4.58-5.66C1491.88,328.19,1493.69,326,1496.46,326Zm.59,9.31c1.6,0,2.63-1.36,2.63-3.7s-1-3.68-2.59-3.68-2.6,1.41-2.6,3.68S1495.46,335.32,1497.05,335.32Z" style="fill:#1d1d1b"/><path d="M1511.65,327.84a3.18,3.18,0,0,1,2.88-1.73,5.42,5.42,0,0,1,1.2.11v2.18a5.45,5.45,0,0,0-1.09-.1c-2.09,0-2.84,1.39-2.84,4v4.75h-2.53V326.22h2.38Z" style="fill:#1d1d1b"/><path d="M1527.4,331.64c0,3.43-2.1,5.72-5.44,5.72s-5.39-2.29-5.39-5.72,2.1-5.72,5.41-5.72S1527.4,328.22,1527.4,331.64Zm-8.2,0c0,2.3,1,3.79,2.76,3.79s2.81-1.45,2.81-3.79-1-3.78-2.79-3.78S1519.2,329.31,1519.2,331.64Z" style="fill:#1d1d1b"/><path d="M1539.75,331.64c0,3.43-2.1,5.72-5.45,5.72s-5.38-2.29-5.38-5.72,2.1-5.72,5.4-5.72S1539.75,328.22,1539.75,331.64Zm-8.2,0c0,2.3,1,3.79,2.75,3.79s2.82-1.45,2.82-3.79-1-3.78-2.8-3.78S1531.55,329.31,1531.55,331.64Z" style="fill:#1d1d1b"/><path d="M1544.86,323.53v2.69H1547v1.93h-2.14v5.11c0,1.35.29,2,1.3,2a3.43,3.43,0,0,0,.87-.09v1.94a6,6,0,0,1-1.62.19c-2.17,0-3.07-1-3.07-3.49v-5.62h-1.75v-1.93h1.75v-2.69Z" style="fill:#1d1d1b"/><path d="M1559.81,335.66a4.22,4.22,0,0,1-3.63,1.62c-2.42,0-3.77-1.2-3.77-3.22,0-3.47,4.35-3.49,7.11-3.83v-.46c0-1.34-.63-2.06-2-2.06s-2.12.65-2.14,1.83h-2.59c.09-2.27,1.89-3.62,4.73-3.62,3.45,0,4.44,1.79,4.44,4.71v3a20.43,20.43,0,0,0,.23,3.41h-2.29A12.87,12.87,0,0,1,1559.81,335.66ZM1555,334c0,.92.63,1.51,1.81,1.51,1.57,0,2.69-.75,2.69-3.11V332C1557.63,332.23,1555,332.17,1555,334Z" style="fill:#1d1d1b"/><path d="M1569.24,337.38c-3.24,0-5.2-2.29-5.2-5.74s2-5.74,5.2-5.74c2.88,0,4.62,1.62,4.77,4.08h-2.61a2.1,2.1,0,0,0-2.19-2.12c-1.61,0-2.56,1.47-2.56,3.74s1,3.83,2.56,3.83a2.18,2.18,0,0,0,2.25-2.19H1574C1573.84,335.85,1572.08,337.38,1569.24,337.38Z" style="fill:#1d1d1b"/><path d="M1580.59,337.38c-3.23,0-5.19-2.29-5.19-5.74s2-5.74,5.19-5.74c2.89,0,4.63,1.62,4.78,4.08h-2.61a2.1,2.1,0,0,0-2.19-2.12c-1.62,0-2.56,1.47-2.56,3.74s1,3.83,2.56,3.83a2.2,2.2,0,0,0,2.25-2.19h2.57C1585.2,335.85,1583.43,337.38,1580.59,337.38Z" style="fill:#1d1d1b"/><path d="M1592.06,325.92a4.46,4.46,0,0,1,4.14,2.23,8.49,8.49,0,0,1,.86,4.23h-7.72c.07,1.85,1,3.13,2.74,3.13a2.21,2.21,0,0,0,2.29-1.68H1597c-.59,2.38-2.35,3.53-5,3.53-3.51,0-5.32-2.21-5.32-5.76C1586.74,328.34,1588.78,325.92,1592.06,325.92Zm-.13,1.83c-1.41,0-2.48.93-2.63,2.78h5.2C1594.35,328.68,1593.3,327.75,1591.93,327.75Z" style="fill:#1d1d1b"/><path d="M1603.39,335.55c1.2,0,2-.5,2-1.34,0-1.1-1.2-1.37-2.61-1.7-1.85-.45-4-.93-4-3.31,0-2,1.74-3.28,4.52-3.28s4.5,1.24,4.5,3.62h-2.51c-.06-1.28-.71-1.81-2.08-1.81-1.11,0-1.83.49-1.83,1.26,0,1.16,1.6,1.45,3.22,1.85s3.43,1.08,3.43,3.16-1.77,3.36-4.61,3.36c-3.09,0-4.81-1.3-4.88-3.76h2.59C1601.08,334.9,1601.86,335.55,1603.39,335.55Z" style="fill:#1d1d1b"/><path d="M1614.2,335.55c1.2,0,2-.5,2-1.34,0-1.1-1.2-1.37-2.61-1.7-1.85-.45-4-.93-4-3.31,0-2,1.74-3.28,4.52-3.28s4.5,1.24,4.5,3.62h-2.51c-.06-1.28-.71-1.81-2.08-1.81-1.11,0-1.83.49-1.83,1.26,0,1.16,1.6,1.45,3.22,1.85s3.43,1.08,3.43,3.16-1.77,3.36-4.61,3.36c-3.09,0-4.81-1.3-4.88-3.76h2.59C1611.89,334.9,1612.67,335.55,1614.2,335.55Z" style="fill:#1d1d1b"/><path d="M1360.89,434.83H1373V437h-4.69V450.1h-2.69V437h-4.69Z" style="fill:#1d1d1b"/><path d="M1377.14,440.6a3.71,3.71,0,0,1,3.26-1.56,3.54,3.54,0,0,1,3.1,1.47c.52.76.6,1.77.6,3.37v6.22h-2.52V444c0-1.62-.23-3.07-2-3.07s-2.47,1-2.47,3.64v5.49h-2.52V434.83h2.52Z" style="fill:#1d1d1b"/><path d="M1391.51,439a4.45,4.45,0,0,1,4.14,2.23,8.49,8.49,0,0,1,.86,4.23h-7.71c.06,1.85,1,3.13,2.73,3.13a2.19,2.19,0,0,0,2.29-1.68h2.67c-.58,2.38-2.35,3.53-5,3.53-3.51,0-5.32-2.2-5.32-5.76C1386.19,441.37,1388.23,439,1391.51,439Zm-.13,1.83c-1.4,0-2.48.93-2.62,2.78H1394C1393.8,441.71,1392.75,440.78,1391.38,440.78Z" style="fill:#1d1d1b"/><path d="M1401,440.7a3.88,3.88,0,0,1,3.34-1.66,3,3,0,0,1,3.07,1.83,4,4,0,0,1,3.7-1.83,3.22,3.22,0,0,1,2.59,1,4.94,4.94,0,0,1,.92,3.3v6.79h-2.52v-6.37c0-1.43-.34-2.76-1.83-2.76-1.81,0-2.31,1.73-2.31,3.79v5.34h-2.53v-6.37c0-1.43-.38-2.76-1.87-2.76-1.79,0-2.29,1.73-2.29,3.79v5.34h-2.52V439.25H1401Z" style="fill:#1d1d1b"/><path d="M1422,439a4.46,4.46,0,0,1,4.14,2.23,8.49,8.49,0,0,1,.86,4.23h-7.71c.06,1.85,1,3.13,2.73,3.13a2.2,2.2,0,0,0,2.29-1.68H1427c-.59,2.38-2.35,3.53-5,3.53-3.51,0-5.32-2.2-5.32-5.76C1416.71,441.37,1418.75,439,1422,439Zm-.13,1.83c-1.41,0-2.48.93-2.63,2.78h5.2C1424.32,441.71,1423.27,440.78,1421.9,440.78Z" style="fill:#1d1d1b"/><path d="M1433.37,448.59c1.19,0,2-.51,2-1.35,0-1.09-1.2-1.37-2.61-1.7-1.85-.44-4-.93-4-3.31,0-2,1.74-3.28,4.52-3.28s4.5,1.25,4.5,3.62h-2.5c-.07-1.28-.72-1.81-2.09-1.81-1.11,0-1.83.49-1.83,1.26,0,1.16,1.6,1.46,3.22,1.86S1438,445,1438,447s-1.77,3.36-4.61,3.36c-3.09,0-4.81-1.3-4.87-3.76h2.58C1431.05,447.93,1431.83,448.59,1433.37,448.59Z" style="fill:#1d1d1b"/><path d="M824.63,323.8a3.76,3.76,0,0,1,2.25,3.66,3.81,3.81,0,0,1-3.3,3.81v.1c1.72.17,2.29,1.47,2.79,3l1.43,4.12H825l-1.32-3.89c-.67-1.9-1.43-2.21-3.45-2.21H819v6.1h-2.67V323.21H821A9.17,9.17,0,0,1,824.63,323.8Zm-.49,3.95c0-1.78-1.24-2.37-3.15-2.37h-2v4.85h1.58C822.32,330.23,824.14,329.88,824.14,327.75Z" style="fill:#1d1d1b"/><path d="M839.54,333.05c0,3.43-2.1,5.72-5.45,5.72s-5.38-2.29-5.38-5.72,2.1-5.72,5.41-5.72S839.54,329.62,839.54,333.05Zm-8.2,0c0,2.29,1,3.79,2.75,3.79s2.82-1.45,2.82-3.79-1-3.78-2.79-3.78S831.34,330.72,831.34,333.05Z" style="fill:#1d1d1b"/><path d="M851.89,333.05c0,3.43-2.11,5.72-5.45,5.72s-5.38-2.29-5.38-5.72,2.1-5.72,5.4-5.72S851.89,329.62,851.89,333.05Zm-8.2,0c0,2.29,1,3.79,2.75,3.79s2.82-1.45,2.82-3.79-1-3.78-2.8-3.78S843.69,330.72,843.69,333.05Z" style="fill:#1d1d1b"/><path d="M857,324.94v2.69h2.14v1.93H857v5.11c0,1.35.29,2,1.3,2a3.47,3.47,0,0,0,.87-.09v1.94a6.46,6.46,0,0,1-1.62.19c-2.17,0-3.07-1-3.07-3.49v-5.62h-1.75v-1.93h1.75v-2.69Z" style="fill:#1d1d1b"/><path d="M871,338.69a3.63,3.63,0,0,1-3.18-1.45v5.46h-2.52V327.63h2.35v1.45a4,4,0,0,1,3.39-1.66c2.77,0,4.52,2.2,4.52,5.63S873.68,338.69,871,338.69Zm-.61-9.32c-1.6,0-2.63,1.41-2.63,3.68s1,3.7,2.58,3.7,2.63-1.41,2.63-3.7S872,329.37,870.38,329.37Z" style="fill:#1d1d1b"/><path d="M882.41,327.33a4.47,4.47,0,0,1,4.14,2.23,8.49,8.49,0,0,1,.86,4.23h-7.72c.07,1.85,1,3.13,2.74,3.13a2.21,2.21,0,0,0,2.29-1.68h2.67c-.59,2.37-2.35,3.53-5,3.53-3.51,0-5.32-2.21-5.32-5.76C877.09,329.75,879.13,327.33,882.41,327.33Zm-.13,1.83c-1.41,0-2.48.93-2.63,2.78h5.2C884.7,330.09,883.65,329.16,882.28,329.16Z" style="fill:#1d1d1b"/><path d="M892,329.25a3.18,3.18,0,0,1,2.88-1.73,5.42,5.42,0,0,1,1.2.11v2.18a5.48,5.48,0,0,0-1.1-.1c-2.08,0-2.83,1.39-2.83,4v4.75h-2.53V327.63H892Z" style="fill:#1d1d1b"/><path d="M900.07,329.08a3.91,3.91,0,0,1,3.35-1.66,3,3,0,0,1,3.07,1.83,4,4,0,0,1,3.7-1.83,3.23,3.23,0,0,1,2.58,1,4.93,4.93,0,0,1,.93,3.31v6.79h-2.52v-6.37c0-1.43-.34-2.76-1.83-2.76-1.81,0-2.32,1.73-2.32,3.79v5.34h-2.52v-6.37c0-1.43-.38-2.76-1.87-2.76-1.79,0-2.29,1.73-2.29,3.79v5.34h-2.53V327.63h2.28Z" style="fill:#1d1d1b"/><path d="M919,325.76h-2.52v-2.55H919Zm0,12.72h-2.52V327.63H919Z" style="fill:#1d1d1b"/><path d="M926,337c1.2,0,2-.5,2-1.34,0-1.1-1.19-1.37-2.6-1.71-1.85-.44-4-.92-4-3.3,0-2,1.74-3.28,4.52-3.28s4.5,1.24,4.5,3.62h-2.5c-.07-1.28-.72-1.81-2.08-1.81-1.12,0-1.83.48-1.83,1.26,0,1.16,1.59,1.45,3.21,1.85s3.43,1.08,3.43,3.16-1.76,3.36-4.6,3.36c-3.09,0-4.82-1.3-4.88-3.76h2.58C923.69,336.31,924.47,337,926,337Z" style="fill:#1d1d1b"/><path d="M936.82,337c1.2,0,2-.5,2-1.34,0-1.1-1.19-1.37-2.6-1.71-1.85-.44-4-.92-4-3.3,0-2,1.75-3.28,4.52-3.28s4.5,1.24,4.5,3.62h-2.5c-.06-1.28-.72-1.81-2.08-1.81-1.12,0-1.83.48-1.83,1.26,0,1.16,1.6,1.45,3.21,1.85s3.43,1.08,3.43,3.16-1.76,3.36-4.6,3.36c-3.09,0-4.82-1.3-4.88-3.76h2.59Q934.51,337,936.82,337Z" style="fill:#1d1d1b"/><path d="M946.05,325.76h-2.52v-2.55h2.52Zm0,12.72h-2.52V327.63h2.52Z" style="fill:#1d1d1b"/><path d="M959.09,333.05c0,3.43-2.1,5.72-5.45,5.72s-5.38-2.29-5.38-5.72,2.1-5.72,5.41-5.72S959.09,329.62,959.09,333.05Zm-8.2,0c0,2.29,1,3.79,2.75,3.79s2.82-1.45,2.82-3.79-1-3.78-2.79-3.78S950.89,330.72,950.89,333.05Z" style="fill:#1d1d1b"/><path d="M967.08,327.42a3.19,3.19,0,0,1,3,1.49,6.54,6.54,0,0,1,.65,3.34v6.23h-2.52v-6.06c0-1.62-.23-3.07-2-3.07-1.59,0-2.46,1-2.46,3.64v5.49H961.3V327.63h2.33V329A4.21,4.21,0,0,1,967.08,327.42Z" style="fill:#1d1d1b"/><line x1="993.9" y1="329.66" x2="1333.31" y2="329.66" style="fill:none;stroke:#1d1d1b;stroke-width:1.75300002098084px"/><line x1="1002.11" y1="218.09" x2="1333.31" y2="218.09" style="fill:none;stroke:#1d1d1b;stroke-width:1.75300002098084px"/><line x1="1002.11" y1="218.09" x2="1334.51" y2="104.49" style="fill:none;stroke:#1d1d1b;stroke-width:1.75300002098084px"/><line x1="993.9" y1="329.66" x2="1333.96" y2="442.05" style="fill:none;stroke:#1d1d1b;stroke-width:1.75300002098084px"/><line x1="439.94" y1="218.09" x2="792.43" y2="218.09" style="fill:none;stroke:#1d1d1b;stroke-width:1.75300002098084px"/><g style="clip-path:url(#a)"><path d="M1455,105.05c29.58-3.73,115.22-10.16,129.61,38.09" style="fill:none;stroke:#1d1d1b;stroke-width:1.75300002098084px;stroke-dasharray:6.761000156402588,6.761000156402588"/><path d="M1586.8,160.49c-.49,43.72-48.38,55.47-66.84,58.38" style="fill:none;stroke:#1d1d1b;stroke-width:1.75300002098084px;stroke-dasharray:7.196000099182129,7.196000099182129"/><path d="M1516.4,219.37c-2.27.29-3.58.38-3.58.38m72.59-73.34c.24,1.08.45,2.19.62,3.32s.33,2.4.44,3.57m-141.54-46.79s1.19-.21,3.34-.54" style="fill:none;stroke:#1d1d1b;stroke-width:1.75300002098084px"/><polyline points="1517.93 223.88 1512.82 219.75 1517.31 214.95" style="fill:none;stroke:#1d1d1b;stroke-width:1.75300002098084px"/><path d="M1476.34,442.69c48.16-.31,248.59-7.54,257.49-106.15" style="fill:none;stroke:#1d1d1b;stroke-width:1.75300002098084px;stroke-dasharray:6.888999938964844,6.888999938964844"/><path d="M1733.5,318.9C1722,223,1556.73,219.28,1520,219.63" style="fill:none;stroke:#1d1d1b;stroke-width:1.75300002098084px;stroke-dasharray:7.195000171661377,7.195000171661377"/><path d="M1516.42,219.69c-2.34,0-3.6.1-3.6.1m221.24,113.32c0-1.14.07-2.29.07-3.45s0-2.41-.06-3.59M1466,442.64s1.2,0,3.44.05" style="fill:none;stroke:#1d1d1b;stroke-width:1.75300002098084px"/><polyline points="1517.82 224.06 1512.82 219.79 1517.44 215.11" style="fill:none;stroke:#1d1d1b;stroke-width:1.75300002098084px"/></g></svg>