<svg xmlns="http://www.w3.org/2000/svg" xmlns:xlink="http://www.w3.org/1999/xlink" viewBox="0 0 1920 320"><defs><clipPath id="a"><rect x="87.13" y="33.66" width="1745.75" height="252.69" style="fill:none"/></clipPath></defs><title>dia2</title><rect width="1920" height="320" style="fill:#caffe1"/><g style="clip-path:url(#a)"><path d="M97.37,35.8s-8.74,0-8.74,8.75v12s0,8.75,8.74,8.75h166s8.74,0,8.74-8.75v-12s0-8.75-8.74-8.75Z" style="fill:#c9ffe0"/><path d="M97.37,35.8s-8.74,0-8.74,8.75v12s0,8.75,8.74,8.75h166s8.74,0,8.74-8.75v-12s0-8.75-8.74-8.75Z" style="fill:none;stroke:#1d1d1b;stroke-width:3px"/><path d="M330.88,35.8s-8.75,0-8.75,8.75v12s0,8.75,8.75,8.75H486.6s8.74,0,8.74-8.75v-12s0-8.75-8.74-8.75Z" style="fill:#c9ffe0"/><path d="M330.88,35.8s-8.75,0-8.75,8.75v12s0,8.75,8.75,8.75H486.6s8.74,0,8.74-8.75v-12s0-8.75-8.74-8.75Z" style="fill:none;stroke:#1d1d1b;stroke-width:3px"/><path d="M555.41,35.8s-8.75,0-8.75,8.75v12s0,8.75,8.75,8.75h186.5s8.75,0,8.75-8.75v-12s0-8.75-8.75-8.75Z" style="fill:#c9ffe0"/><path d="M555.41,35.8s-8.75,0-8.75,8.75v12s0,8.75,8.75,8.75h186.5s8.75,0,8.75-8.75v-12s0-8.75-8.75-8.75Z" style="fill:none;stroke:#1d1d1b;stroke-width:3px"/><path d="M555.41,96.57s-8.75,0-8.75,8.75v12s0,8.75,8.75,8.75H700.58s8.75,0,8.75-8.75v-12s0-8.75-8.75-8.75Z" style="fill:#c9ffe0"/><path d="M555.41,96.57s-8.75,0-8.75,8.75v12s0,8.75,8.75,8.75H700.58s8.75,0,8.75-8.75v-12s0-8.75-8.75-8.75Z" style="fill:none;stroke:#1d1d1b;stroke-width:3px"/><path d="M811.29,96.57s-8.75,0-8.75,8.75v12s0,8.75,8.75,8.75H989.52s8.75,0,8.75-8.75v-12s0-8.75-8.75-8.75Z" style="fill:#c9ffe0"/><path d="M811.29,96.57s-8.75,0-8.75,8.75v12s0,8.75,8.75,8.75H989.52s8.75,0,8.75-8.75v-12s0-8.75-8.75-8.75Z" style="fill:none;stroke:#1d1d1b;stroke-width:3px"/><path d="M1056.06,96.57s-8.75,0-8.75,8.75v12s0,8.75,8.75,8.75h212.49s8.75,0,8.75-8.75v-12s0-8.75-8.75-8.75Z" style="fill:#c9ffe0"/><path d="M1056.06,96.57s-8.75,0-8.75,8.75v12s0,8.75,8.75,8.75h212.49s8.75,0,8.75-8.75v-12s0-8.75-8.75-8.75Z" style="fill:none;stroke:#1d1d1b;stroke-width:3px"/><path d="M1335.09,96.57s-8.75,0-8.75,8.75v12s0,8.75,8.75,8.75h186.84s8.75,0,8.75-8.75v-12s0-8.75-8.75-8.75Z" style="fill:#c9ffe0"/><path d="M1335.09,96.57s-8.75,0-8.75,8.75v12s0,8.75,8.75,8.75h186.84s8.75,0,8.75-8.75v-12s0-8.75-8.75-8.75Z" style="fill:none;stroke:#1d1d1b;stroke-width:3px"/><path d="M1591.31,35.45s-8.75,0-8.75,8.75v12s0,8.75,8.75,8.75h212.33s8.75,0,8.75-8.75v-12s0-8.75-8.75-8.75Z" style="fill:#c9ffe0"/><path d="M1591.31,35.45s-8.75,0-8.75,8.75v12s0,8.75,8.75,8.75h212.33s8.75,0,8.75-8.75v-12s0-8.75-8.75-8.75Z" style="fill:none;stroke:#1d1d1b;stroke-width:3px"/><path d="M1591.31,96.57s-8.75,0-8.75,8.75v12s0,8.75,8.75,8.75H1814s8.75,0,8.75-8.75v-12s0-8.75-8.75-8.75Z" style="fill:#c9ffe0"/><path d="M1591.31,96.57s-8.75,0-8.75,8.75v12s0,8.75,8.75,8.75H1814s8.75,0,8.75-8.75v-12s0-8.75-8.75-8.75Z" style="fill:none;stroke:#1d1d1b;stroke-width:3px"/><path d="M1591.31,158s-8.75,0-8.75,8.75v12s0,8.75,8.75,8.75h205.1s8.75,0,8.75-8.75v-12s0-8.75-8.75-8.75Z" style="fill:#c9ffe0"/><path d="M1591.31,158s-8.75,0-8.75,8.75v12s0,8.75,8.75,8.75h205.1s8.75,0,8.75-8.75v-12s0-8.75-8.75-8.75Z" style="fill:none;stroke:#1d1d1b;stroke-width:3px"/></g><line x1="755.49" y1="109.56" x2="755.49" y2="255.36" style="fill:none;stroke:#1d1d1b;stroke-width:1.45799994468689px;stroke-dasharray:5.831999778747559,5.831999778747559"/><line x1="1556.18" y1="109.56" x2="1556.18" y2="255.36" style="fill:none;stroke:#1d1d1b;stroke-width:1.45799994468689px;stroke-dasharray:5.831999778747559,5.831999778747559"/><g style="clip-path:url(#a)"><path d="M97.37,34.39s-8.74,0-8.74,8.74v12s0,8.75,8.74,8.75h166s8.74,0,8.74-8.75v-12s0-8.74-8.74-8.74Z" style="fill:#c9ffe0"/><path d="M97.37,34.39s-8.74,0-8.74,8.74v12s0,8.75,8.74,8.75h166s8.74,0,8.74-8.75v-12s0-8.74-8.74-8.74Z" style="fill:none;stroke:#1d1d1b;stroke-width:1.45799994468689px"/><path d="M330.11,34.39s-8.75,0-8.75,8.74v12s0,8.75,8.75,8.75H487.94s8.75,0,8.75-8.75v-12s0-8.74-8.75-8.74Z" style="fill:#c9ffe0"/><path d="M330.11,34.39s-8.75,0-8.75,8.74v12s0,8.75,8.75,8.75H487.94s8.75,0,8.75-8.75v-12s0-8.74-8.75-8.74Z" style="fill:none;stroke:#1d1d1b;stroke-width:1.45799994468689px"/><path d="M554.64,34.39s-8.75,0-8.75,8.74v12s0,8.75,8.75,8.75h188s8.75,0,8.75-8.75v-12s0-8.74-8.75-8.74Z" style="fill:#c9ffe0"/><path d="M554.64,34.39s-8.75,0-8.75,8.74v12s0,8.75,8.75,8.75h188s8.75,0,8.75-8.75v-12s0-8.74-8.75-8.74Z" style="fill:none;stroke:#1d1d1b;stroke-width:1.45799994468689px"/><path d="M554.64,95.8s-8.75,0-8.75,8.75v12s0,8.75,8.75,8.75H701.35s8.75,0,8.75-8.75v-12s0-8.75-8.75-8.75Z" style="fill:#c9ffe0"/><path d="M554.64,95.8s-8.75,0-8.75,8.75v12s0,8.75,8.75,8.75H701.35s8.75,0,8.75-8.75v-12s0-8.75-8.75-8.75Z" style="fill:none;stroke:#1d1d1b;stroke-width:1.45799994468689px"/><path d="M810.52,95.8s-8.75,0-8.75,8.75v12s0,8.75,8.75,8.75H990.29s8.75,0,8.75-8.75v-12s0-8.75-8.75-8.75Z" style="fill:#c9ffe0"/><path d="M810.52,95.8s-8.75,0-8.75,8.75v12s0,8.75,8.75,8.75H990.29s8.75,0,8.75-8.75v-12s0-8.75-8.75-8.75Z" style="fill:none;stroke:#1d1d1b;stroke-width:1.45799994468689px"/><path d="M650.32,256.09s-8.75,0-8.75,8.75v12s0,8.75,8.75,8.75h211.8s8.75,0,8.75-8.75v-12s0-8.75-8.75-8.75Z" style="fill:#c9ffe0"/><line x1="659.14" y1="285.62" x2="856.24" y2="285.62" style="fill:none;stroke:#1d1d1b;stroke-width:1.45799994468689px;stroke-dasharray:5.883999824523926,5.883999824523926"/><line x1="853.3" y1="256.09" x2="656.2" y2="256.09" style="fill:none;stroke:#1d1d1b;stroke-width:1.45799994468689px;stroke-dasharray:5.883999824523926,5.883999824523926"/><path d="M653.26,256.09h-2.94a10.85,10.85,0,0,0-3.39.67m218.6-.13a10.08,10.08,0,0,0-3.41-.54h-2.94m11.69,11.76v-3a10.85,10.85,0,0,0-.67-3.39m.13,18.83a10.12,10.12,0,0,0,.54-3.41v-3m-11.69,11.76h2.94a10.85,10.85,0,0,0,3.39-.67m-218.6.12a10.06,10.06,0,0,0,3.41.55h2.94m-11.69-11.76v3a10.9,10.9,0,0,0,.67,3.39m-.13-18.83a10.08,10.08,0,0,0-.54,3.41v3" style="fill:none;stroke:#1d1d1b;stroke-width:1.45799994468689px"/><path d="M1404.51,256.09s-8.75,0-8.75,8.75v12s0,8.75,8.75,8.75h302.73s8.75,0,8.75-8.75v-12s0-8.75-8.75-8.75Z" style="fill:#c9ffe0"/><line x1="1413.24" y1="285.62" x2="1701.42" y2="285.62" style="fill:none;stroke:#1d1d1b;stroke-width:1.45799994468689px;stroke-dasharray:5.822000026702881,5.822000026702881"/><line x1="1698.51" y1="256.09" x2="1410.33" y2="256.09" style="fill:none;stroke:#1d1d1b;stroke-width:1.45799994468689px;stroke-dasharray:5.822000026702881,5.822000026702881"/><path d="M1407.42,256.09h-2.91a10.85,10.85,0,0,0-3.39.67m309.53-.13a10.12,10.12,0,0,0-3.41-.54h-2.91M1716,267.85v-3a10.85,10.85,0,0,0-.67-3.39m.12,18.83a9.86,9.86,0,0,0,.55-3.41v-3m-11.66,11.76h2.91a10.9,10.9,0,0,0,3.39-.67m-309.53.12a10.06,10.06,0,0,0,3.41.55h2.91m-11.66-11.76v3a10.9,10.9,0,0,0,.67,3.39m-.13-18.83a10.08,10.08,0,0,0-.54,3.41v3" style="fill:none;stroke:#1d1d1b;stroke-width:1.45799994468689px"/><path d="M1055.29,95.8s-8.75,0-8.75,8.75v12s0,8.75,8.75,8.75h214s8.75,0,8.75-8.75v-12s0-8.75-8.75-8.75Z" style="fill:#c9ffe0"/><path d="M1055.29,95.8s-8.75,0-8.75,8.75v12s0,8.75,8.75,8.75h214s8.75,0,8.75-8.75v-12s0-8.75-8.75-8.75Z" style="fill:none;stroke:#1d1d1b;stroke-width:1.45799994468689px"/><path d="M1334.32,95.8s-8.75,0-8.75,8.75v12s0,8.75,8.75,8.75h188.39s8.74,0,8.74-8.75v-12s0-8.75-8.74-8.75Z" style="fill:#c9ffe0"/><path d="M1334.32,95.8s-8.75,0-8.75,8.75v12s0,8.75,8.75,8.75h188.39s8.74,0,8.74-8.75v-12s0-8.75-8.74-8.75Z" style="fill:none;stroke:#1d1d1b;stroke-width:1.45799994468689px"/><path d="M1590.54,95.8s-8.75,0-8.75,8.75v12s0,8.75,8.75,8.75h224.2s8.75,0,8.75-8.75v-12s0-8.75-8.75-8.75Z" style="fill:#c9ffe0"/><path d="M1590.54,95.8s-8.75,0-8.75,8.75v12s0,8.75,8.75,8.75h224.2s8.75,0,8.75-8.75v-12s0-8.75-8.75-8.75Z" style="fill:none;stroke:#1d1d1b;stroke-width:1.45799994468689px"/><path d="M1590.54,34.39s-8.75,0-8.75,8.74v12s0,8.75,8.75,8.75h213.87s8.75,0,8.75-8.75v-12s0-8.74-8.75-8.74Z" style="fill:#c9ffe0"/><path d="M1590.54,34.39s-8.75,0-8.75,8.74v12s0,8.75,8.75,8.75h213.87s8.75,0,8.75-8.75v-12s0-8.74-8.75-8.74Z" style="fill:none;stroke:#1d1d1b;stroke-width:1.45799994468689px"/><path d="M1590.54,157.22s-8.75,0-8.75,8.75v12s0,8.75,8.75,8.75h206.64s8.75,0,8.75-8.75V166s0-8.75-8.75-8.75Z" style="fill:#c9ffe0"/><path d="M1590.54,157.22s-8.75,0-8.75,8.75v12s0,8.75,8.75,8.75h206.64s8.75,0,8.75-8.75V166s0-8.75-8.75-8.75Z" style="fill:none;stroke:#1d1d1b;stroke-width:1.45799994468689px"/></g><line x1="271.75" y1="49.15" x2="320.63" y2="49.15" style="fill:none;stroke:#1d1d1b;stroke-width:1.45799994468689px"/><line x1="497.41" y1="49.15" x2="546.29" y2="49.15" style="fill:none;stroke:#1d1d1b;stroke-width:1.45799994468689px"/><line x1="710.83" y1="110.29" x2="801.61" y2="110.29" style="fill:none;stroke:#1d1d1b;stroke-width:1.45799994468689px"/><line x1="752.16" y1="48.23" x2="801.04" y2="109.56" style="fill:none;stroke:#1d1d1b;stroke-width:1.45799994468689px"/><line x1="999.77" y1="110.29" x2="1045.81" y2="110.29" style="fill:none;stroke:#1d1d1b;stroke-width:1.45799994468689px"/><line x1="1278.8" y1="110.29" x2="1324.84" y2="110.29" style="fill:none;stroke:#1d1d1b;stroke-width:1.45799994468689px"/><line x1="1532.18" y1="110.29" x2="1581.06" y2="110.29" style="fill:none;stroke:#1d1d1b;stroke-width:1.45799994468689px"/><line x1="497.41" y1="49.15" x2="546.29" y2="110.57" style="fill:none;stroke:#1d1d1b;stroke-width:1.45799994468689px"/><line x1="1532.18" y1="110.29" x2="1581.63" y2="49.15" style="fill:none;stroke:#1d1d1b;stroke-width:1.45799994468689px"/><line x1="1531.97" y1="110.29" x2="1581.54" y2="170.89" style="fill:none;stroke:#1d1d1b;stroke-width:1.45799994468689px"/><path d="M108.4,45.12a4.28,4.28,0,0,1,2.25,4.2,5.1,5.1,0,0,1-1,3.25,4.57,4.57,0,0,1-3.71,1.55h-3V44.59h2.78A6,6,0,0,1,108.4,45.12ZM108,52a3.38,3.38,0,0,0,.93-2.64,3.11,3.11,0,0,0-1.19-2.89,3.77,3.77,0,0,0-2.1-.5h-1v6.77h1A3.45,3.45,0,0,0,108,52Z" style="fill:#1d1d1b"/><path d="M118.41,50.74a3.38,3.38,0,1,1-6.75,0,3.38,3.38,0,1,1,6.75,0Zm-5.11,0c0,1.43.61,2.36,1.72,2.36s1.75-.91,1.75-2.36-.64-2.37-1.74-2.37S113.3,49.28,113.3,50.74Z" style="fill:#1d1d1b"/><path d="M121.39,50.74c.15.64.25,1.36.37,2h.09c.12-.67.26-1.38.41-2.05l.77-3.37h2.21l.78,3.39c.15.64.25,1.36.4,2h.09c.11-.67.21-1.39.35-2l.73-3.39h1.48l-1.67,6.77h-2.12l-.75-3.4c-.15-.68-.28-1.42-.42-2.1H124c-.15.68-.29,1.42-.45,2.12l-.76,3.38h-2.07l-1.67-6.77h1.61Z" style="fill:#1d1d1b"/><path d="M133.77,47.22a2,2,0,0,1,1.9.93,4.17,4.17,0,0,1,.41,2.09v3.88H134.5V50.34c0-1-.14-1.91-1.23-1.91s-1.54.65-1.54,2.27v3.42h-1.57V47.35h1.45v.88A2.64,2.64,0,0,1,133.77,47.22Z" style="fill:#1d1d1b"/><path d="M139.38,54.12h-1.57V44.59h1.57Z" style="fill:#1d1d1b"/><path d="M147.52,50.74a3.38,3.38,0,1,1-6.76,0,3.39,3.39,0,1,1,6.76,0Zm-5.12,0c0,1.43.62,2.36,1.72,2.36s1.76-.91,1.76-2.36-.65-2.37-1.75-2.37S142.4,49.28,142.4,50.74Z" style="fill:#1d1d1b"/><path d="M153.06,53.24a2.66,2.66,0,0,1-2.27,1c-1.51,0-2.35-.75-2.35-2,0-2.16,2.71-2.17,4.43-2.38v-.29c0-.84-.39-1.29-1.23-1.29s-1.33.41-1.34,1.14h-1.61c.05-1.41,1.18-2.25,2.95-2.25,2.15,0,2.77,1.11,2.77,2.94V52a12.52,12.52,0,0,0,.14,2.12h-1.43A7,7,0,0,1,153.06,53.24Zm-3-1c0,.58.4.94,1.13.94,1,0,1.68-.47,1.68-1.94v-.29C151.69,51.1,150.06,51.06,150.06,52.22Z" style="fill:#1d1d1b"/><path d="M158.55,47.22a2.3,2.3,0,0,1,2,.9V44.59h1.57v9.53h-1.48v-.9a2.53,2.53,0,0,1-2.08,1c-1.73,0-2.86-1.28-2.86-3.53S156.82,47.22,158.55,47.22Zm.37,5.81c1,0,1.64-.85,1.64-2.31s-.62-2.29-1.61-2.29-1.63.87-1.63,2.29S157.92,53,158.92,53Z" style="fill:#1d1d1b"/><path d="M174.33,54.12h-1.76l-.91-2.57h-3.79L167,54.12h-1.72l3.51-9.53h2ZM169.82,46h-.07c-.28.89-.54,1.82-.87,2.71l-.55,1.5h2.89l-.53-1.5C170.39,47.78,170.07,46.85,169.82,46Z" style="fill:#1d1d1b"/><path d="M180.85,45.12c1.47.73,2.24,2.14,2.24,4.2a5,5,0,0,1-1,3.25,4.56,4.56,0,0,1-3.71,1.55h-3V44.59h2.78A6.07,6.07,0,0,1,180.85,45.12ZM180.43,52a3.41,3.41,0,0,0,.93-2.64,3.12,3.12,0,0,0-1.2-2.89,3.74,3.74,0,0,0-2.1-.5h-1v6.77h1A3.46,3.46,0,0,0,180.43,52Z" style="fill:#1d1d1b"/><path d="M190.2,45.07a2.19,2.19,0,0,1,1.08,2,2.14,2.14,0,0,1-1.77,2.17v0a2.11,2.11,0,0,1,2,2.23,2.32,2.32,0,0,1-1.34,2.22,6,6,0,0,1-2.63.39h-2.86V44.59h2.92A5.3,5.3,0,0,1,190.2,45.07Zm-.55,2.21c0-1.16-.93-1.33-2.1-1.33h-1.23v2.69h1.18C188.41,48.64,189.65,48.5,189.65,47.28Zm.13,4.1c0-1.14-.8-1.41-2.25-1.41h-1.21v2.81h1.27C188.73,52.78,189.78,52.59,189.78,51.38Z" style="fill:#1d1d1b"/><path d="M197.91,44.59h1.32l-3.37,9.53h-1.34Z" style="fill:#1d1d1b"/><path d="M208.88,46h-4.45v2.91h4.13v1.38h-4.13v3.86h-1.67V44.59h6.12Z" style="fill:#1d1d1b"/><path d="M214.07,53.24a2.64,2.64,0,0,1-2.27,1c-1.51,0-2.35-.75-2.35-2,0-2.16,2.72-2.17,4.44-2.38v-.29c0-.84-.4-1.29-1.24-1.29s-1.32.41-1.33,1.14H209.7c.05-1.41,1.18-2.25,3-2.25,2.16,0,2.77,1.11,2.77,2.94V52a12.53,12.53,0,0,0,.15,2.12h-1.43A6.83,6.83,0,0,1,214.07,53.24Zm-3-1c0,.58.39.94,1.13.94,1,0,1.68-.47,1.68-1.94v-.29C212.71,51.1,211.08,51.06,211.08,52.22Z" style="fill:#1d1d1b"/><path d="M219.69,53.18c.75,0,1.23-.32,1.23-.84,0-.69-.75-.86-1.63-1.07-1.15-.27-2.52-.57-2.52-2.06,0-1.23,1.09-2,2.83-2s2.8.77,2.8,2.25h-1.56c0-.8-.44-1.13-1.3-1.13-.69,0-1.14.31-1.14.79,0,.72,1,.91,2,1.16s2.14.67,2.14,2-1.1,2.09-2.88,2.09-3-.81-3-2.34h1.61C218.24,52.77,218.73,53.18,219.69,53.18Z" style="fill:#1d1d1b"/><path d="M225.72,45.67v1.68h1.34v1.21h-1.34v3.19c0,.84.19,1.22.82,1.22a2,2,0,0,0,.54-.06v1.21a4,4,0,0,1-1,.12c-1.35,0-1.91-.64-1.91-2.18v-3.5h-1.09V47.35h1.09V45.67Z" style="fill:#1d1d1b"/><path d="M231.83,54.25a2.51,2.51,0,0,1-2.09-1v.89h-1.47V44.59h1.57v3.55a2.39,2.39,0,0,1,2-.92c1.73,0,2.82,1.34,2.82,3.5S233.49,54.25,231.83,54.25Zm-.41-5.82c-1,0-1.62.93-1.62,2.29s.65,2.31,1.65,2.31,1.61-.89,1.61-2.31S232.46,48.43,231.42,48.43Z" style="fill:#1d1d1b"/><path d="M242.39,50.74a3.38,3.38,0,1,1-6.76,0,3.39,3.39,0,1,1,6.76,0Zm-5.12,0c0,1.43.62,2.36,1.72,2.36s1.76-.91,1.76-2.36-.64-2.37-1.75-2.37S237.27,49.28,237.27,50.74Z" style="fill:#1d1d1b"/><path d="M250.09,50.74a3.38,3.38,0,1,1-6.76,0,3.39,3.39,0,1,1,6.76,0Zm-5.12,0c0,1.43.62,2.36,1.72,2.36s1.76-.91,1.76-2.36-.64-2.37-1.74-2.37S245,49.28,245,50.74Z" style="fill:#1d1d1b"/><path d="M253.28,45.67v1.68h1.34v1.21h-1.34v3.19c0,.84.18,1.22.81,1.22a2,2,0,0,0,.54-.06v1.21a3.87,3.87,0,0,1-1,.12c-1.35,0-1.91-.64-1.91-2.18v-3.5h-1.09V47.35h1.09V45.67Z" style="fill:#1d1d1b"/><path d="M339,46.21h-4.51v2.61h4.25V50.2h-4.25V53h4.7v1.39H332.8V44.83H339Z" style="fill:#1d1d1b"/><path d="M344.12,47.46a2,2,0,0,1,1.91.93,4.13,4.13,0,0,1,.41,2.08v3.89h-1.58V50.58c0-1-.14-1.92-1.23-1.92s-1.54.66-1.54,2.27v3.43h-1.57V47.59H342v.88A2.61,2.61,0,0,1,344.12,47.46Z" style="fill:#1d1d1b"/><path d="M352.33,53.48a2.66,2.66,0,0,1-2.27,1c-1.51,0-2.35-.75-2.35-2,0-2.16,2.71-2.18,4.43-2.39V49.8c0-.84-.39-1.28-1.23-1.28s-1.33.4-1.34,1.14H348c.05-1.42,1.18-2.26,3-2.26,2.15,0,2.77,1.12,2.77,2.94v1.89a13.78,13.78,0,0,0,.14,2.13h-1.43A7.31,7.31,0,0,1,352.33,53.48Zm-3-1c0,.57.4.94,1.13.94,1,0,1.68-.47,1.68-1.94v-.29C351,51.34,349.33,51.3,349.33,52.46Z" style="fill:#1d1d1b"/><path d="M358.94,54.49a2.54,2.54,0,0,1-2.09-1v.9h-1.47V44.83H357v3.54a2.37,2.37,0,0,1,2-.91c1.73,0,2.82,1.33,2.82,3.5S360.61,54.49,358.94,54.49Zm-.41-5.83c-1,0-1.61.93-1.61,2.3s.64,2.31,1.64,2.31,1.61-.89,1.61-2.31S359.57,48.66,358.53,48.66Z" style="fill:#1d1d1b"/><path d="M364.75,54.36h-1.57V44.83h1.57Z" style="fill:#1d1d1b"/><path d="M369.45,47.4A2.79,2.79,0,0,1,372,48.79a5.37,5.37,0,0,1,.53,2.64h-4.81c0,1.16.6,2,1.7,2a1.38,1.38,0,0,0,1.43-1h1.67a2.85,2.85,0,0,1-3.11,2.2c-2.19,0-3.32-1.38-3.32-3.59A3.27,3.27,0,0,1,369.45,47.4Zm-.08,1.14c-.88,0-1.55.58-1.64,1.74H371C370.88,49.12,370.22,48.54,369.37,48.54Z" style="fill:#1d1d1b"/><path d="M379,47.46a2.28,2.28,0,0,1,2,.9V44.83h1.58v9.53H381.1v-.91a2.48,2.48,0,0,1-2.07,1c-1.73,0-2.86-1.29-2.86-3.53S377.3,47.46,379,47.46Zm.37,5.81c1,0,1.64-.85,1.64-2.31s-.62-2.3-1.62-2.3-1.62.88-1.62,2.3S378.4,53.27,379.4,53.27Z" style="fill:#1d1d1b"/><path d="M387.28,47.4a2.78,2.78,0,0,1,2.59,1.39,5.37,5.37,0,0,1,.54,2.64h-4.82c0,1.16.6,2,1.71,2a1.39,1.39,0,0,0,1.43-1h1.66a2.85,2.85,0,0,1-3.11,2.2c-2.19,0-3.32-1.38-3.32-3.59A3.27,3.27,0,0,1,387.28,47.4Zm-.08,1.14c-.88,0-1.54.58-1.64,1.74h3.24C388.71,49.12,388.06,48.54,387.2,48.54Z" style="fill:#1d1d1b"/><path d="M393.66,51c.2.67.35,1.33.53,2h.09c.15-.67.33-1.33.52-2l1.05-3.38h1.68l-2.36,6.77h-1.92l-2.36-6.77h1.75Z" style="fill:#1d1d1b"/><path d="M401.31,47.4a2.77,2.77,0,0,1,2.58,1.39,5.26,5.26,0,0,1,.54,2.64h-4.81c0,1.16.6,2,1.7,2a1.38,1.38,0,0,0,1.43-1h1.67a2.85,2.85,0,0,1-3.11,2.2c-2.19,0-3.32-1.38-3.32-3.59A3.27,3.27,0,0,1,401.31,47.4Zm-.08,1.14c-.88,0-1.55.58-1.64,1.74h3.24C402.74,49.12,402.08,48.54,401.23,48.54Z" style="fill:#1d1d1b"/><path d="M407.4,54.36h-1.58V44.83h1.58Z" style="fill:#1d1d1b"/><path d="M415.53,51a3.38,3.38,0,1,1-6.75,0,3.38,3.38,0,1,1,6.75,0Zm-5.11,0c0,1.43.61,2.36,1.71,2.36s1.76-.9,1.76-2.36-.64-2.36-1.74-2.36S410.42,49.52,410.42,51Z" style="fill:#1d1d1b"/><path d="M420.47,54.49a2.27,2.27,0,0,1-2-.91V57h-1.58V47.59h1.47v.9a2.51,2.51,0,0,1,2.11-1c1.74,0,2.83,1.37,2.83,3.51S422.15,54.49,420.47,54.49Zm-.38-5.81c-1,0-1.64.87-1.64,2.29s.61,2.31,1.61,2.31,1.64-.88,1.64-2.31S421.08,48.68,420.09,48.68Z" style="fill:#1d1d1b"/><path d="M427.59,47.4a2.78,2.78,0,0,1,2.59,1.39,5.37,5.37,0,0,1,.54,2.64H425.9c0,1.16.6,2,1.71,2a1.39,1.39,0,0,0,1.43-1h1.66a2.85,2.85,0,0,1-3.11,2.2c-2.19,0-3.32-1.38-3.32-3.59A3.27,3.27,0,0,1,427.59,47.4Zm-.08,1.14c-.88,0-1.55.58-1.64,1.74h3.25C429,49.12,428.37,48.54,427.51,48.54Z" style="fill:#1d1d1b"/><path d="M433.59,48.6a2,2,0,0,1,1.8-1.08,3.09,3.09,0,0,1,.74.07V49a3.3,3.3,0,0,0-.68-.06c-1.3,0-1.77.86-1.77,2.5v3h-1.57V47.59h1.48Z" style="fill:#1d1d1b"/><path d="M445.88,51a3.38,3.38,0,1,1-6.75,0,3.38,3.38,0,1,1,6.75,0Zm-5.11,0c0,1.43.61,2.36,1.72,2.36s1.75-.9,1.75-2.36-.64-2.36-1.74-2.36S440.77,49.52,440.77,51Z" style="fill:#1d1d1b"/><path d="M450.82,54.49a2.27,2.27,0,0,1-2-.91V57h-1.58V47.59h1.47v.9a2.51,2.51,0,0,1,2.11-1c1.74,0,2.83,1.37,2.83,3.51S452.5,54.49,450.82,54.49Zm-.38-5.81c-1,0-1.64.87-1.64,2.29s.61,2.31,1.61,2.31,1.64-.88,1.64-2.31S451.44,48.68,450.44,48.68Z" style="fill:#1d1d1b"/><path d="M456.88,45.91v1.68h1.34v1.2h-1.34V52c0,.84.18,1.22.81,1.22a2.37,2.37,0,0,0,.54-.05v1.21a3.83,3.83,0,0,1-1,.12c-1.35,0-1.91-.65-1.91-2.18V48.79h-1.09v-1.2h1.09V45.91Z" style="fill:#1d1d1b"/><path d="M461,46.42h-1.57V44.83H461Zm0,7.94h-1.57V47.59H461Z" style="fill:#1d1d1b"/><path d="M469.14,51a3.39,3.39,0,1,1-6.76,0,3.39,3.39,0,1,1,6.76,0ZM464,51c0,1.43.62,2.36,1.72,2.36s1.76-.9,1.76-2.36-.65-2.36-1.75-2.36S464,49.52,464,51Z" style="fill:#1d1d1b"/><path d="M474.12,47.46a2,2,0,0,1,1.91.93,4.13,4.13,0,0,1,.4,2.08v3.89h-1.57V50.58c0-1-.15-1.92-1.24-1.92s-1.53.66-1.53,2.27v3.43h-1.58V47.59H472v.88A2.61,2.61,0,0,1,474.12,47.46Z" style="fill:#1d1d1b"/><path d="M480.72,53.41c.75,0,1.24-.31,1.24-.84s-.75-.85-1.63-1.06c-1.16-.28-2.52-.58-2.52-2.06,0-1.23,1.09-2.05,2.82-2.05s2.81.78,2.81,2.26h-1.56c0-.8-.45-1.13-1.3-1.13-.7,0-1.14.3-1.14.79,0,.72,1,.9,2,1.15s2.13.67,2.13,2-1.1,2.1-2.87,2.1c-1.93,0-3-.81-3-2.35h1.61C479.28,53,479.77,53.41,480.72,53.41Z" style="fill:#1d1d1b"/><path d="M565.4,46h-4.51v2.61h4.25V50h-4.25v2.77h4.7v1.39h-6.37V44.59h6.18Z" style="fill:#1d1d1b"/><path d="M570.56,47.22a2,2,0,0,1,1.9.93,4.07,4.07,0,0,1,.41,2.09v3.88h-1.58V50.34c0-1-.14-1.91-1.23-1.91s-1.54.65-1.54,2.27v3.42H567V47.35h1.46v.88A2.61,2.61,0,0,1,570.56,47.22Z" style="fill:#1d1d1b"/><path d="M578.76,53.24a2.64,2.64,0,0,1-2.27,1c-1.51,0-2.35-.75-2.35-2,0-2.16,2.72-2.17,4.44-2.38v-.29c0-.84-.4-1.29-1.24-1.29s-1.32.41-1.34,1.14h-1.61c.05-1.41,1.18-2.25,3-2.25,2.15,0,2.77,1.11,2.77,2.94V52a12.53,12.53,0,0,0,.15,2.12h-1.43A6.83,6.83,0,0,1,578.76,53.24Zm-3-1c0,.58.39.94,1.13.94,1,0,1.68-.47,1.68-1.94v-.29C577.39,51.1,575.77,51.06,575.77,52.22Z" style="fill:#1d1d1b"/><path d="M585.37,54.25a2.5,2.5,0,0,1-2.08-1v.89h-1.47V44.59h1.57v3.55a2.38,2.38,0,0,1,2-.92c1.73,0,2.82,1.34,2.82,3.5S587,54.25,585.37,54.25Zm-.4-5.82c-1,0-1.62.93-1.62,2.29S584,53,585,53s1.62-.89,1.62-2.31S586,48.43,585,48.43Z" style="fill:#1d1d1b"/><path d="M591.19,54.12h-1.58V44.59h1.58Z" style="fill:#1d1d1b"/><path d="M595.88,47.17a2.78,2.78,0,0,1,2.59,1.39,5.2,5.2,0,0,1,.54,2.63h-4.82c0,1.16.6,2,1.71,2a1.38,1.38,0,0,0,1.43-1H599a2.85,2.85,0,0,1-3.11,2.2c-2.19,0-3.32-1.37-3.32-3.59A3.26,3.26,0,0,1,595.88,47.17Zm-.08,1.14c-.87,0-1.54.57-1.64,1.73h3.25C597.31,48.88,596.66,48.31,595.8,48.31Z" style="fill:#1d1d1b"/><path d="M604.75,45.67v1.68h1.34v1.21h-1.34v3.19c0,.84.19,1.22.82,1.22a2,2,0,0,0,.54-.06v1.21a4,4,0,0,1-1,.12c-1.35,0-1.91-.64-1.91-2.18v-3.5h-1.09V47.35h1.09V45.67Z" style="fill:#1d1d1b"/><path d="M608.87,48.19a2.32,2.32,0,0,1,2-1,2.2,2.2,0,0,1,1.93.92,3.69,3.69,0,0,1,.38,2.1v3.88h-1.58V50.34c0-1-.14-1.91-1.23-1.91s-1.54.65-1.54,2.27v3.42H607.3V44.59h1.57Z" style="fill:#1d1d1b"/><path d="M617.84,47.17a2.77,2.77,0,0,1,2.58,1.39,5.2,5.2,0,0,1,.54,2.63h-4.82c0,1.16.61,2,1.71,2a1.37,1.37,0,0,0,1.43-1H621a2.85,2.85,0,0,1-3.11,2.2c-2.2,0-3.32-1.37-3.32-3.59A3.26,3.26,0,0,1,617.84,47.17Zm-.08,1.14c-.88,0-1.55.57-1.64,1.73h3.24C619.27,48.88,618.61,48.31,617.76,48.31Z" style="fill:#1d1d1b"/><path d="M633.45,49.36c0,3-1.77,5-4.43,5s-4.41-2-4.41-5,1.74-5,4.42-5S633.45,46.41,633.45,49.36Zm-7.14,0c0,2.16,1.07,3.63,2.71,3.63s2.73-1.55,2.73-3.63-1-3.64-2.72-3.64S626.31,47.21,626.31,49.36Z" style="fill:#1d1d1b"/><path d="M641.19,46h-4.51v2.61h4.25V50h-4.25v2.77h4.7v1.39H635V44.59h6.18Z" style="fill:#1d1d1b"/><path d="M647.41,49.93c.3.88.49,1.66.71,2.39h.09c.16-.74.4-1.6.65-2.39l1.7-5.34h2.61v9.53h-1.55V49.2c0-1,0-2.06.07-3.06h-.09c-.16.54-1.65,4.7-2.61,8h-1.91c-1-3.27-2.46-7.45-2.62-8h-.09c0,.84.09,2.19.09,3.06v4.92h-1.54V44.59h2.62Z" style="fill:#1d1d1b"/><path d="M661.43,53c1.64,0,2-1.4,2-2.82V44.59h1.66v5.65c0,2.66-1.31,4.08-3.68,4.08-2.68,0-3.68-1.46-3.68-4.19V44.59h1.67v5.58C659.42,51.48,659.76,53,661.43,53Z" style="fill:#1d1d1b"/><path d="M670.47,47.22a2,2,0,0,1,1.9.93,4.07,4.07,0,0,1,.41,2.09v3.88H671.2V50.34c0-1-.14-1.91-1.23-1.91s-1.54.65-1.54,2.27v3.42h-1.57V47.35h1.46v.88A2.61,2.61,0,0,1,670.47,47.22Z" style="fill:#1d1d1b"/><path d="M676.08,54.12h-1.57V44.59h1.57Z" style="fill:#1d1d1b"/><path d="M684.22,50.74a3.38,3.38,0,1,1-6.76,0,3.39,3.39,0,1,1,6.76,0Zm-5.12,0c0,1.43.62,2.36,1.72,2.36s1.76-.91,1.76-2.36-.64-2.37-1.75-2.37S679.1,49.28,679.1,50.74Z" style="fill:#1d1d1b"/><path d="M688.42,54.32c-2,0-3.24-1.43-3.24-3.58s1.23-3.59,3.24-3.59a2.67,2.67,0,0,1,3,2.55h-1.63a1.32,1.32,0,0,0-1.36-1.33c-1,0-1.61.92-1.61,2.34s.62,2.39,1.61,2.39a1.37,1.37,0,0,0,1.4-1.37h1.6A2.69,2.69,0,0,1,688.42,54.32Z" style="fill:#1d1d1b"/><path d="M694.26,50.16l2.29-2.81h1.88l-2.6,3,2.88,3.74h-2l-2.48-3.36v3.36h-1.58V44.59h1.58Z" style="fill:#1d1d1b"/><path d="M703.64,45.67v1.68H705v1.21h-1.34v3.19c0,.84.18,1.22.81,1.22a2,2,0,0,0,.54-.06v1.21a3.87,3.87,0,0,1-1,.12c-1.35,0-1.92-.64-1.92-2.18v-3.5H701V47.35h1.08V45.67Z" style="fill:#1d1d1b"/><path d="M712.47,50.74a3.38,3.38,0,1,1-6.76,0,3.39,3.39,0,1,1,6.76,0Zm-5.12,0c0,1.43.62,2.36,1.72,2.36s1.76-.91,1.76-2.36-.64-2.37-1.75-2.37S707.35,49.28,707.35,50.74Z" style="fill:#1d1d1b"/><path d="M716.28,47.22a2.27,2.27,0,0,1,2.07,1v-.88h1.44v5.8c0,2.24-.64,3.66-3.13,3.66-1.75,0-2.76-.75-2.9-2.16h1.62c0,.67.5,1,1.3,1,1.05,0,1.59-.59,1.59-2.07v-.7a2.44,2.44,0,0,1-2.07,1c-1.62,0-2.76-1.27-2.76-3.28S714.57,47.22,716.28,47.22Zm.36,5.47c1,0,1.6-.81,1.6-2.09s-.6-2.17-1.6-2.17-1.57.91-1.57,2.13S715.69,52.69,716.64,52.69Z" style="fill:#1d1d1b"/><path d="M724,47.22a2.27,2.27,0,0,1,2.07,1v-.88h1.45v5.8c0,2.24-.65,3.66-3.14,3.66-1.75,0-2.76-.75-2.9-2.16h1.62c0,.67.5,1,1.3,1,1.05,0,1.59-.59,1.59-2.07v-.7a2.42,2.42,0,0,1-2.07,1c-1.62,0-2.76-1.27-2.76-3.28S722.31,47.22,724,47.22Zm.36,5.47c1,0,1.61-.81,1.61-2.09s-.61-2.17-1.61-2.17-1.57.91-1.57,2.13S723.43,52.69,724.38,52.69Z" style="fill:#1d1d1b"/><path d="M730.91,54.12h-1.58V44.59h1.58Z" style="fill:#1d1d1b"/><path d="M735.6,47.17a2.78,2.78,0,0,1,2.59,1.39,5.2,5.2,0,0,1,.54,2.63h-4.82c0,1.16.61,2,1.71,2a1.38,1.38,0,0,0,1.43-1h1.66a2.85,2.85,0,0,1-3.11,2.2c-2.19,0-3.31-1.37-3.31-3.59A3.26,3.26,0,0,1,735.6,47.17Zm-.07,1.14c-.88,0-1.55.57-1.65,1.73h3.25C737,48.88,736.38,48.31,735.53,48.31Z" style="fill:#1d1d1b"/><path d="M565.4,107.37h-4.51V110h4.25v1.38h-4.25v2.77h4.7v1.39h-6.37V106h6.18Z" style="fill:#1d1d1b"/><path d="M570.56,108.62a2,2,0,0,1,1.9.93,4,4,0,0,1,.41,2.08v3.89h-1.58v-3.78c0-1-.14-1.92-1.23-1.92s-1.54.66-1.54,2.27v3.43H567v-6.77h1.46v.88A2.58,2.58,0,0,1,570.56,108.62Z" style="fill:#1d1d1b"/><path d="M578.76,114.64a2.64,2.64,0,0,1-2.27,1c-1.51,0-2.35-.75-2.35-2,0-2.16,2.72-2.18,4.44-2.39V111a1.11,1.11,0,0,0-1.24-1.28c-.85,0-1.32.41-1.34,1.14h-1.61c.05-1.42,1.18-2.26,3-2.26,2.15,0,2.77,1.12,2.77,2.94v1.89a12.64,12.64,0,0,0,.15,2.13h-1.43A7,7,0,0,1,578.76,114.64Zm-3-1c0,.57.39.94,1.13.94,1,0,1.68-.47,1.68-1.94v-.29C577.39,112.5,575.77,112.46,575.77,113.62Z" style="fill:#1d1d1b"/><path d="M585.37,115.65a2.5,2.5,0,0,1-2.08-1v.89h-1.47V106h1.57v3.55a2.38,2.38,0,0,1,2-.92c1.73,0,2.82,1.34,2.82,3.5S587,115.65,585.37,115.65Zm-.4-5.83c-1,0-1.62.93-1.62,2.3s.65,2.31,1.64,2.31,1.62-.89,1.62-2.31S586,109.82,585,109.82Z" style="fill:#1d1d1b"/><path d="M591.19,115.52h-1.58V106h1.58Z" style="fill:#1d1d1b"/><path d="M595.88,108.56a2.79,2.79,0,0,1,2.59,1.4,5.2,5.2,0,0,1,.54,2.63h-4.82c0,1.16.6,2,1.71,2a1.39,1.39,0,0,0,1.43-1H599a2.85,2.85,0,0,1-3.11,2.2c-2.19,0-3.32-1.38-3.32-3.59A3.27,3.27,0,0,1,595.88,108.56Zm-.08,1.15c-.87,0-1.54.57-1.64,1.73h3.25C597.31,110.28,596.66,109.71,595.8,109.71Z" style="fill:#1d1d1b"/><path d="M606.72,114.39c1.64,0,2-1.4,2-2.82V106h1.67v5.64c0,2.67-1.31,4.09-3.69,4.09-2.68,0-3.67-1.46-3.67-4.19V106h1.66v5.58C604.71,112.88,605.06,114.39,606.72,114.39Z" style="fill:#1d1d1b"/><path d="M615.57,114.39c1.14,0,1.83-.52,1.83-1.36s-1-1.3-2.18-1.66c-1.49-.46-3.25-.92-3.25-2.85,0-1.62,1.39-2.73,3.5-2.73s3.42,1.19,3.46,3.11h-1.7a1.74,1.74,0,0,0-1.83-1.79c-.9,0-1.68.47-1.68,1.27s.88,1.27,2.5,1.72,2.94,1.05,2.94,2.72-1.45,2.9-3.59,2.9c-2.33,0-3.77-1.25-3.77-3.39h1.72A1.87,1.87,0,0,0,615.57,114.39Z" style="fill:#1d1d1b"/><path d="M626.18,106.46a2.22,2.22,0,0,1,1.08,2,2.14,2.14,0,0,1-1.77,2.17v0a2.11,2.11,0,0,1,2,2.23,2.3,2.3,0,0,1-1.34,2.21,6,6,0,0,1-2.63.4h-2.86V106h2.91A5.47,5.47,0,0,1,626.18,106.46Zm-.55,2.22c0-1.17-.93-1.34-2.1-1.34H622.3V110h1.18C624.38,110,625.63,109.9,625.63,108.68Zm.13,4.1c0-1.15-.8-1.41-2.26-1.41h-1.2v2.81h1.27C624.71,114.18,625.76,114,625.76,112.78Z" style="fill:#1d1d1b"/><path d="M634,108.62a2.27,2.27,0,0,1,2,.9V106h1.58v9.53H636v-.91a2.51,2.51,0,0,1-2.08,1c-1.73,0-2.86-1.29-2.86-3.53S632.23,108.62,634,108.62Zm.37,5.81c1,0,1.64-.85,1.64-2.31s-.62-2.3-1.61-2.3-1.63.88-1.63,2.3S633.33,114.43,634.33,114.43Z" style="fill:#1d1d1b"/><path d="M642.22,108.56a2.77,2.77,0,0,1,2.58,1.4,5.2,5.2,0,0,1,.54,2.63h-4.82c0,1.16.61,2,1.71,2a1.38,1.38,0,0,0,1.43-1h1.67a2.85,2.85,0,0,1-3.11,2.2c-2.19,0-3.32-1.38-3.32-3.59A3.27,3.27,0,0,1,642.22,108.56Zm-.08,1.15c-.88,0-1.55.57-1.64,1.73h3.24C643.65,110.28,643,109.71,642.14,109.71Z" style="fill:#1d1d1b"/><path d="M650.29,115.65a2.53,2.53,0,0,1-2.09-1v.89h-1.47V106h1.57v3.55a2.4,2.4,0,0,1,2-.92c1.73,0,2.82,1.34,2.82,3.5S652,115.65,650.29,115.65Zm-.41-5.83c-1,0-1.61.93-1.61,2.3s.64,2.31,1.64,2.31,1.61-.89,1.61-2.31S650.92,109.82,649.88,109.82Z" style="fill:#1d1d1b"/><path d="M656.76,115.65a2.2,2.2,0,0,1-1.92-.92,3.75,3.75,0,0,1-.39-2.14v-3.84H656v3.79c0,1,.14,1.92,1.24,1.92a1.29,1.29,0,0,0,1.12-.53,2.89,2.89,0,0,0,.42-1.74v-3.44h1.57v6.77h-1.47v-.88A2.57,2.57,0,0,1,656.76,115.65Z" style="fill:#1d1d1b"/><path d="M664.6,108.62a2.27,2.27,0,0,1,2.08,1v-.88h1.44v5.8c0,2.24-.64,3.66-3.14,3.66-1.74,0-2.75-.75-2.9-2.17h1.63c0,.67.5,1,1.3,1,1,0,1.59-.59,1.59-2.07v-.7a2.45,2.45,0,0,1-2.08,1c-1.61,0-2.75-1.27-2.75-3.28S662.9,108.62,664.6,108.62Zm.37,5.47c.94,0,1.6-.82,1.6-2.09s-.6-2.18-1.6-2.18-1.58.92-1.58,2.14S664,114.09,665,114.09Z" style="fill:#1d1d1b"/><path d="M672.34,108.62a2.26,2.26,0,0,1,2.08,1v-.88h1.44v5.8c0,2.24-.64,3.66-3.14,3.66-1.74,0-2.75-.75-2.9-2.17h1.63c0,.67.5,1,1.3,1,1,0,1.59-.59,1.59-2.07v-.7a2.44,2.44,0,0,1-2.07,1c-1.62,0-2.76-1.27-2.76-3.28S670.64,108.62,672.34,108.62Zm.37,5.47c.95,0,1.6-.82,1.6-2.09s-.6-2.18-1.6-2.18-1.57.92-1.57,2.14S671.75,114.09,672.71,114.09Z" style="fill:#1d1d1b"/><path d="M679.23,107.58h-1.57V106h1.57Zm0,7.94h-1.57v-6.77h1.57Z" style="fill:#1d1d1b"/><path d="M684.65,108.62a2,2,0,0,1,1.9.93,4,4,0,0,1,.41,2.08v3.89h-1.57v-3.78c0-1-.15-1.92-1.24-1.92s-1.53.66-1.53,2.27v3.43H681v-6.77h1.46v.88A2.61,2.61,0,0,1,684.65,108.62Z" style="fill:#1d1d1b"/><path d="M691.12,108.62a2.27,2.27,0,0,1,2.08,1v-.88h1.44v5.8c0,2.24-.64,3.66-3.14,3.66-1.74,0-2.75-.75-2.9-2.17h1.63c0,.67.5,1,1.3,1,1.05,0,1.59-.59,1.59-2.07v-.7a2.45,2.45,0,0,1-2.08,1c-1.61,0-2.75-1.27-2.75-3.28S689.42,108.62,691.12,108.62Zm.37,5.47c.94,0,1.6-.82,1.6-2.09s-.6-2.18-1.6-2.18-1.58.92-1.58,2.14S690.53,114.09,691.49,114.09Z" style="fill:#1d1d1b"/><path d="M819.3,115.52h-1.76l-.91-2.57h-3.79l-.88,2.57h-1.72l3.51-9.53h2Zm-4.5-8.16h-.08c-.28.89-.54,1.82-.87,2.71l-.55,1.5h2.89l-.53-1.5C815.36,109.18,815.05,108.25,814.8,107.36Z" style="fill:#1d1d1b"/><path d="M821.79,115.52h-1.57V106h1.57Z" style="fill:#1d1d1b"/><path d="M825.18,115.52H823.6V106h1.58Z" style="fill:#1d1d1b"/><path d="M833.31,112.13a3.39,3.39,0,1,1-3.38-3.57A3.27,3.27,0,0,1,833.31,112.13Zm-5.11,0c0,1.43.61,2.37,1.71,2.37s1.76-.91,1.76-2.37-.64-2.36-1.74-2.36S828.2,110.68,828.2,112.13Z" style="fill:#1d1d1b"/><path d="M836.29,112.13c.15.65.25,1.37.37,2h.09c.12-.67.26-1.38.41-2l.77-3.37h2.21l.78,3.38c.15.65.25,1.37.4,2h.09c.1-.67.21-1.39.35-2l.73-3.38H844l-1.67,6.77h-2.12l-.75-3.4c-.15-.68-.28-1.42-.42-2.1h-.09c-.15.68-.29,1.42-.45,2.11l-.76,3.39h-2.08L834,108.75h1.61Z" style="fill:#1d1d1b"/><path d="M850.12,108.62a2.28,2.28,0,0,1,2,.9V106h1.58v9.53H852.2v-.91a2.51,2.51,0,0,1-2.08,1c-1.73,0-2.86-1.29-2.86-3.53S848.39,108.62,850.12,108.62Zm.37,5.81c1,0,1.64-.85,1.64-2.31s-.62-2.3-1.61-2.3-1.63.88-1.63,2.3S849.49,114.43,850.49,114.43Z" style="fill:#1d1d1b"/><path d="M858.38,108.56A2.78,2.78,0,0,1,861,110a5.2,5.2,0,0,1,.54,2.63h-4.82c0,1.16.61,2,1.71,2a1.38,1.38,0,0,0,1.43-1h1.67a2.85,2.85,0,0,1-3.11,2.2c-2.2,0-3.33-1.38-3.33-3.59A3.27,3.27,0,0,1,858.38,108.56Zm-.08,1.15c-.88,0-1.55.57-1.64,1.73h3.24C859.81,110.28,859.15,109.71,858.3,109.71Z" style="fill:#1d1d1b"/><path d="M866.45,115.65a2.51,2.51,0,0,1-2.09-1v.89h-1.47V106h1.57v3.55a2.39,2.39,0,0,1,2-.92c1.73,0,2.82,1.34,2.82,3.5S868.11,115.65,866.45,115.65Zm-.41-5.83c-1,0-1.62.93-1.62,2.3s.65,2.31,1.64,2.31,1.62-.89,1.62-2.31S867.08,109.82,866,109.82Z" style="fill:#1d1d1b"/><path d="M872.91,115.65a2.19,2.19,0,0,1-1.91-.92,3.75,3.75,0,0,1-.39-2.14v-3.84h1.56v3.79c0,1,.14,1.92,1.24,1.92a1.29,1.29,0,0,0,1.12-.53,2.89,2.89,0,0,0,.42-1.74v-3.44h1.57v6.77h-1.47v-.88A2.58,2.58,0,0,1,872.91,115.65Z" style="fill:#1d1d1b"/><path d="M880.76,108.62a2.24,2.24,0,0,1,2.07,1v-.88h1.45v5.8c0,2.24-.65,3.66-3.14,3.66-1.74,0-2.75-.75-2.9-2.17h1.63c0,.67.5,1,1.3,1,1.05,0,1.59-.59,1.59-2.07v-.7a2.45,2.45,0,0,1-2.08,1c-1.61,0-2.75-1.27-2.75-3.28S879.05,108.62,880.76,108.62Zm.37,5.47c.94,0,1.6-.82,1.6-2.09s-.6-2.18-1.6-2.18-1.58.92-1.58,2.14S880.17,114.09,881.13,114.09Z" style="fill:#1d1d1b"/><path d="M888.5,108.62a2.27,2.27,0,0,1,2.08,1v-.88H892v5.8c0,2.24-.64,3.66-3.14,3.66-1.74,0-2.75-.75-2.9-2.17h1.63c0,.67.5,1,1.3,1,1.05,0,1.59-.59,1.59-2.07v-.7a2.45,2.45,0,0,1-2.08,1c-1.61,0-2.75-1.27-2.75-3.28S886.8,108.62,888.5,108.62Zm.37,5.47c1,0,1.6-.82,1.6-2.09s-.6-2.18-1.6-2.18-1.57.92-1.57,2.14S887.91,114.09,888.87,114.09Z" style="fill:#1d1d1b"/><path d="M895.39,107.58h-1.57V106h1.57Zm0,7.94h-1.57v-6.77h1.57Z" style="fill:#1d1d1b"/><path d="M900.81,108.62a2,2,0,0,1,1.9.93,4,4,0,0,1,.41,2.08v3.89h-1.57v-3.78c0-1-.15-1.92-1.24-1.92s-1.53.66-1.53,2.27v3.43H897.2v-6.77h1.46v.88A2.59,2.59,0,0,1,900.81,108.62Z" style="fill:#1d1d1b"/><path d="M907.28,108.62a2.24,2.24,0,0,1,2.07,1v-.88h1.45v5.8c0,2.24-.65,3.66-3.14,3.66-1.74,0-2.75-.75-2.9-2.17h1.63c0,.67.5,1,1.3,1,1,0,1.59-.59,1.59-2.07v-.7a2.45,2.45,0,0,1-2.08,1c-1.61,0-2.75-1.27-2.75-3.28S905.57,108.62,907.28,108.62Zm.37,5.47c.94,0,1.6-.82,1.6-2.09s-.61-2.18-1.6-2.18-1.58.92-1.58,2.14S906.69,114.09,907.65,114.09Z" style="fill:#1d1d1b"/><path d="M914.55,108.75h1.09v-.44c0-1.47.37-2.4,2.11-2.4a2.62,2.62,0,0,1,.8.09v1.21a2.07,2.07,0,0,0-.47,0c-.68,0-.87.4-.87,1.24v.34h1.34V110h-1.34v5.56h-1.57V110h-1.09Z" style="fill:#1d1d1b"/><path d="M921.1,109.76a2,2,0,0,1,1.8-1.08,3.71,3.71,0,0,1,.74.07v1.36a3.36,3.36,0,0,0-.68-.06c-1.3,0-1.77.86-1.77,2.5v3h-1.57v-6.77h1.48Z" style="fill:#1d1d1b"/><path d="M930.93,112.13a3.39,3.39,0,1,1-3.39-3.57A3.28,3.28,0,0,1,930.93,112.13Zm-5.12,0c0,1.43.62,2.37,1.72,2.37s1.76-.91,1.76-2.37-.65-2.36-1.75-2.36S925.81,110.68,925.81,112.13Z" style="fill:#1d1d1b"/><path d="M933.71,109.65a2.43,2.43,0,0,1,2.08-1,1.87,1.87,0,0,1,1.92,1.14,2.48,2.48,0,0,1,2.31-1.14,2,2,0,0,1,1.61.6,3.07,3.07,0,0,1,.58,2.06v4.24h-1.57v-4c0-.89-.21-1.72-1.14-1.72-1.13,0-1.45,1.08-1.45,2.37v3.33h-1.57v-4c0-.89-.24-1.72-1.17-1.72-1.12,0-1.43,1.08-1.43,2.37v3.33H932.3v-6.77h1.42Z" style="fill:#1d1d1b"/><path d="M949,108.62a2.29,2.29,0,0,1,2,.9V106h1.57v9.53h-1.48v-.91a2.48,2.48,0,0,1-2.07,1c-1.73,0-2.86-1.29-2.86-3.53S947.28,108.62,949,108.62Zm.37,5.81c1,0,1.64-.85,1.64-2.31s-.62-2.3-1.62-2.3-1.63.88-1.63,2.3S948.38,114.43,949.38,114.43Z" style="fill:#1d1d1b"/><path d="M957.26,108.56a2.79,2.79,0,0,1,2.59,1.4,5.31,5.31,0,0,1,.53,2.63h-4.81c0,1.16.6,2,1.71,2a1.39,1.39,0,0,0,1.43-1h1.66a2.85,2.85,0,0,1-3.11,2.2c-2.19,0-3.32-1.38-3.32-3.59A3.27,3.27,0,0,1,957.26,108.56Zm-.08,1.15c-.88,0-1.55.57-1.64,1.73h3.24C958.69,110.28,958,109.71,957.18,109.71Z" style="fill:#1d1d1b"/><path d="M963.62,112.13c.2.67.36,1.33.53,2h.09c.16-.67.33-1.33.53-2l1.05-3.38h1.68l-2.37,6.77h-1.91l-2.36-6.77h1.74Z" style="fill:#1d1d1b"/><path d="M970.08,107.58h-1.57V106h1.57Zm0,7.94h-1.57v-6.77h1.57Z" style="fill:#1d1d1b"/><path d="M974.71,115.72c-2,0-3.24-1.43-3.24-3.59s1.24-3.58,3.24-3.58a2.67,2.67,0,0,1,3,2.55h-1.62a1.32,1.32,0,0,0-1.37-1.33c-1,0-1.6.92-1.6,2.34s.62,2.39,1.6,2.39a1.36,1.36,0,0,0,1.4-1.37h1.61A2.69,2.69,0,0,1,974.71,115.72Z" style="fill:#1d1d1b"/><path d="M981.87,108.56a2.78,2.78,0,0,1,2.58,1.4,5.2,5.2,0,0,1,.54,2.63h-4.82c0,1.16.61,2,1.71,2a1.39,1.39,0,0,0,1.43-1H985a2.84,2.84,0,0,1-3.1,2.2c-2.2,0-3.33-1.38-3.33-3.59A3.27,3.27,0,0,1,981.87,108.56Zm-.08,1.15c-.88,0-1.55.57-1.64,1.73h3.24C983.29,110.28,982.64,109.71,981.79,109.71Z" style="fill:#1d1d1b"/><path d="M654.28,266.28c.32.8,1.77,3.47,2.08,4.27h.07c.31-.8,1.82-3.49,2.19-4.27h1.77l-3.2,5.65v3.87h-1.67v-3.87l-3.17-5.65Z" style="fill:#1d1d1b"/><path d="M666.44,272.42a3.39,3.39,0,1,1-3.39-3.57A3.27,3.27,0,0,1,666.44,272.42Zm-5.12,0c0,1.43.62,2.36,1.72,2.36s1.76-.9,1.76-2.36-.64-2.36-1.75-2.36S661.32,271,661.32,272.42Z" style="fill:#1d1d1b"/><path d="M670.05,275.93a2.23,2.23,0,0,1-1.92-.91,3.76,3.76,0,0,1-.39-2.14V269h1.56v3.8c0,1,.15,1.91,1.25,1.91a1.3,1.3,0,0,0,1.11-.52,2.88,2.88,0,0,0,.42-1.75V269h1.58v6.77h-1.47v-.88A2.56,2.56,0,0,1,670.05,275.93Z" style="fill:#1d1d1b"/><path d="M677,270a2,2,0,0,1,1.8-1.07,3.86,3.86,0,0,1,.75.06v1.37a2.88,2.88,0,0,0-.69-.07c-1.29,0-1.77.87-1.77,2.51v3h-1.57V269H677Z" style="fill:#1d1d1b"/><path d="M684.52,272.42c.15.64.25,1.36.37,2H685c.12-.67.26-1.38.41-2l.77-3.38h2.21l.78,3.39c.15.64.25,1.36.4,2h.09c.1-.67.21-1.39.35-2l.73-3.39h1.48l-1.67,6.77h-2.12l-.75-3.39c-.15-.69-.28-1.42-.42-2.1h-.09c-.15.68-.29,1.41-.45,2.11l-.76,3.38h-2.07L682.2,269h1.61Z" style="fill:#1d1d1b"/><path d="M697.39,274.92a2.61,2.61,0,0,1-2.27,1c-1.5,0-2.34-.74-2.34-2,0-2.17,2.71-2.18,4.43-2.39v-.29c0-.84-.39-1.29-1.23-1.29s-1.33.41-1.34,1.15H693c.05-1.42,1.18-2.26,3-2.26,2.15,0,2.77,1.11,2.77,2.94v1.89a12.45,12.45,0,0,0,.14,2.12h-1.43C697.42,275.54,697.41,275.28,697.39,274.92Zm-3-1c0,.58.4,1,1.13,1,1,0,1.68-.48,1.68-2v-.28C696,272.79,694.4,272.75,694.4,273.9Z" style="fill:#1d1d1b"/><path d="M701.93,270a2,2,0,0,1,1.8-1.07,3.74,3.74,0,0,1,.75.06v1.37a2.81,2.81,0,0,0-.68-.07c-1.3,0-1.77.87-1.77,2.51v3h-1.58V269h1.48Z" style="fill:#1d1d1b"/><path d="M707,270a2,2,0,0,1,1.8-1.07,3.7,3.7,0,0,1,.74.06v1.37a2.76,2.76,0,0,0-.68-.07c-1.3,0-1.77.87-1.77,2.51v3h-1.57V269H707Z" style="fill:#1d1d1b"/><path d="M714.69,274.92a2.63,2.63,0,0,1-2.27,1c-1.51,0-2.35-.74-2.35-2,0-2.17,2.72-2.18,4.44-2.39v-.29c0-.84-.4-1.29-1.24-1.29s-1.32.41-1.34,1.15h-1.61c0-1.42,1.18-2.26,2.95-2.26,2.15,0,2.77,1.11,2.77,2.94v1.89a12.45,12.45,0,0,0,.15,2.12h-1.44A7,7,0,0,1,714.69,274.92Zm-3-1c0,.58.39,1,1.13,1,1,0,1.68-.48,1.68-2v-.28C713.32,272.79,711.7,272.75,711.7,273.9Z" style="fill:#1d1d1b"/><path d="M721.36,268.9a2,2,0,0,1,1.9.93,4.2,4.2,0,0,1,.4,2.09v3.88h-1.57V272c0-1-.14-1.91-1.23-1.91s-1.54.65-1.54,2.27v3.42h-1.57V269h1.45v.88A2.64,2.64,0,0,1,721.36,268.9Z" style="fill:#1d1d1b"/><path d="M727.23,267.35V269h1.34v1.21h-1.34v3.19c0,.84.19,1.22.82,1.22a2.3,2.3,0,0,0,.53,0v1.2a3.45,3.45,0,0,1-1,.12c-1.35,0-1.91-.64-1.91-2.18v-3.5h-1.09V269h1.09v-1.68Z" style="fill:#1d1d1b"/><path d="M730.11,277.25c.75,0,1.2-.44,1.31-1.38L729,269h1.76l1,3.39c.2.67.33,1.31.53,2h.08c.17-.64.33-1.34.52-2l1.07-3.39h1.64l-2.37,6.59c-.73,2.09-1.43,2.87-2.76,2.87a4.07,4.07,0,0,1-1-.07v-1.28A1.91,1.91,0,0,0,730.11,277.25Z" style="fill:#1d1d1b"/><path d="M740.51,267.86h-1.57v-1.58h1.57Zm0,7.94h-1.57V269h1.57Z" style="fill:#1d1d1b"/><path d="M744.88,274.86c.75,0,1.24-.32,1.24-.84,0-.68-.75-.85-1.63-1.06-1.16-.28-2.52-.58-2.52-2.06,0-1.24,1.09-2,2.82-2s2.81.77,2.81,2.26H746c0-.8-.45-1.13-1.3-1.13s-1.14.3-1.14.78c0,.73,1,.91,2,1.16s2.14.67,2.14,2-1.1,2.1-2.87,2.1c-1.93,0-3-.82-3-2.35h1.62C743.44,274.45,743.92,274.86,744.88,274.86Z" style="fill:#1d1d1b"/><path d="M755.3,268.9a2,2,0,0,1,1.9.93,4.09,4.09,0,0,1,.41,2.09v3.88H756V272c0-1-.15-1.91-1.24-1.91s-1.53.65-1.53,2.27v3.42h-1.58V269h1.46v.88A2.62,2.62,0,0,1,755.3,268.9Z" style="fill:#1d1d1b"/><path d="M765.67,272.42a3.39,3.39,0,1,1-3.39-3.57A3.27,3.27,0,0,1,765.67,272.42Zm-5.12,0c0,1.43.62,2.36,1.72,2.36s1.76-.9,1.76-2.36-.65-2.36-1.75-2.36S760.55,271,760.55,272.42Z" style="fill:#1d1d1b"/><path d="M768.86,267.35V269h1.33v1.21h-1.33v3.19c0,.84.18,1.22.81,1.22a2.42,2.42,0,0,0,.54,0v1.2a3.53,3.53,0,0,1-1,.12c-1.35,0-1.92-.64-1.92-2.18v-3.5h-1.09V269h1.09v-1.68Z" style="fill:#1d1d1b"/><path d="M775.74,272.42c.2.67.36,1.32.53,2h.09c.16-.67.33-1.32.53-2l1.05-3.39h1.68l-2.37,6.77h-1.91L773,269h1.74Z" style="fill:#1d1d1b"/><path d="M784.67,274.92a2.63,2.63,0,0,1-2.27,1c-1.51,0-2.35-.74-2.35-2,0-2.17,2.71-2.18,4.43-2.39v-.29c0-.84-.39-1.29-1.23-1.29s-1.33.41-1.34,1.15H780.3c.05-1.42,1.18-2.26,3-2.26,2.15,0,2.77,1.11,2.77,2.94v1.89a12.45,12.45,0,0,0,.14,2.12h-1.43A7,7,0,0,1,784.67,274.92Zm-3-1c0,.58.39,1,1.12,1,1,0,1.68-.48,1.68-2v-.28C783.3,272.79,781.68,272.75,781.68,273.9Z" style="fill:#1d1d1b"/><path d="M789.3,275.8h-1.58v-9.52h1.58Z" style="fill:#1d1d1b"/><path d="M792.68,267.86h-1.57v-1.58h1.57Zm0,7.94h-1.57V269h1.57Z" style="fill:#1d1d1b"/><path d="M796.94,268.9a2.27,2.27,0,0,1,2,.91v-3.53h1.57v9.52H799v-.9a2.47,2.47,0,0,1-2.07,1c-1.74,0-2.86-1.28-2.86-3.52S795.2,268.9,796.94,268.9Zm.36,5.81c1,0,1.64-.85,1.64-2.3s-.61-2.3-1.61-2.3-1.63.88-1.63,2.3S796.31,274.71,797.3,274.71Z" style="fill:#1d1d1b"/><path d="M809.09,274.92a2.63,2.63,0,0,1-2.27,1c-1.51,0-2.35-.74-2.35-2,0-2.17,2.71-2.18,4.43-2.39v-.29c0-.84-.39-1.29-1.23-1.29s-1.33.41-1.34,1.15h-1.61c0-1.42,1.18-2.26,2.95-2.26,2.15,0,2.77,1.11,2.77,2.94v1.89a12.45,12.45,0,0,0,.14,2.12h-1.43A7,7,0,0,1,809.09,274.92Zm-3-1c0,.58.4,1,1.13,1,1,0,1.68-.48,1.68-2v-.28C807.72,272.79,806.09,272.75,806.09,273.9Z" style="fill:#1d1d1b"/><path d="M815.75,268.9a2,2,0,0,1,1.91.93,4.2,4.2,0,0,1,.4,2.09v3.88h-1.57V272c0-1-.15-1.91-1.24-1.91s-1.53.65-1.53,2.27v3.42h-1.58V269h1.46v.88A2.62,2.62,0,0,1,815.75,268.9Z" style="fill:#1d1d1b"/><path d="M820,277.25c.75,0,1.21-.44,1.32-1.38L818.88,269h1.75l1,3.39c.2.67.33,1.31.53,2h.07c.18-.64.33-1.34.53-2l1.06-3.39h1.64l-2.36,6.59c-.73,2.09-1.43,2.87-2.77,2.87a4,4,0,0,1-1-.07v-1.28A1.89,1.89,0,0,0,820,277.25Z" style="fill:#1d1d1b"/><path d="M827.88,269.94a2.4,2.4,0,0,1,2.08-1,1.89,1.89,0,0,1,1.92,1.14,2.5,2.5,0,0,1,2.31-1.14,2,2,0,0,1,1.61.6,3.1,3.1,0,0,1,.58,2.07v4.23h-1.57v-4c0-.89-.21-1.72-1.15-1.72-1.12,0-1.44,1.07-1.44,2.36v3.33h-1.57v-4c0-.89-.24-1.72-1.17-1.72-1.12,0-1.43,1.07-1.43,2.36v3.33h-1.58V269h1.42Z" style="fill:#1d1d1b"/><path d="M844.44,272.42a3.39,3.39,0,1,1-3.39-3.57A3.28,3.28,0,0,1,844.44,272.42Zm-5.12,0c0,1.43.62,2.36,1.72,2.36s1.76-.9,1.76-2.36-.65-2.36-1.75-2.36S839.32,271,839.32,272.42Z" style="fill:#1d1d1b"/><path d="M847.3,270a2,2,0,0,1,1.8-1.07,3.7,3.7,0,0,1,.74.06v1.37a2.81,2.81,0,0,0-.68-.07c-1.3,0-1.77.87-1.77,2.51v3h-1.58V269h1.49Z" style="fill:#1d1d1b"/><path d="M853.69,268.85a2.77,2.77,0,0,1,2.58,1.39,5.24,5.24,0,0,1,.54,2.64H852c0,1.15.6,1.95,1.7,1.95a1.37,1.37,0,0,0,1.43-1.05h1.67a2.85,2.85,0,0,1-3.11,2.21c-2.19,0-3.32-1.38-3.32-3.6A3.26,3.26,0,0,1,853.69,268.85Zm-.08,1.14a1.64,1.64,0,0,0-1.64,1.73h3.24C855.12,270.57,854.46,270,853.61,270Z" style="fill:#1d1d1b"/><path d="M1066.63,115.72c-2.58,0-4.29-1.79-4.29-4.89,0-2.9,1.75-5,4.32-5a3.6,3.6,0,0,1,3.87,3.4h-1.7a2.14,2.14,0,0,0-2.18-2.07c-1.58,0-2.6,1.48-2.6,3.65s1,3.62,2.58,3.62a2.18,2.18,0,0,0,2.22-2.14h1.75A3.77,3.77,0,0,1,1066.63,115.72Z" style="fill:#1d1d1b"/><path d="M1078.17,112.13a3.39,3.39,0,1,1-3.39-3.57A3.27,3.27,0,0,1,1078.17,112.13Zm-5.12,0c0,1.43.62,2.37,1.72,2.37s1.76-.91,1.76-2.37-.64-2.36-1.75-2.36S1073.05,110.68,1073.05,112.13Z" style="fill:#1d1d1b"/><path d="M1083.15,108.62a2,2,0,0,1,1.91.93,4.13,4.13,0,0,1,.4,2.08v3.89h-1.57v-3.78c0-1-.14-1.92-1.23-1.92s-1.54.66-1.54,2.27v3.43h-1.57v-6.77H1081v.88A2.61,2.61,0,0,1,1083.15,108.62Z" style="fill:#1d1d1b"/><path d="M1090.8,108.62a2,2,0,0,1,1.91.93,4.13,4.13,0,0,1,.41,2.08v3.89h-1.58v-3.78c0-1-.14-1.92-1.23-1.92s-1.54.66-1.54,2.27v3.43h-1.57v-6.77h1.45v.88A2.61,2.61,0,0,1,1090.8,108.62Z" style="fill:#1d1d1b"/><path d="M1097.73,108.56a2.79,2.79,0,0,1,2.59,1.4,5.2,5.2,0,0,1,.54,2.63H1096c0,1.16.6,2,1.71,2a1.38,1.38,0,0,0,1.43-1h1.66a2.84,2.84,0,0,1-3.11,2.2c-2.19,0-3.32-1.38-3.32-3.59A3.27,3.27,0,0,1,1097.73,108.56Zm-.07,1.15c-.88,0-1.55.57-1.64,1.73h3.24C1099.16,110.28,1098.51,109.71,1097.66,109.71Z" style="fill:#1d1d1b"/><path d="M1105.07,115.72c-2,0-3.24-1.43-3.24-3.59s1.23-3.58,3.24-3.58a2.67,2.67,0,0,1,3,2.55h-1.63a1.31,1.31,0,0,0-1.36-1.33c-1,0-1.6.92-1.6,2.34s.61,2.39,1.6,2.39a1.37,1.37,0,0,0,1.4-1.37h1.6A2.69,2.69,0,0,1,1105.07,115.72Z" style="fill:#1d1d1b"/><path d="M1111.26,107.07v1.68h1.34V110h-1.34v3.18c0,.84.19,1.22.82,1.22a2.42,2.42,0,0,0,.54,0v1.21a4,4,0,0,1-1,.12c-1.35,0-1.91-.65-1.91-2.18V110h-1.09v-1.21h1.09v-1.68Z" style="fill:#1d1d1b"/><path d="M1118.16,107.07v1.68h1.34V110h-1.34v3.18c0,.84.19,1.22.82,1.22a2.42,2.42,0,0,0,.54,0v1.21a3.93,3.93,0,0,1-1,.12c-1.36,0-1.92-.65-1.92-2.18V110h-1.09v-1.21h1.09v-1.68Z" style="fill:#1d1d1b"/><path d="M1122.29,109.59a2.29,2.29,0,0,1,2-1,2.18,2.18,0,0,1,1.93.92,3.59,3.59,0,0,1,.38,2.09v3.89h-1.58v-3.78c0-1-.14-1.92-1.23-1.92s-1.53.66-1.53,2.27v3.43h-1.58V106h1.58Z" style="fill:#1d1d1b"/><path d="M1131.25,108.56a2.77,2.77,0,0,1,2.58,1.4,5.2,5.2,0,0,1,.54,2.63h-4.82c0,1.16.61,2,1.71,2a1.38,1.38,0,0,0,1.43-1h1.67a2.85,2.85,0,0,1-3.11,2.2c-2.2,0-3.32-1.38-3.32-3.59A3.27,3.27,0,0,1,1131.25,108.56Zm-.08,1.15c-.88,0-1.55.57-1.64,1.73h3.24C1132.68,110.28,1132,109.71,1131.17,109.71Z" style="fill:#1d1d1b"/><path d="M1140.83,108.62a2.29,2.29,0,0,1,2,.9V106h1.57v9.53h-1.48v-.91a2.48,2.48,0,0,1-2.07,1c-1.74,0-2.87-1.29-2.87-3.53S1139.09,108.62,1140.83,108.62Zm.36,5.81c1,0,1.64-.85,1.64-2.31s-.61-2.3-1.61-2.3-1.63.88-1.63,2.3S1140.2,114.43,1141.19,114.43Z" style="fill:#1d1d1b"/><path d="M1149.08,108.56a2.77,2.77,0,0,1,2.58,1.4,5.2,5.2,0,0,1,.54,2.63h-4.81c0,1.16.6,2,1.7,2a1.38,1.38,0,0,0,1.43-1h1.67a2.85,2.85,0,0,1-3.11,2.2c-2.19,0-3.32-1.38-3.32-3.59A3.27,3.27,0,0,1,1149.08,108.56Zm-.08,1.15c-.88,0-1.55.57-1.64,1.73h3.24C1150.51,110.28,1149.85,109.71,1149,109.71Z" style="fill:#1d1d1b"/><path d="M1155.44,112.13c.2.67.36,1.33.53,2h.09c.16-.67.33-1.33.53-2l1-3.38h1.68l-2.36,6.77H1155l-2.37-6.77h1.75Z" style="fill:#1d1d1b"/><path d="M1161.9,107.58h-1.58V106h1.58Zm0,7.94h-1.58v-6.77h1.58Z" style="fill:#1d1d1b"/><path d="M1166.53,115.72c-2,0-3.24-1.43-3.24-3.59s1.23-3.58,3.24-3.58a2.67,2.67,0,0,1,3,2.55h-1.63a1.31,1.31,0,0,0-1.36-1.33c-1,0-1.6.92-1.6,2.34s.61,2.39,1.6,2.39a1.37,1.37,0,0,0,1.4-1.37h1.6A2.69,2.69,0,0,1,1166.53,115.72Z" style="fill:#1d1d1b"/><path d="M1173.68,108.56a2.8,2.8,0,0,1,2.59,1.4,5.31,5.31,0,0,1,.54,2.63H1172c0,1.16.6,2,1.71,2a1.39,1.39,0,0,0,1.43-1h1.66a2.85,2.85,0,0,1-3.11,2.2c-2.19,0-3.32-1.38-3.32-3.59A3.27,3.27,0,0,1,1173.68,108.56Zm-.08,1.15c-.88,0-1.55.57-1.64,1.73h3.25C1175.11,110.28,1174.46,109.71,1173.6,109.71Z" style="fill:#1d1d1b"/><path d="M1182.55,107.07v1.68h1.34V110h-1.34v3.18c0,.84.19,1.22.82,1.22a2.34,2.34,0,0,0,.53,0v1.21a3.83,3.83,0,0,1-1,.12c-1.35,0-1.91-.65-1.91-2.18V110h-1.09v-1.21H1181v-1.68Z" style="fill:#1d1d1b"/><path d="M1191.38,112.13a3.38,3.38,0,1,1-3.38-3.57A3.27,3.27,0,0,1,1191.38,112.13Zm-5.11,0c0,1.43.61,2.37,1.72,2.37s1.75-.91,1.75-2.37-.64-2.36-1.74-2.36S1186.27,110.68,1186.27,112.13Z" style="fill:#1d1d1b"/><path d="M1199.55,114.64a2.66,2.66,0,0,1-2.27,1c-1.51,0-2.35-.75-2.35-2,0-2.16,2.71-2.18,4.43-2.39V111c0-.84-.39-1.28-1.23-1.28s-1.33.41-1.34,1.14h-1.61c0-1.42,1.18-2.26,3-2.26,2.15,0,2.77,1.12,2.77,2.94v1.89a12.64,12.64,0,0,0,.14,2.13h-1.43A7.16,7.16,0,0,1,1199.55,114.64Zm-3-1c0,.57.4.94,1.13.94,1,0,1.68-.47,1.68-1.94v-.29C1198.18,112.5,1196.55,112.46,1196.55,113.62Z" style="fill:#1d1d1b"/><path d="M1208.05,115.72c-2,0-3.24-1.43-3.24-3.59s1.23-3.58,3.24-3.58a2.67,2.67,0,0,1,3,2.55h-1.63a1.31,1.31,0,0,0-1.36-1.33c-1,0-1.61.92-1.61,2.34s.62,2.39,1.61,2.39a1.37,1.37,0,0,0,1.4-1.37h1.6A2.69,2.69,0,0,1,1208.05,115.72Z" style="fill:#1d1d1b"/><path d="M1218.64,112.13a3.39,3.39,0,1,1-3.39-3.57A3.27,3.27,0,0,1,1218.64,112.13Zm-5.12,0c0,1.43.62,2.37,1.72,2.37s1.76-.91,1.76-2.37-.64-2.36-1.75-2.36S1213.52,110.68,1213.52,112.13Z" style="fill:#1d1d1b"/><path d="M1221.42,109.65a2.43,2.43,0,0,1,2.09-1,1.87,1.87,0,0,1,1.91,1.14,2.48,2.48,0,0,1,2.31-1.14,2,2,0,0,1,1.62.6,3.12,3.12,0,0,1,.57,2.06v4.24h-1.57v-4c0-.89-.21-1.72-1.14-1.72-1.13,0-1.45,1.08-1.45,2.37v3.33h-1.57v-4c0-.89-.24-1.72-1.17-1.72-1.12,0-1.43,1.08-1.43,2.37v3.33H1220v-6.77h1.41Z" style="fill:#1d1d1b"/><path d="M1235.21,115.65a2.27,2.27,0,0,1-2-.91v3.42h-1.58v-9.41h1.47v.9a2.53,2.53,0,0,1,2.12-1c1.73,0,2.82,1.37,2.82,3.51S1236.89,115.65,1235.21,115.65Zm-.38-5.81c-1,0-1.64.88-1.64,2.29s.62,2.31,1.61,2.31,1.65-.88,1.65-2.31S1235.83,109.84,1234.83,109.84Z" style="fill:#1d1d1b"/><path d="M1241.68,115.65a2.21,2.21,0,0,1-1.92-.92,3.83,3.83,0,0,1-.39-2.14v-3.84h1.56v3.79c0,1,.15,1.92,1.25,1.92a1.28,1.28,0,0,0,1.11-.53,2.82,2.82,0,0,0,.42-1.74v-3.44h1.58v6.77h-1.47v-.88A2.59,2.59,0,0,1,1241.68,115.65Z" style="fill:#1d1d1b"/><path d="M1249,107.07v1.68h1.34V110H1249v3.18c0,.84.18,1.22.81,1.22a2.37,2.37,0,0,0,.54,0v1.21a3.87,3.87,0,0,1-1,.12c-1.35,0-1.92-.65-1.92-2.18V110h-1.08v-1.21h1.08v-1.68Z" style="fill:#1d1d1b"/><path d="M1254.42,108.56A2.8,2.8,0,0,1,1257,110a5.31,5.31,0,0,1,.53,2.63h-4.81c0,1.16.6,2,1.7,2a1.39,1.39,0,0,0,1.44-1h1.66a2.85,2.85,0,0,1-3.11,2.2c-2.19,0-3.32-1.38-3.32-3.59A3.27,3.27,0,0,1,1254.42,108.56Zm-.08,1.15c-.88,0-1.55.57-1.64,1.73h3.24C1255.85,110.28,1255.2,109.71,1254.34,109.71Z" style="fill:#1d1d1b"/><path d="M1260.42,109.76a2,2,0,0,1,1.8-1.08,3.71,3.71,0,0,1,.74.07v1.36a3.36,3.36,0,0,0-.68-.06c-1.3,0-1.77.86-1.77,2.5v3h-1.57v-6.77h1.48Z" style="fill:#1d1d1b"/><path d="M1346.21,110.94c0,3-1.77,5-4.43,5s-4.41-2-4.41-5,1.74-5,4.42-5S1346.21,108,1346.21,110.94Zm-7.14,0c0,2.16,1.07,3.63,2.71,3.63s2.73-1.54,2.73-3.63-1-3.64-2.72-3.64S1339.07,108.79,1339.07,110.94Z" style="fill:#1d1d1b"/><path d="M1351.16,115.83a2.26,2.26,0,0,1-2-.9v3.41h-1.58v-9.41h1.47v.91a2.52,2.52,0,0,1,2.12-1c1.73,0,2.82,1.38,2.82,3.52S1352.84,115.83,1351.16,115.83Zm-.38-5.81c-1,0-1.64.88-1.64,2.3s.62,2.31,1.61,2.31,1.64-.88,1.64-2.31S1351.78,110,1350.78,110Z" style="fill:#1d1d1b"/><path d="M1358.29,108.75a2.78,2.78,0,0,1,2.58,1.39,5.24,5.24,0,0,1,.54,2.64h-4.82c0,1.15.61,2,1.71,2a1.37,1.37,0,0,0,1.43-1h1.66a2.84,2.84,0,0,1-3.1,2.21c-2.2,0-3.33-1.38-3.33-3.6A3.27,3.27,0,0,1,1358.29,108.75Zm-.08,1.14a1.64,1.64,0,0,0-1.64,1.73h3.24C1359.71,110.47,1359.06,109.89,1358.21,109.89Z" style="fill:#1d1d1b"/><path d="M1366.41,108.8a2,2,0,0,1,1.9.93,4.19,4.19,0,0,1,.41,2.09v3.88h-1.58v-3.78c0-1-.14-1.91-1.23-1.91s-1.54.65-1.54,2.27v3.42h-1.57v-6.77h1.46v.88A2.61,2.61,0,0,1,1366.41,108.8Z" style="fill:#1d1d1b"/><path d="M1380.87,115.7h-1.76l-.9-2.57h-3.8l-.88,2.57h-1.72l3.51-9.53h2Zm-4.5-8.16h-.08c-.28.89-.54,1.82-.87,2.72l-.55,1.49h2.89l-.53-1.49C1376.93,109.36,1376.62,108.43,1376.37,107.54Z" style="fill:#1d1d1b"/><path d="M1387.39,106.7c1.47.73,2.24,2.14,2.24,4.2a5.1,5.1,0,0,1-1,3.25,4.58,4.58,0,0,1-3.72,1.55h-3v-9.53h2.79A6,6,0,0,1,1387.39,106.7Zm-.42,6.88a3.38,3.38,0,0,0,.93-2.64,3.11,3.11,0,0,0-1.19-2.89,3.79,3.79,0,0,0-2.1-.5h-1v6.77h1A3.41,3.41,0,0,0,1387,113.58Z" style="fill:#1d1d1b"/><path d="M1396.75,106.65a2.21,2.21,0,0,1,1.07,2,2.13,2.13,0,0,1-1.77,2.16v0a2.11,2.11,0,0,1,2,2.23,2.31,2.31,0,0,1-1.34,2.22,6,6,0,0,1-2.63.39h-2.85v-9.53h2.91A5.37,5.37,0,0,1,1396.75,106.65Zm-.55,2.22c0-1.17-.94-1.34-2.1-1.34h-1.24v2.69H1394C1395,110.22,1396.2,110.09,1396.2,108.87Zm.13,4.09c0-1.14-.8-1.4-2.26-1.4h-1.21v2.8h1.27C1395.28,114.36,1396.33,114.17,1396.33,113Z" style="fill:#1d1d1b"/><path d="M1401.42,108.93h1.09v-.43c0-1.47.36-2.4,2.11-2.4a2.65,2.65,0,0,1,.8.09v1.21a2.12,2.12,0,0,0-.47,0c-.69,0-.87.39-.87,1.23v.34h1.34v1.21h-1.34v5.56h-1.57v-5.56h-1.09Z" style="fill:#1d1d1b"/><path d="M1408,109.94a2,2,0,0,1,1.8-1.07,3.8,3.8,0,0,1,.75.06v1.37a2.81,2.81,0,0,0-.68-.07c-1.3,0-1.77.87-1.77,2.51v3h-1.58v-6.77H1408Z" style="fill:#1d1d1b"/><path d="M1417.78,112.32a3.39,3.39,0,1,1-3.39-3.57A3.27,3.27,0,0,1,1417.78,112.32Zm-5.12,0c0,1.43.62,2.36,1.72,2.36s1.76-.91,1.76-2.36-.64-2.37-1.75-2.37S1412.66,110.86,1412.66,112.32Z" style="fill:#1d1d1b"/><path d="M1420.56,109.84a2.43,2.43,0,0,1,2.09-1,1.86,1.86,0,0,1,1.91,1.14,2.48,2.48,0,0,1,2.31-1.14,2.07,2.07,0,0,1,1.62.6,3.14,3.14,0,0,1,.57,2.06v4.24h-1.57v-4c0-.9-.21-1.72-1.14-1.72-1.13,0-1.45,1.07-1.45,2.36v3.33h-1.57v-4c0-.9-.24-1.72-1.17-1.72-1.11,0-1.43,1.07-1.43,2.36v3.33h-1.57v-6.77h1.41Z" style="fill:#1d1d1b"/><path d="M1433.49,117.15c.74,0,1.2-.44,1.31-1.38l-2.44-6.84h1.76l1,3.39c.2.67.33,1.31.53,2h.08c.17-.64.32-1.34.52-2l1.06-3.39H1439l-2.37,6.59c-.73,2.08-1.43,2.87-2.77,2.87a3.64,3.64,0,0,1-1-.08V117A1.91,1.91,0,0,0,1433.49,117.15Z" style="fill:#1d1d1b"/><path d="M1446.15,112.32a3.39,3.39,0,1,1-3.39-3.57A3.27,3.27,0,0,1,1446.15,112.32Zm-5.12,0c0,1.43.62,2.36,1.72,2.36s1.76-.91,1.76-2.36-.64-2.37-1.75-2.37S1441,110.86,1441,112.32Z" style="fill:#1d1d1b"/><path d="M1449.76,115.83a2.23,2.23,0,0,1-1.92-.91,3.76,3.76,0,0,1-.39-2.14v-3.85H1449v3.79c0,1,.14,1.92,1.25,1.92a1.28,1.28,0,0,0,1.11-.53,2.89,2.89,0,0,0,.42-1.74v-3.44h1.58v6.77h-1.47v-.88A2.6,2.6,0,0,1,1449.76,115.83Z" style="fill:#1d1d1b"/><path d="M1456.66,109.94a2,2,0,0,1,1.8-1.07,3.86,3.86,0,0,1,.75.06v1.37a2.88,2.88,0,0,0-.69-.07c-1.3,0-1.77.87-1.77,2.51v3h-1.57v-6.77h1.48Z" style="fill:#1d1d1b"/><path d="M1465.45,115.9c-2,0-3.24-1.43-3.24-3.58s1.23-3.59,3.24-3.59a2.67,2.67,0,0,1,3,2.55h-1.63a1.32,1.32,0,0,0-1.36-1.33c-1,0-1.6.92-1.6,2.34s.61,2.39,1.6,2.39a1.37,1.37,0,0,0,1.4-1.37h1.6A2.69,2.69,0,0,1,1465.45,115.9Z" style="fill:#1d1d1b"/><path d="M1476,112.32a3.39,3.39,0,1,1-3.39-3.57A3.27,3.27,0,0,1,1476,112.32Zm-5.12,0c0,1.43.62,2.36,1.72,2.36s1.76-.91,1.76-2.36-.64-2.37-1.75-2.37S1470.92,110.86,1470.92,112.32Z" style="fill:#1d1d1b"/><path d="M1478.82,109.84a2.43,2.43,0,0,1,2.09-1,1.86,1.86,0,0,1,1.91,1.14,2.48,2.48,0,0,1,2.31-1.14,2.06,2.06,0,0,1,1.62.6,3.14,3.14,0,0,1,.57,2.06v4.24h-1.57v-4c0-.9-.21-1.72-1.14-1.72-1.13,0-1.44,1.07-1.44,2.36v3.33h-1.58v-4c0-.9-.24-1.72-1.17-1.72-1.11,0-1.43,1.07-1.43,2.36v3.33h-1.57v-6.77h1.41Z" style="fill:#1d1d1b"/><path d="M1492.61,115.83a2.27,2.27,0,0,1-2-.9v3.41h-1.57v-9.41h1.47v.91a2.5,2.5,0,0,1,2.11-1c1.73,0,2.82,1.38,2.82,3.52S1494.29,115.83,1492.61,115.83Zm-.38-5.81c-1,0-1.64.88-1.64,2.3s.62,2.31,1.62,2.31,1.64-.88,1.64-2.31S1493.23,110,1492.23,110Z" style="fill:#1d1d1b"/><path d="M1499.08,115.83a2.21,2.21,0,0,1-1.91-.91,3.75,3.75,0,0,1-.4-2.14v-3.85h1.56v3.79c0,1,.15,1.92,1.25,1.92a1.3,1.3,0,0,0,1.12-.53,2.89,2.89,0,0,0,.42-1.74v-3.44h1.57v6.77h-1.47v-.88A2.58,2.58,0,0,1,1499.08,115.83Z" style="fill:#1d1d1b"/><path d="M1506.43,107.25v1.68h1.34v1.21h-1.34v3.19c0,.84.19,1.22.81,1.22a2.37,2.37,0,0,0,.54,0v1.2a3.83,3.83,0,0,1-1,.12c-1.35,0-1.91-.64-1.91-2.18v-3.5h-1.09v-1.21h1.09v-1.68Z" style="fill:#1d1d1b"/><path d="M1511.82,108.75a2.78,2.78,0,0,1,2.59,1.39,5.35,5.35,0,0,1,.54,2.64h-4.82c0,1.15.6,2,1.71,2a1.38,1.38,0,0,0,1.43-1h1.66a2.85,2.85,0,0,1-3.11,2.21c-2.19,0-3.32-1.38-3.32-3.6A3.27,3.27,0,0,1,1511.82,108.75Zm-.08,1.14c-.87,0-1.54.58-1.64,1.73h3.25C1513.25,110.47,1512.6,109.89,1511.74,109.89Z" style="fill:#1d1d1b"/><path d="M1517.82,109.94a2,2,0,0,1,1.8-1.07,3.86,3.86,0,0,1,.75.06v1.37a2.88,2.88,0,0,0-.69-.07c-1.3,0-1.77.87-1.77,2.51v3h-1.57v-6.77h1.48Z" style="fill:#1d1d1b"/><path d="M1410.09,266.28c.33.8,1.77,3.47,2.09,4.28h.06c.32-.81,1.83-3.5,2.19-4.28h1.78l-3.21,5.65v3.87h-1.66v-3.87l-3.18-5.65Zm12.15,6.14a3.39,3.39,0,1,1-3.38-3.57A3.27,3.27,0,0,1,1422.24,272.42Zm-5.12,0c0,1.43.62,2.36,1.72,2.36s1.76-.9,1.76-2.36-.64-2.36-1.74-2.36S1417.12,271,1417.12,272.42Zm8.73,3.52a2.23,2.23,0,0,1-1.92-.92,3.85,3.85,0,0,1-.39-2.14V269h1.56v3.8c0,1,.15,1.91,1.25,1.91a1.3,1.3,0,0,0,1.11-.52,2.88,2.88,0,0,0,.42-1.75V269h1.58v6.77H1428v-.88A2.57,2.57,0,0,1,1425.85,275.94Zm9.64-3.52c.15.64.25,1.36.37,2h.09c.12-.67.27-1.38.41-2l.78-3.38h2.2l.79,3.39c.14.64.25,1.36.39,2h.09c.11-.67.21-1.39.36-2l.72-3.39h1.48l-1.67,6.77h-2.12l-.75-3.39c-.14-.69-.27-1.42-.42-2.1h-.09c-.15.68-.29,1.41-.45,2.11l-.76,3.38h-2.07l-1.67-6.77h1.62Zm10.34-4.56h-1.57v-1.58h1.57Zm0,7.94h-1.57V269h1.57Zm3.39,0h-1.57v-9.52h1.57Zm3.39,0H1451v-9.52h1.58Zm8-6.9a2,2,0,0,1,1.9.93,4.09,4.09,0,0,1,.41,2.09v3.88h-1.58V272c0-1-.14-1.91-1.23-1.91s-1.53.66-1.53,2.27v3.42H1457V269h1.46v.88A2.62,2.62,0,0,1,1460.65,268.9Zm10.37,3.52a3.39,3.39,0,1,1-3.39-3.57A3.28,3.28,0,0,1,1471,272.42Zm-5.12,0c0,1.43.61,2.36,1.72,2.36s1.76-.9,1.76-2.36-.65-2.36-1.75-2.36S1465.9,271,1465.9,272.42Zm10.69,3.38H1475v-9.52h1.57Zm8.14-3.38a3.39,3.39,0,1,1-3.39-3.57A3.27,3.27,0,0,1,1484.73,272.42Zm-5.12,0c0,1.43.62,2.36,1.72,2.36s1.76-.9,1.76-2.36-.64-2.36-1.75-2.36S1479.61,271,1479.61,272.42Zm10.1-3.52a2,2,0,0,1,1.91.93,4.2,4.2,0,0,1,.4,2.09v3.88h-1.57V272c0-1-.14-1.91-1.23-1.91s-1.54.66-1.54,2.27v3.42h-1.57V269h1.45v.88A2.64,2.64,0,0,1,1489.71,268.9Zm6.47,0a2.29,2.29,0,0,1,2.08,1V269h1.44v5.8c0,2.25-.64,3.66-3.14,3.66-1.74,0-2.75-.74-2.9-2.16h1.63c0,.67.5,1,1.3,1,1.05,0,1.59-.59,1.59-2.08v-.69a2.47,2.47,0,0,1-2.08,1c-1.61,0-2.75-1.28-2.75-3.28S1494.48,268.9,1496.18,268.9Zm.37,5.47c1,0,1.6-.81,1.6-2.08s-.6-2.18-1.6-2.18-1.57.92-1.57,2.14S1495.59,274.37,1496.55,274.37Zm7.84-5.52a2.78,2.78,0,0,1,2.58,1.39,5.24,5.24,0,0,1,.54,2.64h-4.82c0,1.15.61,1.95,1.71,1.95a1.37,1.37,0,0,0,1.43-1.05h1.66a2.83,2.83,0,0,1-3.1,2.21c-2.2,0-3.33-1.38-3.33-3.6A3.27,3.27,0,0,1,1504.39,268.85Zm-.08,1.14a1.64,1.64,0,0,0-1.64,1.73h3.24C1505.82,270.57,1505.16,270,1504.31,270Zm6.07.05a2,2,0,0,1,1.8-1.07,3.86,3.86,0,0,1,.75.06v1.37a3.51,3.51,0,0,0-.69-.07c-1.29,0-1.77.87-1.77,2.51v3h-1.57V269h1.48Zm7.44,0a2,2,0,0,1,1.8-1.07,3.86,3.86,0,0,1,.75.06v1.37a3.41,3.41,0,0,0-.68-.07c-1.3,0-1.78.87-1.78,2.51v3h-1.57V269h1.48Zm6.38-1.19a2.77,2.77,0,0,1,2.58,1.39,5.24,5.24,0,0,1,.54,2.64h-4.81c0,1.15.6,1.95,1.7,1.95a1.37,1.37,0,0,0,1.43-1.05h1.67a2.85,2.85,0,0,1-3.11,2.21c-2.19,0-3.32-1.38-3.32-3.6A3.26,3.26,0,0,1,1524.2,268.85Zm-.08,1.14a1.64,1.64,0,0,0-1.64,1.73h3.24C1525.63,270.57,1525,270,1524.12,270Zm7.41,6c-2,0-3.24-1.43-3.24-3.58s1.24-3.58,3.24-3.58a2.67,2.67,0,0,1,3,2.54h-1.62a1.32,1.32,0,0,0-1.37-1.32c-1,0-1.6.92-1.6,2.33s.62,2.39,1.6,2.39a1.37,1.37,0,0,0,1.41-1.36h1.6A2.69,2.69,0,0,1,1531.53,276Zm7.16-7.15a2.77,2.77,0,0,1,2.58,1.39,5.24,5.24,0,0,1,.54,2.64H1537c0,1.15.61,1.95,1.71,1.95a1.37,1.37,0,0,0,1.43-1.05h1.67a2.85,2.85,0,0,1-3.11,2.21c-2.2,0-3.32-1.38-3.32-3.6A3.26,3.26,0,0,1,1538.69,268.85Zm-.08,1.14a1.64,1.64,0,0,0-1.64,1.73h3.24C1540.12,270.57,1539.46,270,1538.61,270Zm6.16-2.13h-1.57v-1.58h1.57Zm0,7.94h-1.57V269h1.57Zm3.78-3.38c.2.67.36,1.32.53,2h.09c.16-.67.33-1.32.53-2l1-3.39h1.68l-2.36,6.77h-1.91l-2.37-6.77h1.75Zm7.65-3.57a2.78,2.78,0,0,1,2.59,1.39,5.24,5.24,0,0,1,.54,2.64h-4.82c0,1.15.6,1.95,1.71,1.95a1.38,1.38,0,0,0,1.43-1.05h1.66a2.85,2.85,0,0,1-3.11,2.21c-2.19,0-3.32-1.38-3.32-3.6A3.27,3.27,0,0,1,1556.2,268.85Zm-.08,1.14c-.87,0-1.54.58-1.64,1.73h3.25C1557.63,270.57,1557,270,1556.12,270Zm8.94-2.64V269h1.34v1.21h-1.34v3.19c0,.84.18,1.22.81,1.22a2.37,2.37,0,0,0,.54,0v1.2a3.45,3.45,0,0,1-1,.12c-1.35,0-1.91-.64-1.91-2.18v-3.5h-1.09V269h1.09v-1.68Zm4.12,2.52a2.33,2.33,0,0,1,2-1,2.19,2.19,0,0,1,1.92.92,3.61,3.61,0,0,1,.38,2.1v3.88H1572V272c0-1-.14-1.91-1.23-1.91s-1.54.66-1.54,2.27v3.42h-1.57v-9.52h1.57Zm9-1a2.78,2.78,0,0,1,2.59,1.39,5.24,5.24,0,0,1,.54,2.64h-4.82c0,1.15.6,1.95,1.71,1.95a1.38,1.38,0,0,0,1.43-1.05h1.66a2.85,2.85,0,0,1-3.11,2.21c-2.19,0-3.32-1.38-3.32-3.6A3.27,3.27,0,0,1,1578.14,268.85Zm-.08,1.14c-.87,0-1.54.58-1.64,1.73h3.25C1579.57,270.57,1578.92,270,1578.06,270Zm13.55,2.43a3.39,3.39,0,1,1-3.39-3.57A3.28,3.28,0,0,1,1591.61,272.42Zm-5.12,0c0,1.43.62,2.36,1.72,2.36s1.76-.9,1.76-2.36-.65-2.36-1.75-2.36S1586.49,271,1586.49,272.42Zm8.32,3.38h-1.58v-5.56h-1.09V269h1.09v-.43c0-1.47.37-2.4,2.12-2.4a2.65,2.65,0,0,1,.8.09v1.21a2.16,2.16,0,0,0-.48,0c-.68,0-.86.39-.86,1.23V269h2.43v-.43c0-1.47.36-2.4,2.11-2.4a2.65,2.65,0,0,1,.8.09v1.21a2.12,2.12,0,0,0-.47,0c-.69,0-.87.39-.87,1.23V269h1.34v1.21h-1.34v5.56h-1.57v-5.56h-2.43Zm7.66-7.94h-1.57v-1.58h1.57Zm0,7.94h-1.57V269h1.57Zm4.63.2c-2,0-3.24-1.43-3.24-3.58s1.24-3.58,3.24-3.58a2.67,2.67,0,0,1,3,2.54h-1.62a1.32,1.32,0,0,0-1.37-1.32c-1,0-1.6.92-1.6,2.33s.62,2.39,1.6,2.39a1.35,1.35,0,0,0,1.4-1.36h1.61A2.69,2.69,0,0,1,1607.1,276Zm5.84-8.14h-1.57v-1.58h1.57Zm0,7.94h-1.57V269h1.57Zm6-.88a2.61,2.61,0,0,1-2.27,1c-1.51,0-2.35-.75-2.35-2,0-2.17,2.72-2.18,4.44-2.39v-.29c0-.84-.39-1.29-1.23-1.29s-1.33.41-1.34,1.15h-1.62c.06-1.42,1.18-2.26,3-2.26,2.15,0,2.76,1.11,2.76,2.94v1.89a12.45,12.45,0,0,0,.15,2.12H1619C1618.94,275.54,1618.93,275.28,1618.91,274.92Zm-3-1c0,.58.39,1,1.13,1,1,0,1.68-.48,1.68-2v-.28C1617.55,272.79,1615.92,272.75,1615.92,273.9Zm7.63,1.9H1622v-9.52h1.58Zm12.91-4.76c0,3-1.77,5-4.44,5s-4.41-2-4.41-5,1.75-5,4.43-5S1636.46,268.09,1636.46,271Zm-7.14,0c0,2.17,1.06,3.64,2.7,3.64s2.73-1.55,2.73-3.64-1-3.63-2.71-3.63S1629.32,268.89,1629.32,271Zm7.39-4.76h7.53v1.38h-2.93v8.14h-1.68v-8.14h-2.92Zm15.73,9.52h-1.76l-.9-2.57H1646l-.88,2.57h-1.71l3.5-9.52h2Zm-4.5-8.16h-.08c-.28.89-.54,1.83-.87,2.72l-.55,1.49h2.89l-.53-1.49C1648.5,269.47,1648.19,268.53,1647.94,267.64Zm9.88,8.3a2.23,2.23,0,0,1-1.92-.92,3.85,3.85,0,0,1-.39-2.14V269h1.56v3.8c0,1,.15,1.91,1.25,1.91a1.3,1.3,0,0,0,1.11-.52,2.88,2.88,0,0,0,.42-1.75V269h1.58v6.77H1660v-.88A2.57,2.57,0,0,1,1657.82,275.94Zm9,0a2.28,2.28,0,0,1-2-.91v3.41h-1.57V269h1.47v.91a2.5,2.5,0,0,1,2.11-1c1.73,0,2.82,1.38,2.82,3.52S1668.47,275.94,1666.8,275.94Zm-.39-5.82c-1,0-1.64.88-1.64,2.3s.62,2.31,1.62,2.31,1.64-.88,1.64-2.31S1667.41,270.12,1666.41,270.12Zm7.06-1.22a2.28,2.28,0,0,1,2,.91v-3.53H1677v9.52h-1.48v-.9a2.51,2.51,0,0,1-2.08,1c-1.73,0-2.86-1.29-2.86-3.53S1671.74,268.9,1673.47,268.9Zm.37,5.81c1,0,1.64-.85,1.64-2.3s-.62-2.3-1.61-2.3-1.63.88-1.63,2.3S1672.84,274.71,1673.84,274.71Zm9.16.21a2.62,2.62,0,0,1-2.27,1c-1.51,0-2.35-.75-2.35-2,0-2.17,2.72-2.18,4.44-2.39v-.29c0-.84-.4-1.29-1.24-1.29s-1.32.41-1.34,1.15h-1.61c0-1.42,1.18-2.26,2.95-2.26,2.16,0,2.77,1.11,2.77,2.94v1.89a12.45,12.45,0,0,0,.15,2.12h-1.43A6.83,6.83,0,0,1,1683,274.92Zm-3-1c0,.58.39,1,1.13,1,1,0,1.68-.48,1.68-2v-.28C1681.64,272.79,1680,272.75,1680,273.9Zm7.87-6.55V269h1.34v1.21h-1.34v3.19c0,.84.19,1.22.82,1.22a2.34,2.34,0,0,0,.53,0v1.2a3.45,3.45,0,0,1-1,.12c-1.35,0-1.91-.64-1.91-2.18v-3.5h-1.09V269h1.09v-1.68Zm5.38,1.5a2.79,2.79,0,0,1,2.59,1.39,5.35,5.35,0,0,1,.54,2.64h-4.82c0,1.15.6,1.95,1.71,1.95a1.38,1.38,0,0,0,1.43-1.05h1.66a2.85,2.85,0,0,1-3.11,2.21c-2.19,0-3.32-1.38-3.32-3.6A3.27,3.27,0,0,1,1693.26,268.85Zm-.08,1.14c-.88,0-1.54.58-1.64,1.73h3.24C1694.69,270.57,1694,270,1693.18,270Zm7.15,4.87c.75,0,1.24-.32,1.24-.84,0-.68-.75-.85-1.63-1.06-1.15-.28-2.52-.58-2.52-2.06,0-1.24,1.09-2,2.82-2s2.81.77,2.81,2.26h-1.56c0-.8-.45-1.13-1.3-1.13s-1.14.3-1.14.79c0,.72,1,.9,2,1.15s2.14.67,2.14,2-1.11,2.1-2.88,2.1c-1.93,0-3-.82-3-2.35h1.61C1698.89,274.45,1699.38,274.86,1700.33,274.86Z" style="fill:#1d1d1b"/><path d="M1595.81,54.29c-2,0-3.25-1.43-3.25-3.58s1.24-3.58,3.25-3.58a2.68,2.68,0,0,1,3,2.54h-1.63a1.32,1.32,0,0,0-1.37-1.32c-1,0-1.6.92-1.6,2.33s.62,2.39,1.6,2.39a1.37,1.37,0,0,0,1.41-1.36h1.6A2.69,2.69,0,0,1,1595.81,54.29Z" style="fill:#1d1d1b"/><path d="M1606.4,50.71a3.39,3.39,0,1,1-6.76,0,3.39,3.39,0,1,1,6.76,0Zm-5.12,0c0,1.43.61,2.36,1.72,2.36s1.76-.9,1.76-2.36-.65-2.36-1.75-2.36S1601.28,49.25,1601.28,50.71Z" style="fill:#1d1d1b"/><path d="M1609.18,48.23a2.42,2.42,0,0,1,2.08-1,1.89,1.89,0,0,1,1.92,1.14,2.5,2.5,0,0,1,2.31-1.14,2,2,0,0,1,1.61.61,3.05,3.05,0,0,1,.58,2.06v4.23h-1.57v-4c0-.89-.21-1.72-1.15-1.72-1.12,0-1.44,1.08-1.44,2.36v3.33H1612v-4c0-.89-.24-1.72-1.17-1.72-1.12,0-1.43,1.08-1.43,2.36v3.33h-1.58V47.32h1.42Z" style="fill:#1d1d1b"/><path d="M1620.82,48.23a2.42,2.42,0,0,1,2.08-1,1.89,1.89,0,0,1,1.92,1.14,2.48,2.48,0,0,1,2.31-1.14,2,2,0,0,1,1.61.61,3.05,3.05,0,0,1,.58,2.06v4.23h-1.57v-4c0-.89-.21-1.72-1.15-1.72-1.13,0-1.44,1.08-1.44,2.36v3.33h-1.57v-4c0-.89-.24-1.72-1.17-1.72-1.12,0-1.43,1.08-1.43,2.36v3.33h-1.58V47.32h1.42Z" style="fill:#1d1d1b"/><path d="M1635.21,53.22a2.64,2.64,0,0,1-2.27,1c-1.51,0-2.35-.75-2.35-2,0-2.17,2.72-2.18,4.44-2.39v-.29c0-.84-.4-1.29-1.24-1.29s-1.32.41-1.33,1.15h-1.62c.05-1.42,1.18-2.26,3-2.26,2.16,0,2.77,1.11,2.77,2.94V52a12.45,12.45,0,0,0,.15,2.12h-1.43A6.81,6.81,0,0,1,1635.21,53.22Zm-3-1c0,.58.39,1,1.13,1,1,0,1.68-.48,1.68-2v-.28C1633.85,51.08,1632.22,51,1632.22,52.19Z" style="fill:#1d1d1b"/><path d="M1641.88,47.19a2,2,0,0,1,1.9.93,4.19,4.19,0,0,1,.41,2.09v3.88h-1.58V50.32c0-1-.14-1.92-1.23-1.92s-1.54.66-1.54,2.27v3.42h-1.57V47.32h1.45v.88A2.64,2.64,0,0,1,1641.88,47.19Z" style="fill:#1d1d1b"/><path d="M1648.36,47.19a2.29,2.29,0,0,1,2,.91V44.57h1.58v9.52h-1.49v-.9a2.48,2.48,0,0,1-2.07,1c-1.73,0-2.86-1.29-2.86-3.53S1646.63,47.19,1648.36,47.19Zm.37,5.82c1,0,1.64-.86,1.64-2.31s-.62-2.3-1.62-2.3-1.63.88-1.63,2.3S1647.73,53,1648.73,53Z" style="fill:#1d1d1b"/><path d="M1656.52,44.57h1l-.67,2.06h.67v1.68h-1.76V46.47Zm2.38,0h.95l-.67,2.06h.67v1.68h-1.75V46.47Z" style="fill:#1d1d1b"/><path d="M1669,54.09h-1.76l-.91-2.57h-3.79l-.88,2.57h-1.72l3.51-9.52h2Zm-4.5-8.16h-.08c-.28.9-.54,1.83-.87,2.72l-.55,1.49h2.89l-.53-1.49C1665,47.76,1664.7,46.83,1664.45,45.93Z" style="fill:#1d1d1b"/><path d="M1675.47,45.09a4.28,4.28,0,0,1,2.24,4.2,5.14,5.14,0,0,1-1,3.26,4.61,4.61,0,0,1-3.72,1.54h-3V44.57h2.79A6.17,6.17,0,0,1,1675.47,45.09Zm-.42,6.88a3.38,3.38,0,0,0,.93-2.64,3.12,3.12,0,0,0-1.19-2.89,3.88,3.88,0,0,0-2.1-.49h-1v6.77h1A3.41,3.41,0,0,0,1675.05,52Z" style="fill:#1d1d1b"/><path d="M1684.82,45a2.21,2.21,0,0,1,1.08,2,2.12,2.12,0,0,1-1.77,2.16v0a2.11,2.11,0,0,1,2,2.23,2.31,2.31,0,0,1-1.34,2.22,6,6,0,0,1-2.63.39h-2.86V44.57h2.92A5.43,5.43,0,0,1,1684.82,45Zm-.55,2.22c0-1.17-.93-1.34-2.1-1.34h-1.23v2.69h1.18C1683,48.61,1684.27,48.48,1684.27,47.26Zm.13,4.09c0-1.14-.8-1.4-2.25-1.4h-1.21v2.81h1.27C1683.36,52.76,1684.4,52.56,1684.4,51.35Z" style="fill:#1d1d1b"/><path d="M1691.65,48.33a2,2,0,0,1,1.8-1.07,3.7,3.7,0,0,1,.74.06v1.37a3.41,3.41,0,0,0-.68-.07c-1.3,0-1.77.87-1.77,2.51v3h-1.58V47.32h1.49Z" style="fill:#1d1d1b"/><path d="M1698,47.14a2.77,2.77,0,0,1,2.58,1.39,5.24,5.24,0,0,1,.54,2.64h-4.81c0,1.15.6,1.95,1.7,1.95a1.37,1.37,0,0,0,1.43-1h1.67a2.85,2.85,0,0,1-3.11,2.21c-2.19,0-3.32-1.38-3.32-3.6A3.26,3.26,0,0,1,1698,47.14Zm-.08,1.14a1.64,1.64,0,0,0-1.64,1.73h3.24C1699.47,48.86,1698.81,48.28,1698,48.28Z" style="fill:#1d1d1b"/><path d="M1706.11,54.23a2.54,2.54,0,0,1-2.09-1v.89h-1.47V44.57h1.58v3.54a2.37,2.37,0,0,1,2-.92c1.74,0,2.83,1.34,2.83,3.51S1707.78,54.23,1706.11,54.23Zm-.41-5.83c-1,0-1.61.93-1.61,2.3s.64,2.31,1.64,2.31,1.61-.9,1.61-2.31S1706.74,48.4,1705.7,48.4Z" style="fill:#1d1d1b"/><path d="M1716.67,50.71a3.39,3.39,0,1,1-6.76,0,3.39,3.39,0,1,1,6.76,0Zm-5.12,0c0,1.43.62,2.36,1.72,2.36s1.76-.9,1.76-2.36-.64-2.36-1.74-2.36S1711.55,49.25,1711.55,50.71Z" style="fill:#1d1d1b"/><path d="M1724.37,50.71a3.38,3.38,0,1,1-6.75,0,3.38,3.38,0,1,1,6.75,0Zm-5.11,0c0,1.43.61,2.36,1.71,2.36s1.76-.9,1.76-2.36-.64-2.36-1.74-2.36S1719.26,49.25,1719.26,50.71Z" style="fill:#1d1d1b"/><path d="M1727.56,45.64v1.68h1.34v1.21h-1.34v3.19c0,.84.19,1.22.82,1.22a2.34,2.34,0,0,0,.53,0v1.2a3.45,3.45,0,0,1-1,.12c-1.35,0-1.91-.64-1.91-2.18v-3.5h-1.09V47.32H1726V45.64Z" style="fill:#1d1d1b"/><path d="M1736.29,54.23a2.54,2.54,0,0,1-2.09-1v.89h-1.47V44.57h1.58v3.54a2.37,2.37,0,0,1,2-.92c1.74,0,2.83,1.34,2.83,3.51S1738,54.23,1736.29,54.23Zm-.41-5.83c-1,0-1.61.93-1.61,2.3s.64,2.31,1.64,2.31,1.61-.9,1.61-2.31S1736.92,48.4,1735.88,48.4Z" style="fill:#1d1d1b"/><path d="M1746.85,50.71a3.39,3.39,0,1,1-6.76,0,3.39,3.39,0,1,1,6.76,0Zm-5.12,0c0,1.43.62,2.36,1.72,2.36s1.76-.9,1.76-2.36-.64-2.36-1.75-2.36S1741.73,49.25,1741.73,50.71Z" style="fill:#1d1d1b"/><path d="M1754.55,50.71a3.38,3.38,0,1,1-6.75,0,3.38,3.38,0,1,1,6.75,0Zm-5.11,0c0,1.43.61,2.36,1.72,2.36s1.75-.9,1.75-2.36-.64-2.36-1.74-2.36S1749.44,49.25,1749.44,50.71Z" style="fill:#1d1d1b"/><path d="M1757.73,45.64v1.68h1.34v1.21h-1.34v3.19c0,.84.18,1.22.81,1.22a2.37,2.37,0,0,0,.54,0v1.2a3.45,3.45,0,0,1-1,.12c-1.35,0-1.92-.64-1.92-2.18v-3.5h-1.08V47.32h1.08V45.64Z" style="fill:#1d1d1b"/><path d="M1761.85,54.09h-1.57V44.57h1.57Z" style="fill:#1d1d1b"/><path d="M1770,50.71a3.38,3.38,0,1,1-6.75,0,3.38,3.38,0,1,1,6.75,0Zm-5.11,0c0,1.43.61,2.36,1.72,2.36s1.75-.9,1.75-2.36-.64-2.36-1.74-2.36S1764.87,49.25,1764.87,50.71Z" style="fill:#1d1d1b"/><path d="M1775.52,53.22a2.63,2.63,0,0,1-2.27,1c-1.51,0-2.35-.75-2.35-2,0-2.17,2.72-2.18,4.44-2.39v-.29c0-.84-.39-1.29-1.23-1.29s-1.33.41-1.34,1.15h-1.62c.06-1.42,1.18-2.26,3-2.26,2.15,0,2.77,1.11,2.77,2.94V52a12.45,12.45,0,0,0,.14,2.12h-1.43C1775.55,53.83,1775.54,53.57,1775.52,53.22Zm-3-1c0,.58.39,1,1.13,1,1,0,1.68-.48,1.68-2v-.28C1774.16,51.08,1772.53,51,1772.53,52.19Z" style="fill:#1d1d1b"/><path d="M1781,47.19a2.29,2.29,0,0,1,2,.91V44.57h1.58v9.52h-1.49v-.9a2.48,2.48,0,0,1-2.07,1c-1.73,0-2.86-1.29-2.86-3.53S1779.29,47.19,1781,47.19Zm.37,5.82c1,0,1.64-.86,1.64-2.31s-.62-2.3-1.62-2.3-1.62.88-1.62,2.3S1780.39,53,1781.39,53Z" style="fill:#1d1d1b"/><path d="M1789.27,47.14a2.78,2.78,0,0,1,2.59,1.39,5.24,5.24,0,0,1,.54,2.64h-4.82c0,1.15.6,1.95,1.71,1.95a1.38,1.38,0,0,0,1.43-1h1.66a2.85,2.85,0,0,1-3.11,2.21c-2.19,0-3.32-1.38-3.32-3.6A3.27,3.27,0,0,1,1789.27,47.14Zm-.07,1.14c-.89,0-1.55.58-1.65,1.73h3.24C1790.7,48.86,1790.05,48.28,1789.2,48.28Z" style="fill:#1d1d1b"/><path d="M1795.27,48.33a2,2,0,0,1,1.8-1.07,3.86,3.86,0,0,1,.75.06v1.37a3.51,3.51,0,0,0-.69-.07c-1.3,0-1.77.87-1.77,2.51v3h-1.57V47.32h1.48Z" style="fill:#1d1d1b"/><path d="M1799.57,48.31h-1l.67-2.06h-.67V44.57h1.76v1.84Zm2.38,0h-1l.67-2.06H1801V44.57h1.76v1.84Z" style="fill:#1d1d1b"/><path d="M1597.24,116.16c-2,0-3.24-1.43-3.24-3.58s1.23-3.58,3.24-3.58a2.68,2.68,0,0,1,3,2.54h-1.63a1.32,1.32,0,0,0-1.37-1.32c-1,0-1.6.92-1.6,2.33s.62,2.39,1.6,2.39a1.37,1.37,0,0,0,1.41-1.36h1.6A2.69,2.69,0,0,1,1597.24,116.16Zm10.59-3.58a3.39,3.39,0,1,1-3.39-3.57A3.28,3.28,0,0,1,1607.83,112.58Zm-5.12,0c0,1.43.62,2.36,1.72,2.36s1.76-.9,1.76-2.36-.65-2.36-1.75-2.36S1602.71,111.12,1602.71,112.58Zm7.9-2.48a2.42,2.42,0,0,1,2.08-1,1.89,1.89,0,0,1,1.92,1.14,2.5,2.5,0,0,1,2.31-1.14,2,2,0,0,1,1.61.61,3.05,3.05,0,0,1,.58,2.06V116h-1.57v-4c0-.89-.21-1.72-1.14-1.72-1.13,0-1.45,1.08-1.45,2.36V116h-1.57v-4c0-.89-.24-1.72-1.17-1.72-1.12,0-1.43,1.08-1.43,2.36V116h-1.58v-6.78h1.42Zm11.64,0a2.42,2.42,0,0,1,2.08-1,1.89,1.89,0,0,1,1.92,1.14,2.48,2.48,0,0,1,2.31-1.14,2,2,0,0,1,1.61.61,3.05,3.05,0,0,1,.58,2.06V116h-1.57v-4c0-.89-.21-1.72-1.15-1.72-1.12,0-1.44,1.08-1.44,2.36V116H1625v-4c0-.89-.24-1.72-1.17-1.72-1.12,0-1.43,1.08-1.43,2.36V116h-1.58v-6.78h1.42Zm14.39,5a2.64,2.64,0,0,1-2.27,1c-1.51,0-2.35-.75-2.35-2,0-2.17,2.72-2.18,4.44-2.39v-.29a1.11,1.11,0,0,0-1.24-1.28c-.85,0-1.32.4-1.33,1.14h-1.62c0-1.42,1.18-2.26,3-2.26,2.16,0,2.77,1.12,2.77,2.94v1.89a12.64,12.64,0,0,0,.15,2.13h-1.43C1636.67,115.7,1636.66,115.44,1636.64,115.09Zm-3-1c0,.58.39,1,1.13,1,1,0,1.68-.48,1.68-2v-.28C1635.28,113,1633.65,112.91,1633.65,114.06Zm9.66-5a2,2,0,0,1,1.9.93,4.09,4.09,0,0,1,.41,2.09V116H1644v-3.78c0-1-.14-1.92-1.23-1.92s-1.54.66-1.54,2.27V116h-1.57v-6.78h1.46v.88A2.61,2.61,0,0,1,1643.31,109.06Zm6.48,0a2.29,2.29,0,0,1,2,.91v-3.53h1.58V116h-1.49v-.91a2.48,2.48,0,0,1-2.07,1c-1.73,0-2.86-1.29-2.86-3.53S1648.06,109.06,1649.79,109.06Zm.37,5.82c1,0,1.64-.86,1.64-2.31s-.62-2.3-1.62-2.3-1.62.88-1.62,2.3S1649.16,114.88,1650.16,114.88Zm7.78-8.44h1l-.67,2.06h.67v1.68h-1.76v-1.84Zm2.37,0h1l-.67,2.06h.67v1.68h-1.76v-1.84Zm8.73,1.38h-4.45v2.91h4.14v1.38h-4.14V116h-1.66v-9.53H1669Zm5.2,7.27a2.66,2.66,0,0,1-2.27,1c-1.51,0-2.35-.75-2.35-2,0-2.17,2.71-2.18,4.43-2.39v-.29c0-.84-.39-1.28-1.23-1.28s-1.33.4-1.34,1.14h-1.61c.05-1.42,1.18-2.26,3-2.26,2.15,0,2.77,1.12,2.77,2.94v1.89a12.64,12.64,0,0,0,.14,2.13h-1.43A7.31,7.31,0,0,1,1674.24,115.09Zm-3-1c0,.58.4,1,1.13,1,1,0,1.68-.48,1.68-2v-.28C1672.87,113,1671.24,112.91,1671.24,114.06Zm8.61,1c.75,0,1.24-.31,1.24-.84,0-.68-.75-.85-1.63-1.06-1.16-.28-2.52-.58-2.52-2.06,0-1.24,1.09-2,2.82-2s2.81.77,2.81,2.26H1681c0-.8-.45-1.13-1.3-1.13s-1.14.3-1.14.79c0,.72,1,.9,2,1.15s2.14.67,2.14,2-1.1,2.1-2.87,2.1c-1.93,0-3-.81-3-2.35h1.61C1678.41,114.61,1678.89,115,1679.85,115Zm6-7.51v1.68h1.33v1.21h-1.33v3.19c0,.84.18,1.22.81,1.22a2.42,2.42,0,0,0,.54,0V116a3.91,3.91,0,0,1-1,.11c-1.35,0-1.92-.64-1.92-2.18v-3.5h-1.09v-1.21h1.09v-1.68Zm6.1,8.59a2.54,2.54,0,0,1-2.09-1v.9h-1.47v-9.53H1690V110a2.37,2.37,0,0,1,2-.92c1.74,0,2.83,1.34,2.83,3.51S1693.64,116.1,1692,116.1Zm-.41-5.83c-1,0-1.61.93-1.61,2.3s.64,2.31,1.64,2.31,1.61-.9,1.61-2.31S1692.61,110.27,1691.57,110.27Zm11,2.31a3.39,3.39,0,1,1-3.38-3.57A3.27,3.27,0,0,1,1702.54,112.58Zm-5.12,0c0,1.43.62,2.36,1.72,2.36s1.76-.9,1.76-2.36-.64-2.36-1.74-2.36S1697.42,111.12,1697.42,112.58Zm12.82,0a3.38,3.38,0,1,1-3.38-3.57A3.27,3.27,0,0,1,1710.24,112.58Zm-5.11,0c0,1.43.61,2.36,1.71,2.36s1.76-.9,1.76-2.36-.64-2.36-1.74-2.36S1705.13,111.12,1705.13,112.58Zm8.29-5.07v1.68h1.34v1.21h-1.34v3.19c0,.84.18,1.22.81,1.22a2.37,2.37,0,0,0,.54,0V116a3.86,3.86,0,0,1-1,.11c-1.35,0-1.92-.64-1.92-2.18v-3.5h-1.09v-1.21h1.09v-1.68Zm4.5,1.68H1719v-.43c0-1.47.37-2.4,2.11-2.4a2.62,2.62,0,0,1,.8.09v1.21a2.07,2.07,0,0,0-.47,0c-.68,0-.87.39-.87,1.23v.34h1.34v1.21h-1.34V116H1719V110.4h-1.09Zm6.32,6.78h-1.57v-9.53h1.57Zm6-.88a2.66,2.66,0,0,1-2.27,1c-1.51,0-2.35-.75-2.35-2,0-2.17,2.71-2.18,4.43-2.39v-.29c0-.84-.39-1.28-1.23-1.28s-1.33.4-1.34,1.14h-1.61c.05-1.42,1.18-2.26,3-2.26,2.15,0,2.77,1.12,2.77,2.94v1.89a12.64,12.64,0,0,0,.14,2.13h-1.43A7.31,7.31,0,0,1,1730.22,115.09Zm-3-1c0,.58.4,1,1.13,1,1,0,1.68-.48,1.68-2v-.28C1728.85,113,1727.22,112.91,1727.22,114.06Zm8.61,1c.75,0,1.23-.31,1.23-.84,0-.68-.74-.85-1.62-1.06-1.16-.28-2.52-.58-2.52-2.06,0-1.24,1.09-2,2.82-2s2.81.77,2.81,2.26H1737c0-.8-.45-1.13-1.3-1.13s-1.14.3-1.14.79c0,.72,1,.9,2,1.15s2.14.67,2.14,2-1.1,2.1-2.87,2.1c-1.93,0-3-.81-3-2.35h1.62C1734.39,114.61,1734.87,115,1735.83,115Zm5.76-5a2.33,2.33,0,0,1,2-1,2.17,2.17,0,0,1,1.92.92,3.6,3.6,0,0,1,.39,2.1V116h-1.58v-3.78c0-1-.14-1.92-1.23-1.92s-1.54.66-1.54,2.27V116H1740v-9.53h1.57Zm7.65-2h-1.57v-1.59h1.57Zm0,7.94h-1.57v-6.78h1.57Zm5.42-6.91a2,2,0,0,1,1.9.93,4.09,4.09,0,0,1,.41,2.09V116h-1.57v-3.78c0-1-.15-1.92-1.24-1.92s-1.53.66-1.53,2.27V116h-1.58v-6.78h1.46v.88A2.62,2.62,0,0,1,1754.66,109.06Zm6.47,0a2.26,2.26,0,0,1,2.07,1v-.88h1.45V115c0,2.25-.65,3.67-3.14,3.67-1.74,0-2.75-.75-2.9-2.17h1.63c0,.67.5,1,1.3,1,1,0,1.58-.59,1.58-2.08v-.69a2.42,2.42,0,0,1-2.07,1c-1.61,0-2.75-1.27-2.75-3.28S1759.42,109.06,1761.13,109.06Zm.37,5.47c.94,0,1.6-.81,1.6-2.08s-.6-2.18-1.6-2.18-1.58.92-1.58,2.14S1760.54,114.53,1761.5,114.53Zm9.8,1.57a2.21,2.21,0,0,1-1.92-.92A3.85,3.85,0,0,1,1769,113v-3.85h1.56V113c0,1,.15,1.91,1.25,1.91a1.3,1.3,0,0,0,1.11-.52,2.88,2.88,0,0,0,.42-1.75v-3.44h1.58V116h-1.47v-.88A2.59,2.59,0,0,1,1771.3,116.1Zm9-7a2,2,0,0,1,1.9.93,4.09,4.09,0,0,1,.41,2.09V116h-1.58v-3.78c0-1-.14-1.92-1.23-1.92s-1.54.66-1.54,2.27V116h-1.57v-6.78h1.46v.88A2.61,2.61,0,0,1,1780.33,109.06Zm5.61,6.91h-1.57v-9.53h1.57Zm8.14-3.39a3.39,3.39,0,1,1-3.39-3.57A3.27,3.27,0,0,1,1794.08,112.58Zm-5.12,0c0,1.43.62,2.36,1.72,2.36s1.76-.9,1.76-2.36-.64-2.36-1.75-2.36S1789,111.12,1789,112.58Zm9.32,3.58c-2,0-3.24-1.43-3.24-3.58s1.23-3.58,3.24-3.58a2.67,2.67,0,0,1,3,2.54h-1.63a1.31,1.31,0,0,0-1.36-1.32c-1,0-1.61.92-1.61,2.33s.62,2.39,1.61,2.39a1.37,1.37,0,0,0,1.4-1.36h1.6A2.69,2.69,0,0,1,1798.28,116.16Zm5.84-4.16,2.29-2.81h1.88l-2.6,3,2.88,3.74h-2l-2.48-3.36V116h-1.58v-9.53h1.58Zm5.9-1.82h-1l.67-2.06h-.67v-1.68h1.76v1.84Zm2.38,0h-1l.67-2.06h-.67v-1.68h1.76v1.84Z" style="fill:#1d1d1b"/><path d="M1597.24,177.13c-2,0-3.24-1.43-3.24-3.59s1.23-3.58,3.24-3.58a2.68,2.68,0,0,1,3,2.55h-1.63a1.32,1.32,0,0,0-1.37-1.33c-1,0-1.6.92-1.6,2.34s.62,2.39,1.6,2.39a1.38,1.38,0,0,0,1.41-1.37h1.6A2.69,2.69,0,0,1,1597.24,177.13Z" style="fill:#1d1d1b"/><path d="M1607.83,173.54a3.39,3.39,0,1,1-3.39-3.57A3.28,3.28,0,0,1,1607.83,173.54Zm-5.12,0c0,1.43.62,2.37,1.72,2.37s1.76-.91,1.76-2.37-.65-2.36-1.75-2.36S1602.71,172.09,1602.71,173.54Z" style="fill:#1d1d1b"/><path d="M1610.61,171.06a2.43,2.43,0,0,1,2.09-1,1.87,1.87,0,0,1,1.91,1.14,2.48,2.48,0,0,1,2.31-1.14,2,2,0,0,1,1.61.6,3.07,3.07,0,0,1,.58,2.06v4.24h-1.57v-4c0-.89-.21-1.72-1.15-1.72-1.12,0-1.44,1.08-1.44,2.37v3.33h-1.57v-4c0-.89-.24-1.72-1.17-1.72-1.12,0-1.43,1.08-1.43,2.37v3.33h-1.58v-6.77h1.42Z" style="fill:#1d1d1b"/><path d="M1622.25,171.06a2.41,2.41,0,0,1,2.08-1,1.87,1.87,0,0,1,1.92,1.14,2.48,2.48,0,0,1,2.31-1.14,2,2,0,0,1,1.61.6,3.07,3.07,0,0,1,.58,2.06v4.24h-1.57v-4c0-.89-.21-1.72-1.14-1.72-1.13,0-1.45,1.08-1.45,2.37v3.33H1625v-4c0-.89-.24-1.72-1.17-1.72-1.12,0-1.43,1.08-1.43,2.37v3.33h-1.58v-6.77h1.42Z" style="fill:#1d1d1b"/><path d="M1636.64,176.05a2.63,2.63,0,0,1-2.27,1c-1.51,0-2.35-.75-2.35-2,0-2.16,2.72-2.17,4.44-2.38v-.29c0-.84-.4-1.29-1.24-1.29s-1.32.41-1.33,1.14h-1.62c0-1.42,1.18-2.26,3-2.26,2.16,0,2.77,1.12,2.77,2.94v1.89a12.57,12.57,0,0,0,.15,2.13h-1.43A7,7,0,0,1,1636.64,176.05Zm-3-1c0,.57.39.94,1.13.94,1,0,1.68-.47,1.68-1.94v-.29C1635.28,173.91,1633.65,173.87,1633.65,175Z" style="fill:#1d1d1b"/><path d="M1643.31,170a2,2,0,0,1,1.9.93,4,4,0,0,1,.41,2.08v3.89H1644v-3.78c0-1-.14-1.92-1.23-1.92s-1.54.66-1.54,2.27v3.43h-1.57v-6.77h1.46V171A2.61,2.61,0,0,1,1643.31,170Z" style="fill:#1d1d1b"/><path d="M1649.79,170a2.28,2.28,0,0,1,2,.9V167.4h1.58v9.53h-1.49V176a2.48,2.48,0,0,1-2.07,1c-1.73,0-2.86-1.28-2.86-3.53S1648.06,170,1649.79,170Zm.37,5.81c1,0,1.64-.85,1.64-2.31s-.62-2.3-1.62-2.3-1.62.88-1.62,2.3S1649.16,175.84,1650.16,175.84Z" style="fill:#1d1d1b"/><path d="M1658,167.4h1l-.67,2.06h.67v1.68h-1.76v-1.83Zm2.38,0h1l-.66,2.06h.66v1.68h-1.75v-1.83Z" style="fill:#1d1d1b"/><path d="M1669.05,168.78h-4.44v2.91h4.13v1.38h-4.13v3.86h-1.67V167.4h6.11Z" style="fill:#1d1d1b"/><path d="M1674.26,176.05a2.64,2.64,0,0,1-2.27,1c-1.51,0-2.35-.75-2.35-2,0-2.16,2.72-2.17,4.44-2.38v-.29c0-.84-.39-1.29-1.23-1.29s-1.33.41-1.34,1.14h-1.62c.06-1.42,1.18-2.26,3-2.26,2.15,0,2.76,1.12,2.76,2.94v1.89a12.57,12.57,0,0,0,.15,2.13h-1.43C1674.29,176.67,1674.28,176.4,1674.26,176.05Zm-3-1c0,.57.39.94,1.13.94,1,0,1.68-.47,1.68-1.94v-.29C1672.9,173.91,1671.27,173.87,1671.27,175Z" style="fill:#1d1d1b"/><path d="M1679.88,176c.74,0,1.23-.31,1.23-.84s-.75-.85-1.63-1.06c-1.15-.27-2.52-.58-2.52-2.06,0-1.23,1.09-2.05,2.83-2.05s2.8.78,2.8,2.26H1681c0-.8-.44-1.13-1.3-1.13-.69,0-1.14.31-1.14.79,0,.72,1,.91,2,1.15s2.14.67,2.14,2-1.1,2.1-2.87,2.1c-1.93,0-3-.81-3-2.35h1.61C1678.43,175.58,1678.92,176,1679.88,176Z" style="fill:#1d1d1b"/><path d="M1685.91,168.48v1.68h1.34v1.21h-1.34v3.18c0,.84.19,1.23.82,1.23a2,2,0,0,0,.54-.06v1.21a3.93,3.93,0,0,1-1,.12c-1.36,0-1.92-.65-1.92-2.18v-3.5h-1.09v-1.21h1.09v-1.68Z" style="fill:#1d1d1b"/><path d="M1692,177.06a2.51,2.51,0,0,1-2.09-1v.89h-1.47V167.4H1690V171a2.36,2.36,0,0,1,2-.92c1.73,0,2.82,1.34,2.82,3.5S1693.68,177.06,1692,177.06Zm-.41-5.83c-1,0-1.62.94-1.62,2.3s.65,2.31,1.64,2.31,1.62-.89,1.62-2.31S1692.65,171.23,1691.61,171.23Z" style="fill:#1d1d1b"/><path d="M1702.58,173.54a3.39,3.39,0,1,1-3.39-3.57A3.27,3.27,0,0,1,1702.58,173.54Zm-5.12,0c0,1.43.62,2.37,1.72,2.37s1.76-.91,1.76-2.37-.65-2.36-1.75-2.36S1697.46,172.09,1697.46,173.54Z" style="fill:#1d1d1b"/><path d="M1710.28,173.54a3.39,3.39,0,1,1-3.38-3.57A3.27,3.27,0,0,1,1710.28,173.54Zm-5.12,0c0,1.43.62,2.37,1.72,2.37s1.76-.91,1.76-2.37-.64-2.36-1.74-2.36S1705.16,172.09,1705.16,173.54Z" style="fill:#1d1d1b"/><path d="M1713.47,168.48v1.68h1.34v1.21h-1.34v3.18c0,.84.18,1.23.81,1.23a2,2,0,0,0,.54-.06v1.21a3.83,3.83,0,0,1-1,.12c-1.35,0-1.92-.65-1.92-2.18v-3.5h-1.08v-1.21h1.08v-1.68Z" style="fill:#1d1d1b"/><path d="M1727.12,172.17c0,3-1.77,5-4.44,5s-4.41-2-4.41-5,1.75-5,4.42-5S1727.12,169.21,1727.12,172.17Zm-7.14,0c0,2.16,1.06,3.63,2.7,3.63s2.73-1.55,2.73-3.63-1-3.64-2.72-3.64S1720,170,1720,172.17Z" style="fill:#1d1d1b"/><path d="M1734.86,168.78h-4.52v2.61h4.26v1.38h-4.26v2.77h4.7v1.39h-6.36V167.4h6.18Z" style="fill:#1d1d1b"/><path d="M1741.08,172.74c.3.88.48,1.66.71,2.39h.09c.16-.75.39-1.6.64-2.39l1.71-5.34h2.61v9.53h-1.55V172c0-.95,0-2.06.07-3.06h-.1c-.15.54-1.65,4.7-2.61,8h-1.9c-1-3.27-2.47-7.45-2.63-8H1738c0,.84.09,2.19.09,3.06v4.92h-1.53V167.4h2.61Z" style="fill:#1d1d1b"/><path d="M1753.62,177.06a2.19,2.19,0,0,1-1.91-.92,3.73,3.73,0,0,1-.4-2.14v-3.84h1.57V174c0,1,.14,1.92,1.24,1.92a1.3,1.3,0,0,0,1.12-.53,2.89,2.89,0,0,0,.42-1.74v-3.44h1.57v6.77h-1.47v-.88A2.58,2.58,0,0,1,1753.62,177.06Z" style="fill:#1d1d1b"/><path d="M1762.65,170a2,2,0,0,1,1.9.93A4,4,0,0,1,1765,173v3.89h-1.58v-3.78c0-1-.14-1.92-1.23-1.92s-1.53.66-1.53,2.27v3.43H1759v-6.77h1.46V171A2.62,2.62,0,0,1,1762.65,170Z" style="fill:#1d1d1b"/><path d="M1768.27,176.93h-1.58V167.4h1.58Z" style="fill:#1d1d1b"/><path d="M1776.4,173.54A3.39,3.39,0,1,1,1773,170,3.27,3.27,0,0,1,1776.4,173.54Zm-5.12,0c0,1.43.62,2.37,1.72,2.37s1.76-.91,1.76-2.37-.64-2.36-1.74-2.36S1771.28,172.09,1771.28,173.54Z" style="fill:#1d1d1b"/><path d="M1780.6,177.13c-2,0-3.24-1.43-3.24-3.59s1.23-3.58,3.24-3.58a2.67,2.67,0,0,1,3,2.55H1782a1.3,1.3,0,0,0-1.36-1.33c-1,0-1.6.92-1.6,2.34s.61,2.39,1.6,2.39a1.36,1.36,0,0,0,1.4-1.37h1.6A2.69,2.69,0,0,1,1780.6,177.13Z" style="fill:#1d1d1b"/><path d="M1786.44,173l2.3-2.81h1.87l-2.59,3,2.87,3.74h-2l-2.48-3.36v3.36h-1.57V167.4h1.57Z" style="fill:#1d1d1b"/><path d="M1792.35,171.14h-1l.67-2.06h-.67V167.4h1.76v1.84Zm2.37,0h-1l.67-2.06h-.67V167.4h1.76v1.84Z" style="fill:#1d1d1b"/></svg>