<svg xmlns="http://www.w3.org/2000/svg" viewBox="0 0 600 600"><title>i0</title><circle cx="267.7" cy="125.04" r="83.75" style="fill:none;stroke:#000;stroke-width:7.5px"/><circle cx="346.96" cy="278.34" r="35.91" transform="translate(-46.38 70.63) rotate(-10.9)" style="fill:none;stroke:#000;stroke-width:7.5px"/><circle cx="455.86" cy="85.38" r="35.91" transform="translate(2.03 180.95) rotate(-22.5)" style="fill:none;stroke:#000;stroke-width:7.5px"/><circle cx="513.08" cy="252.2" r="35.91" transform="translate(-37.8 99.25) rotate(-10.66)" style="fill:none;stroke:#000;stroke-width:7.5px"/><circle cx="112.65" cy="52.3" r="35.91" style="fill:none;stroke:#000;stroke-width:7.5px"/><circle cx="69.66" cy="159.46" r="35.91" style="fill:none;stroke:#000;stroke-width:7.5px"/><path d="M275.89,126.94a28.17,28.17,0,1,0-16.38,0,60.88,60.88,0,0,0-52.46,55.7,83.4,83.4,0,0,0,121.29,0A60.86,60.86,0,0,0,275.89,126.94Z" style="fill:none;stroke:#000;stroke-width:7.5px"/><path d="M350.46,279.22a12,12,0,1,0-7,0A26,26,0,0,0,321,303.06a35.6,35.6,0,0,0,51.83,0A26,26,0,0,0,350.46,279.22Z" style="fill:none;stroke:#000;stroke-width:7.5px"/><path d="M459.36,86.26a12,12,0,1,0-7,0,26,26,0,0,0-22.42,23.84,35.6,35.6,0,0,0,51.83,0A26,26,0,0,0,459.36,86.26Z" style="fill:none;stroke:#000;stroke-width:7.5px"/><path d="M516.58,253.08a12,12,0,1,0-7,0,26,26,0,0,0-22.41,23.84,35.6,35.6,0,0,0,51.83,0A26,26,0,0,0,516.58,253.08Z" style="fill:none;stroke:#000;stroke-width:7.5px"/><path d="M116.15,53.18a12,12,0,1,0-7,0A26,26,0,0,0,86.74,77a35.59,35.59,0,0,0,51.82,0A26,26,0,0,0,116.15,53.18Z" style="fill:none;stroke:#000;stroke-width:7.5px"/><path d="M73.16,160.34a12,12,0,1,0-7,0,26,26,0,0,0-22.41,23.84,35.59,35.59,0,0,0,51.82,0A26,26,0,0,0,73.16,160.34Z" style="fill:none;stroke:#000;stroke-width:7.5px"/><line x1="300.81" y1="201.38" x2="331.79" y2="242.28" style="fill:none;stroke:#000;stroke-width:7.5px"/><line x1="349.9" y1="151.41" x2="482.05" y2="228.51" style="fill:none;stroke:#000;stroke-width:7.5px"/><line x1="348.04" y1="102.65" x2="418.76" y2="92.47" style="fill:none;stroke:#000;stroke-width:7.5px"/><line x1="383.46" y1="280.09" x2="477.37" y2="262.96" style="fill:none;stroke:#000;stroke-width:7.5px"/><line x1="473.92" y1="118.24" x2="501.26" y2="217.4" style="fill:none;stroke:#000;stroke-width:7.5px"/><line x1="441.68" y1="120.37" x2="367.38" y2="249.1" style="fill:none;stroke:#000;stroke-width:7.5px"/><line x1="147.48" y1="68.49" x2="190.72" y2="88.28" style="fill:none;stroke:#000;stroke-width:7.5px"/><line x1="105.88" y1="154.48" x2="184.43" y2="140.78" style="fill:none;stroke:#000;stroke-width:7.5px"/><line x1="100" y1="87" x2="83.39" y2="124.99" style="fill:none;stroke:#000;stroke-width:7.5px"/></svg>