<svg xmlns="http://www.w3.org/2000/svg" viewBox="0 0 600 600"><title>Tavola disegno 5</title><polygon points="89.91 262.3 115.01 276.21 201.98 90.4 177.53 78.8 89.91 262.3" style="fill:none;stroke:#000;stroke-width:7.5px"/><polygon points="503.88 385.81 530.09 374.14 434.04 192.85 410.05 205.4 503.88 385.81" style="fill:none;stroke:#000;stroke-width:7.5px"/><polygon points="144.08 508.78 160.13 532.57 321.98 406.5 305.46 385.06 144.08 508.78" style="fill:none;stroke:#000;stroke-width:7.5px"/><path d="M142.57,333.32c-10.66-5.87-32.69-10.35-34.77,6.6-.62,5.05-2,13.2,2.75,16.47,3.94,2.74,10.45,2.58,15,4.2,4.27,1.54,7.82,2.64,12.4,2.78,3.87.12,12.42-2,16,.76,5.81,4.48-.58,18-1.88,22.84-2.06,7.65-5.42,14.1-13.41,17.25-5.51,2.18-9.85,4-15.71,4.13,4.35,0,9.07-3,12.68-5a91.49,91.49,0,0,0,9.07-5.78c4.42-3.22,5.27-6,7.7-10.8,1-1.54,2-3.13,2.9-4.75a15.48,15.48,0,0,0,.37-4.4,5.08,5.08,0,0,1,4.09-.93c6.69-1.34,11.2-2.26,16.76-6.8,7.31-6,26.23-27,5.79-29.52-9.24-1.14-11.82,1.63-13,9.52-.54,3.72-1.56,8.68-.58,12.44,2.24,8.59,13.43,13.15,21.19,14.09,19.2,2.32,16.12-17.94,17.82-30,2.66-.3,5.72,2.3,8.34,3.07,3.61,1.06,7.58,1.4,10.88-.79,8.06-5.35,2.24-16.27-3.25-21.19-5.86-5.24-13.41-8.58-16.66.77-1.89,5.44-1.43,11.21-1.42,16.88,0-3.66-.41-7.48.12-11.11.48-3.24,2.84-11.5,5.88-13.4,6.76-4.23,14.75,6.76,17.41,11.38,4.07,7.1,9.51,12.81,12.71,20.5,2.87,6.9,6,13.45,8,20.71,2.88,10.38.71,24.14-12,25.16-3.28.26-8.08,1.06-10.57-1.38-3-3-2.1-11.2-1.68-14.92.75-6.68,3.75-14.22,6.14-20.49,1.32-3.46,3.53-5.43,4-9a53.68,53.68,0,0,0,0-5.95c.11-6.46-2.22-10.12-4.29-16-1.31-3.7-4-6.93-4.82-10.46a22.11,22.11,0,0,1,.22-6.68c2.47-.6,4.39,2.3,5.74,4.13,4.42,5.95,5.27,12.76,7.95,19.41-1.25-6.8-2.1-14-2.67-20.88-.36-4.47-2-10.79,2.2-13.13,8.58-4.77,15.14,6.43,16.46,13.48.92,4.91-.23,7.6,6.32,7.93,9.94.49,17.86-9.92,19.74-18.86,1-4.76.43-7.36-3.48-10a27.18,27.18,0,0,0-12.4-4.3c-10.74-.77-9.06,9.66-9,17.19,0,6.48,3.71,17.06,12.82,13.66,6-2.25,10.35-13.93,12.12-19.52,1,2.24,4.11,6,7,4.58-.81-5.08-7.18-10.33-9.56-15-1.49-2.94-5-6.69-4.62-10.15,6,4.24,12.36,16,16.34,21.34,9.66,12.87,19.65,25.24,27.52,39.33,3.51,6.28,5.38,13.33,8.83,19.45q3.27-3.72-3.94-8.29Q313.66,338.07,302.35,323c-4.27-5.64-9-10.52-12.15-16.81-2.32-4.61-6.28-7.84-8.75-12.64-2-3.93-5.52-7.52-6.18-12-1.53-10.28,15.25-6.14,20.91-5.32,6.19.89,11.45,1.42,10.81,8.86-.6,7-7.29,13.23-11.36,18.53,4.6-3,6.66-8.33,8.14-13.27,3.74,1.16,5.08,6.54,9.79,7.15,7.65,1,10.09-8.8,10.85-14.54.9-6.84,2.5-22.25-7.5-23.22-6.23-.61-8.64,5.1-10.84,9.7-3.1,6.5-3.13,9.25,1.48,15.48,3,4.05,11,13.45,14.63,5.42,2.34-5.15,1-13.56.44-18.76-.42-4-3.16-10.95.88-14.15,3.82-3,9.3,0,12,3.14,9.43,10.86-.08,21.28-9.68,26.83,2.33.29,4.77-1.71,6.72-2.74,5.91-3.12,11.28-7,12.22-14.35a20.54,20.54,0,0,0-2.43-11.53,249.53,249.53,0,0,1-9.07-29.59q-2-9.45-4.8-18.69c-2.55-10.53-3.09-21.34-4-32.09,2.62,13.51,4.44,27,7.64,40.4,2.25,9.46,4.33,25.19,10.63,33.57,3.17,4.21,8.53,7.92,12.5,11.37,2,1.72,4.43,2.95,5.6,5.4-2.95-5.63-9.63-9.74-13.77-14.53s-5.81-9.77-8.22-15.39a45.64,45.64,0,0,1-2-29c-4.11,0-12.79,6.14-15.27,7.45,2.28-1.2-13.14,5.91-14,6.73,13.06-6.33,29.74-14,40-25-4.6-4.71-8,5.73-9.52,8.47-6.83,12.12-.69,29.28,1.49,42,2.54,14.89,18.63,15.49,31.31,14.6,1.31-.1,8.16-.71,9.47-2.57a27.7,27.7,0,0,0,.45-10.27c-.82-7.74-4.17-13.23-8-19.73-2.41-4.11-3.58-7.75-8.79-4.67s-7.17,7.91-9.07,13.29c-2.19,6.21-4.87,8,.55,12.34,4.06,3.28,8.38,5.35,13.65,4.59,14-2,7.26-17.67,8.49-27.66.85-7,7.71-10.37,7.07-18.45" style="fill:none;stroke:#000;stroke-width:7.5px"/></svg>