<?xml version="1.0" encoding="utf-8"?>
<!-- Generator: Adobe Illustrator 22.1.0, SVG Export Plug-In . SVG Version: 6.00 Build 0)  -->
<svg version="1.1" id="Livello_1" xmlns="http://www.w3.org/2000/svg" xmlns:xlink="http://www.w3.org/1999/xlink" x="0px" y="0px"
	 viewBox="0 0 600 600" style="enable-background:new 0 0 600 600;" xml:space="preserve">
<style type="text/css">
	.st0{fill:none;stroke:#000;stroke-width:7.5;}
	.st1{fill:none;stroke:#000;stroke-width:7.5;stroke-linecap:round;}
</style>
<title>i1</title>
<path class="st0" d="M353.1,369.7c0,0,12,7.4,10.3,19.9s-15.2,15.2-15.2,15.2l-80.3-9.9c0,0-12.8-5-10.8-19.4
	c2-14.4,13.8-16.6,13.8-16.6L353.1,369.7z"/>
<path class="st0" d="M264.9,378.4c0,0,13.9,2.4,17,14.6s-8.4,19.8-8.4,19.8l-78.2,21c0,0-13.7,0.1-17.3-13.9s6.6-20.6,6.6-20.6
	L264.9,378.4z"/>
<path class="st0" d="M186.6,379.3c0,0,12,7.4,10.3,19.9s-15.2,15.2-15.2,15.2l-80.3-9.8c0,0-12.8-5-10.8-19.4s13.8-16.6,13.8-16.6
	L186.6,379.3z"/>
<path class="st0" d="M576,555.7c0,0-8.5,11.3-20.9,8.5s-13.9-16.5-13.9-16.5l16.8-79.1c0,0,6.1-12.3,20.4-9.1s15.5,15.2,15.5,15.2
	L576,555.7z"/>
<path class="st0" d="M396.8,372.2l-43.2,109.7c0,0,1.2,14,11.8,18.2l13.5,5.3l-15.1,38.3c0,0-3.9,11.6,8.4,16.5c7,2.9,15,1.8,20.8-3
	l16.2-40.2l23.2,9.1l-13.9,35.4c0,0-3.5,15.9,9.4,21s19.8-3.7,19.8-3.7l16.5-41.8l14.7,5.8c0,0,15.7,1.5,18.7-6.2l42.5-107.9
	L396.8,372.2z"/>
<path class="st0" d="M548.2,409l-144.1-56.7c0,0,32.1-63.4,98-37.5C568,340.7,548.2,409,548.2,409z"/>
<line class="st1" x1="455.8" y1="256" x2="465.8" y2="293.9"/>
<line class="st1" x1="577.9" y1="311.7" x2="540.1" y2="322.3"/>
<path class="st0" d="M62.7,408.7l-31.9,27.2c0,0-11.2,4.3-20.3-6.3s-1.2-21.5-1.2-21.5L39.8,382"/>
<path class="st0" d="M62.9,366.9l-8.2-34.1c0,0-1.7-8.6,3.4-11.9"/>
<path class="st0" d="M70.5,435.7l35-10.8c0,0,18.4-12.8,2.8-31"/>
</svg>
