<?xml version="1.0" encoding="utf-8"?>
<!-- Generator: Adobe Illustrator 22.1.0, SVG Export Plug-In . SVG Version: 6.00 Build 0)  -->
<svg version="1.1" id="Livello_1" xmlns="http://www.w3.org/2000/svg" xmlns:xlink="http://www.w3.org/1999/xlink" x="0px" y="0px"
	 viewBox="0 0 600 600" style="enable-background:new 0 0 600 600;" xml:space="preserve">
<style type="text/css">
	.st0{fill:none;stroke:#000;stroke-width:7.5;}
</style>
<title>i3</title>
<path d="M26,406.1h-1.9l-1-2.8h-4.2l-1,2.8H16l3.9-10.5h2.2L26,406.1z M21,397.1L21,397.1c-0.3,1-0.6,2-1,3l-0.6,1.6h3.2l-0.6-1.7
	C21.7,399.1,21.3,398.1,21,397.1L21,397.1z"/>
<path d="M540.7,314.4c1.6,0.8,2.5,2.4,2.5,4.6c0,1.3-0.4,2.6-1.2,3.6c-1,1.2-2.5,1.8-4.1,1.7h-3.3v-10.5h3.1
	C538.7,313.8,539.7,314,540.7,314.4z M540.2,322c0.7-0.8,1.1-1.8,1-2.9c0-1.5-0.4-2.6-1.3-3.2c-0.7-0.4-1.5-0.6-2.3-0.5h-1.1v7.5
	h1.1C538.5,322.9,539.5,322.6,540.2,322z"/>
<path d="M442.4,345.7c1.6,0.8,2.5,2.4,2.5,4.6c0,1.3-0.4,2.6-1.1,3.6c-1,1.2-2.5,1.8-4.1,1.7h-3.3v-10.5h3.1
	C440.4,345.1,441.4,345.3,442.4,345.7z M441.9,353.3c0.7-0.8,1.1-1.8,1-2.9c0-1.5-0.4-2.6-1.3-3.2c-0.7-0.4-1.5-0.6-2.3-0.5h-1.1
	v7.5h1.1C440.2,354.2,441.1,353.9,441.9,353.3z"/>
<path d="M445.7,346.8c1,0,1.5-0.4,1.6-1h1.1v5.7h-1.2v-3.9h-1.5V346.8z"/>
<path d="M221.1,324.5c0.8,0.5,1.2,1.3,1.2,2.2c0,1.2-0.8,2.2-2,2.4v0c1.3,0.1,2.2,1.2,2.2,2.4c0,0,0,0,0,0c0.1,1-0.5,2-1.5,2.4
	c-0.9,0.4-1.9,0.5-2.9,0.4H215V324h3.2C219.2,323.9,220.2,324.1,221.1,324.5z M220.5,327c0-1.3-1-1.5-2.3-1.5h-1.4v3h1.3
	C219.2,328.5,220.5,328.3,220.5,327L220.5,327z M220.7,331.5c0-1.3-0.9-1.5-2.5-1.5h-1.3v3.1h1.4C219.5,333,220.7,332.8,220.7,331.5
	L220.7,331.5z"/>
<path d="M335.3,278.3c-2.9,0-4.7-2-4.7-5.4c0-3.2,1.9-5.6,4.8-5.6c2.2-0.2,4.1,1.5,4.3,3.7c0,0,0,0,0,0h-1.9c0-1.3-1.1-2.3-2.4-2.3
	c-1.7,0-2.9,1.6-2.9,4s1.1,4,2.9,4c1.3,0,2.4-1,2.5-2.4h1.9C339.5,276.7,337.6,278.4,335.3,278.3z"/>
<path d="M580.6,57.9c1.6,0.8,2.5,2.4,2.5,4.6c0,1.3-0.4,2.6-1.2,3.6c-1,1.2-2.5,1.8-4.1,1.7h-3.3V57.3h3.1
	C578.6,57.3,579.6,57.5,580.6,57.9z M580.1,65.5c0.7-0.8,1.1-1.8,1-2.9c0-1.6-0.4-2.6-1.3-3.2c-0.7-0.4-1.5-0.6-2.3-0.6h-1.1v7.5
	h1.1C578.4,66.4,579.4,66.1,580.1,65.5L580.1,65.5z"/>
<path d="M584.1,63.3c0-1.3,0.8-1.9,1.8-2.5c0.7-0.4,1.2-0.8,1.2-1.3c0-0.4-0.3-0.8-0.7-0.9c-0.1,0-0.1,0-0.2,0c-0.6,0-0.9,0.4-1,1.2
	h-1.1c0-1.1,0.8-2,1.9-2.1c0.1,0,0.2,0,0.3,0c1.3,0,2,0.7,2,1.7s-0.7,1.5-1.6,2c-0.5,0.3-1,0.7-1.3,1.2h2.8v1h-4.2
	C584.1,63.5,584.1,63.3,584.1,63.3z"/>
<path class="st0" d="M25.4,378.7c0,0,57-197,190.2-68.1c0,0,10.8-150.5,119.5-53.6c0,0,163.1-184.9,202.2,44.5"/>
<path class="st0" d="M384.4,227.8c0,0,58.7,35,57,106.6"/>
<path class="st0" d="M460.2,175.7c0,0,34.2-106.4,107.2-114.6"/>
</svg>
